;TYPE=PLATED
;Layer: PTH_Through_Via
;EasyEDA Pro v2.2.45.4, 2025-12-20 17:50:56
;Gerber Generator version 0.3
M48
METRIC,LZ,0000.00000
;Hole size 1 = 0.30500 METRIC
T01C0.30500
%
G05
G90
T01
X-27.813Y2.286
X-27.813Y-1.397
X-33.2609Y-17.86095
X-40.1955Y-9.7155
X-40.1955Y0.4445
X-35.1155Y5.5245
X-30.0355Y-9.7155
X-30.0355Y-4.6355
X-30.0355Y5.5245
X-30.0355Y-19.8755
X-24.9555Y-14.7955
X-24.9555Y-9.7155
X-24.9555Y-4.6355
X-24.9555Y5.5245
X-24.9555Y-19.8755
X-19.8755Y-14.7955
X-19.8755Y-9.7155
X-19.8755Y5.5245
X-14.7955Y-4.6355
X-14.7955Y0.4445
X-14.7955Y5.5245
X-9.7155Y0.4445
X-9.7155Y5.5245
X-9.7155Y-19.8755
X-4.6355Y-4.6355
X-4.6355Y0.4445
X-4.6355Y5.5245
X-4.6355Y-19.8755
X0.4445Y0.4445
X0.4445Y5.5245
X0.4445Y-19.8755
X5.5245Y-4.6355
X5.5245Y0.4445
X5.5245Y5.5245
X5.5245Y-19.8755
X5.5245Y-14.7955
X10.6045Y-4.6355
X10.6045Y0.4445
X10.6045Y5.5245
X10.6045Y-19.8755
X10.6045Y-14.7955
M30