G04 Layer: DrillDrawingLayer*
G04 EasyEDA Pro v2.2.45.4, 2025-12-20 17:50:56*
G04 Gerber Generator version 0.3*
G04 Scale: 100 percent, Rotated: No, Reflected: No*
G04 Dimensions in millimeters*
G04 Leading zeros omitted, absolute positions, 4 integers and 5 decimals*
G04 Generated by one-click*
%FSLAX45Y45*%
%MOMM*%
%AMIconRect*4,1,4,0.28,-0.28,-0.28,-0.28,-0.28,0.28,0.28,0.28,0.28,-0.28,0*4,0,4,0.233333,-0.233333,0.233333,0.233333,-0.233333,0.233333,-0.233333,-0.233333,0.233333,-0.233333,0*%
%AMIconTriangle*4,1,3,-0.339593,0.240473,0.339593,0.240473,0,-0.37884,-0.339593,0.240473,0*4,0,3,-0.265673,0.19404,0,-0.27342,0.266233,0.19404,-0.265673,0.19404,0*%
%ADD10IconRect*%
%ADD11C,0.616X0.522667*%
%ADD12IconTriangle*%
G75*


G04 Drill Drawing Start*
G54D10*
G01X-3581400Y-2223795D03*
G01X-3581400Y-1433805D03*
G01X-3327400Y-2223795D03*
G01X-3327400Y-1433805D03*
G01X-3073400Y-2223795D03*
G01X-3073400Y-1433805D03*
G01X-2819400Y-2223795D03*
G01X-2819400Y-1433805D03*
G54D11*
G01X-4318000Y-1485900D03*
G01X-4318000Y-1104900D03*
G01X-4318000Y-698500D03*
G01X-3200400Y-1155700D03*
G01X-1511300Y-1549400D03*
G01X-1227667Y-1549730D03*
G01X-944033Y-1549730D03*
G01X-660400Y-1549400D03*
G01X-90736Y-1557487D03*
G01X419100Y-1562100D03*
G01X1435100Y-1485900D03*
G01X1435100Y-698500D03*
G54D12*
G01X-4019550Y-971550D03*
G01X-4019550Y44450D03*
G01X-3511550Y552450D03*
G01X-3326090Y-1786095D03*
G01X-3003550Y-1987550D03*
G01X-3003550Y-971550D03*
G01X-3003550Y-463550D03*
G01X-3003550Y552450D03*
G01X-2781300Y-139700D03*
G01X-2781300Y228600D03*
G01X-2495550Y-1987550D03*
G01X-2495550Y-1479550D03*
G01X-2495550Y-971550D03*
G01X-2495550Y-463550D03*
G01X-2495550Y552450D03*
G01X-1987550Y-1479550D03*
G01X-1987550Y-971550D03*
G01X-1987550Y552450D03*
G01X-1479550Y-463550D03*
G01X-1479550Y44450D03*
G01X-1479550Y552450D03*
G01X-971550Y-1987550D03*
G01X-971550Y44450D03*
G01X-971550Y552450D03*
G01X-463550Y-1987550D03*
G01X-463550Y-463550D03*
G01X-463550Y44450D03*
G01X-463550Y552450D03*
G01X44450Y-1987550D03*
G01X44450Y44450D03*
G01X44450Y552450D03*
G01X552450Y-1987550D03*
G01X552450Y-1479550D03*
G01X552450Y-463550D03*
G01X552450Y44450D03*
G01X552450Y552450D03*
G01X1060450Y-1987550D03*
G01X1060450Y-1479550D03*
G01X1060450Y-463550D03*
G01X1060450Y44450D03*
G01X1060450Y552450D03*
G04 Drill Drawing End*

M02*

