G04 Layer: TopPasteMaskLayer*
G04 EasyEDA Pro v2.2.45.4, 2025-12-20 17:50:56*
G04 Gerber Generator version 0.3*
G04 Scale: 100 percent, Rotated: No, Reflected: No*
G04 Dimensions in millimeters*
G04 Leading zeros omitted, absolute positions, 4 integers and 5 decimals*
G04 Generated by one-click*
%FSLAX45Y45*%
%MOMM*%
%AMPolygonMacro1*4,1,4,0.762,0.508,0.762,-0.508,-0.762,-0.508,-0.762,0.508,0.762,0.508,0*%
%ADD10PolygonMacro1*%
%ADD11R,1.2X3.49999*%
%ADD12R,3.49999X1.2*%
%ADD13R,1.25001X0.7*%
%ADD14R,2.2X3.59999*%
%ADD15R,5.29999X2.0*%
%ADD16R,3.3058X2.69999*%
%ADD17R,3.29999X2.69999*%
G75*


G04 PolygonModel Start*
G36*
G01X292388Y-1335748D02*
G01X223288Y-1335748D01*
G01X213288Y-1325748D01*
G01X213288Y-1290157D01*
G01X203288Y-1280157D01*
G01X131487Y-1280157D01*
G01X121487Y-1290157D01*
G01X121487Y-1325748D01*
G01X111487Y-1335748D01*
G01X42386Y-1335748D01*
G01X32386Y-1325748D01*
G01X32386Y-1182248D01*
G01X42386Y-1172248D01*
G01X292388Y-1172248D01*
G01X302388Y-1182248D01*
G01X302388Y-1325748D01*
G01X292388Y-1335748D01*
G37*
G36*
G01X292388Y-1475748D02*
G01X223288Y-1475748D01*
G01X213288Y-1485748D01*
G01X213288Y-1521338D01*
G01X203288Y-1531338D01*
G01X131487Y-1531338D01*
G01X121487Y-1521338D01*
G01X121487Y-1485748D01*
G01X111487Y-1475748D01*
G01X42386Y-1475748D01*
G01X32386Y-1485748D01*
G01X32386Y-1629247D01*
G01X42386Y-1639247D01*
G01X292388Y-1639247D01*
G01X302388Y-1629247D01*
G01X302388Y-1485748D01*
G01X292388Y-1475748D01*
G37*
G36*
G01X-225670Y-1335748D02*
G01X-294771Y-1335748D01*
G01X-304771Y-1325748D01*
G01X-304771Y-1290157D01*
G01X-314771Y-1280157D01*
G01X-386571Y-1280157D01*
G01X-396571Y-1290157D01*
G01X-396571Y-1325748D01*
G01X-406571Y-1335748D01*
G01X-475672Y-1335748D01*
G01X-485672Y-1325748D01*
G01X-485672Y-1182248D01*
G01X-475672Y-1172248D01*
G01X-225670Y-1172248D01*
G01X-215670Y-1182248D01*
G01X-215670Y-1325748D01*
G01X-225670Y-1335748D01*
G37*
G36*
G01X-225670Y-1475748D02*
G01X-294771Y-1475748D01*
G01X-304771Y-1485748D01*
G01X-304771Y-1521338D01*
G01X-314771Y-1531338D01*
G01X-386571Y-1531338D01*
G01X-396571Y-1521338D01*
G01X-396571Y-1485748D01*
G01X-406571Y-1475748D01*
G01X-475672Y-1475748D01*
G01X-485672Y-1485748D01*
G01X-485672Y-1629247D01*
G01X-475672Y-1639247D01*
G01X-225670Y-1639247D01*
G01X-215670Y-1629247D01*
G01X-215670Y-1485748D01*
G01X-225670Y-1475748D01*
G37*
G36*
G01X-3277720Y-1010204D02*
G01X-3277720Y-941103D01*
G01X-3267720Y-931103D01*
G01X-3232130Y-931103D01*
G01X-3222130Y-921103D01*
G01X-3222130Y-849302D01*
G01X-3232130Y-839302D01*
G01X-3267720Y-839302D01*
G01X-3277720Y-829302D01*
G01X-3277720Y-760202D01*
G01X-3267720Y-750202D01*
G01X-3124220Y-750202D01*
G01X-3114220Y-760202D01*
G01X-3114220Y-1010204D01*
G01X-3124220Y-1020204D01*
G01X-3267720Y-1020204D01*
G01X-3277720Y-1010204D01*
G37*
G36*
G01X-3417720Y-1010204D02*
G01X-3417720Y-941103D01*
G01X-3427720Y-931103D01*
G01X-3463310Y-931103D01*
G01X-3473310Y-921103D01*
G01X-3473310Y-849302D01*
G01X-3463310Y-839302D01*
G01X-3427720Y-839302D01*
G01X-3417720Y-829302D01*
G01X-3417720Y-760202D01*
G01X-3427720Y-750202D01*
G01X-3571220Y-750202D01*
G01X-3581220Y-760202D01*
G01X-3581220Y-1010204D01*
G01X-3571220Y-1020204D01*
G01X-3427720Y-1020204D01*
G01X-3417720Y-1010204D01*
G37*
G36*
G01X-2142705Y-1892005D02*
G01X-2178836Y-1892005D01*
G01X-2188836Y-1882005D01*
G01X-2188836Y-1860949D01*
G01X-2198836Y-1850949D01*
G01X-2236672Y-1850949D01*
G01X-2246672Y-1860949D01*
G01X-2246672Y-1882005D01*
G01X-2256672Y-1892005D01*
G01X-2292803Y-1892005D01*
G01X-2302803Y-1882005D01*
G01X-2302803Y-1781254D01*
G01X-2292803Y-1771254D01*
G01X-2142705Y-1771254D01*
G01X-2132705Y-1781254D01*
G01X-2132705Y-1882005D01*
G01X-2142705Y-1892005D01*
G37*
G36*
G01X-2142705Y-2067006D02*
G01X-2178836Y-2067006D01*
G01X-2188836Y-2077006D01*
G01X-2188836Y-2098063D01*
G01X-2198836Y-2108063D01*
G01X-2236672Y-2108063D01*
G01X-2246672Y-2098063D01*
G01X-2246672Y-2077006D01*
G01X-2256672Y-2067006D01*
G01X-2292803Y-2067006D01*
G01X-2302803Y-2077006D01*
G01X-2302803Y-2177758D01*
G01X-2292803Y-2187758D01*
G01X-2142705Y-2187758D01*
G01X-2132705Y-2177758D01*
G01X-2132705Y-2077006D01*
G01X-2142705Y-2067006D01*
G37*
G36*
G01X-2099467Y-187129D02*
G01X-2099467Y-150998D01*
G01X-2089467Y-140998D01*
G01X-2068411Y-140998D01*
G01X-2058411Y-130998D01*
G01X-2058411Y-93162D01*
G01X-2068411Y-83162D01*
G01X-2089467Y-83162D01*
G01X-2099467Y-73162D01*
G01X-2099467Y-37031D01*
G01X-2089467Y-27031D01*
G01X-1988716Y-27031D01*
G01X-1978716Y-37031D01*
G01X-1978716Y-187129D01*
G01X-1988716Y-197129D01*
G01X-2089467Y-197129D01*
G01X-2099467Y-187129D01*
G37*
G36*
G01X-2274468Y-187129D02*
G01X-2274468Y-150998D01*
G01X-2284468Y-140998D01*
G01X-2305525Y-140998D01*
G01X-2315525Y-130998D01*
G01X-2315525Y-93162D01*
G01X-2305525Y-83162D01*
G01X-2284468Y-83162D01*
G01X-2274468Y-73162D01*
G01X-2274468Y-37031D01*
G01X-2284468Y-27031D01*
G01X-2385220Y-27031D01*
G01X-2395220Y-37031D01*
G01X-2395220Y-187129D01*
G01X-2385220Y-197129D01*
G01X-2284468Y-197129D01*
G01X-2274468Y-187129D01*
G37*
G36*
G01X-1791567Y-2067006D02*
G01X-1755436Y-2067006D01*
G01X-1745436Y-2077006D01*
G01X-1745436Y-2098063D01*
G01X-1735436Y-2108063D01*
G01X-1697600Y-2108063D01*
G01X-1687600Y-2098063D01*
G01X-1687600Y-2077006D01*
G01X-1677600Y-2067006D01*
G01X-1641469Y-2067006D01*
G01X-1631469Y-2077006D01*
G01X-1631469Y-2177758D01*
G01X-1641469Y-2187758D01*
G01X-1791567Y-2187758D01*
G01X-1801567Y-2177758D01*
G01X-1801567Y-2077006D01*
G01X-1791567Y-2067006D01*
G37*
G36*
G01X-1791567Y-1892005D02*
G01X-1755436Y-1892005D01*
G01X-1745436Y-1882005D01*
G01X-1745436Y-1860949D01*
G01X-1735436Y-1850949D01*
G01X-1697600Y-1850949D01*
G01X-1687600Y-1860949D01*
G01X-1687600Y-1882005D01*
G01X-1677600Y-1892005D01*
G01X-1641469Y-1892005D01*
G01X-1631469Y-1882005D01*
G01X-1631469Y-1781254D01*
G01X-1641469Y-1771254D01*
G01X-1791567Y-1771254D01*
G01X-1801567Y-1781254D01*
G01X-1801567Y-1882005D01*
G01X-1791567Y-1892005D01*
G37*
G36*
G01X-2731651Y-738000D02*
G01X-2767782Y-738000D01*
G01X-2777782Y-728000D01*
G01X-2777782Y-706943D01*
G01X-2787782Y-696943D01*
G01X-2825618Y-696943D01*
G01X-2835618Y-706943D01*
G01X-2835618Y-728000D01*
G01X-2845618Y-738000D01*
G01X-2881749Y-738000D01*
G01X-2891749Y-728000D01*
G01X-2891749Y-627248D01*
G01X-2881749Y-617248D01*
G01X-2731651Y-617248D01*
G01X-2721651Y-627248D01*
G01X-2721651Y-728000D01*
G01X-2731651Y-738000D01*
G37*
G36*
G01X-2731651Y-913000D02*
G01X-2767782Y-913000D01*
G01X-2777782Y-923000D01*
G01X-2777782Y-944057D01*
G01X-2787782Y-954057D01*
G01X-2825618Y-954057D01*
G01X-2835618Y-944057D01*
G01X-2835618Y-923000D01*
G01X-2845618Y-913000D01*
G01X-2881749Y-913000D01*
G01X-2891749Y-923000D01*
G01X-2891749Y-1023752D01*
G01X-2881749Y-1033752D01*
G01X-2731651Y-1033752D01*
G01X-2721651Y-1023752D01*
G01X-2721651Y-923000D01*
G01X-2731651Y-913000D01*
G37*
G36*
G01X-4090817Y-2163529D02*
G01X-4054686Y-2163529D01*
G01X-4044686Y-2173529D01*
G01X-4044686Y-2194585D01*
G01X-4034686Y-2204585D01*
G01X-3996850Y-2204585D01*
G01X-3986850Y-2194585D01*
G01X-3986850Y-2173529D01*
G01X-3976850Y-2163529D01*
G01X-3940719Y-2163529D01*
G01X-3930719Y-2173529D01*
G01X-3930719Y-2274280D01*
G01X-3940719Y-2284280D01*
G01X-4090817Y-2284280D01*
G01X-4100817Y-2274280D01*
G01X-4100817Y-2173529D01*
G01X-4090817Y-2163529D01*
G37*
G36*
G01X-4090817Y-1988528D02*
G01X-4054686Y-1988528D01*
G01X-4044686Y-1978528D01*
G01X-4044686Y-1957471D01*
G01X-4034686Y-1947471D01*
G01X-3996850Y-1947471D01*
G01X-3986850Y-1957471D01*
G01X-3986850Y-1978528D01*
G01X-3976850Y-1988528D01*
G01X-3940719Y-1988528D01*
G01X-3930719Y-1978528D01*
G01X-3930719Y-1877776D01*
G01X-3940719Y-1867776D01*
G01X-4090817Y-1867776D01*
G01X-4100817Y-1877776D01*
G01X-4100817Y-1978528D01*
G01X-4090817Y-1988528D01*
G37*

G04 Pad Start*
G54D10*
G01X-4318000Y-2032000D03*
G01X-4318000Y-1790700D03*
G01X-1244600Y-2349500D03*
G54D11*
G01X842164Y-917125D03*
G01X842164Y-1451135D03*
G54D12*
G01X-3601800Y-197536D03*
G01X-3067790Y-197536D03*
G54D13*
G01X-2043100Y-527304D03*
G01X-2043100Y-717296D03*
G01X-1843100Y-622300D03*
G54D14*
G01X151367Y-418407D03*
G01X-828631Y-418407D03*
G54D15*
G01X-4150713Y402989D03*
G01X-4150713Y-257005D03*
G54D17*
G01X-1295400Y-1422730D03*
G01X-1295400Y-685470D03*
G04 Pad End*

M02*

