G04 Layer: TopLayer*
G04 EasyEDA Pro v2.2.45.4, 2025-12-20 17:50:56*
G04 Gerber Generator version 0.3*
G04 Scale: 100 percent, Rotated: No, Reflected: No*
G04 Dimensions in millimeters*
G04 Leading zeros omitted, absolute positions, 4 integers and 5 decimals*
G04 Generated by one-click*
%FSLAX45Y45*%
%MOMM*%
%AMPolygonMacro1*4,1,4,0.762,0.508,0.762,-0.508,-0.762,-0.508,-0.762,0.508,0.762,0.508,0*%
%ADD10C,0.381*%
%ADD11C,0.254*%
%ADD12C,1.524*%
%ADD13PolygonMacro1*%
%ADD14R,1.2X3.49999*%
%ADD15R,2.69999X1.635*%
%ADD16R,3.49999X1.2*%
%ADD17R,1.635X2.69999*%
%ADD18R,1.25001X0.7*%
%ADD19O,1.5201X2.0*%
%ADD20O,1.524X2.0*%
%ADD21R,1.70101X1.20752*%
%ADD22R,1.20752X1.70101*%
%ADD23R,2.2X3.59999*%
%ADD24R,5.29999X2.0*%
%ADD25R,3.29999X2.69999*%
%ADD26C,0.61*%
%ADD27C,1.27*%
%ADD28C,1.4986*%
%ADD29C,0.635*%
G75*


G04 Copper Start*
G36*
G01X-3149912Y-2352666D02*
G01X-3000680Y-2501900D01*
G01X-4311650Y-2501900D01*
G01X-4342317Y-2499890D01*
G01X-4372460Y-2493894D01*
G01X-4401561Y-2484015D01*
G01X-4429125Y-2470423D01*
G01X-4454678Y-2453348D01*
G01X-4477785Y-2433085D01*
G01X-4498048Y-2409978D01*
G01X-4515123Y-2384425D01*
G01X-4528715Y-2356861D01*
G01X-4538594Y-2327760D01*
G01X-4544590Y-2297617D01*
G01X-4546600Y-2266950D01*
G01X-4546600Y-1739900D01*
G01X-4438904Y-1739900D01*
G01X-4438904Y-1841500D01*
G01X-4437381Y-1853070D01*
G01X-4432915Y-1863852D01*
G01X-4425811Y-1873111D01*
G01X-4416552Y-1880215D01*
G01X-4405770Y-1884681D01*
G01X-4394200Y-1886204D01*
G01X-4241800Y-1886204D01*
G01X-4241800Y-1886204D01*
G01X-4230230Y-1884681D01*
G01X-4219448Y-1880215D01*
G01X-4210189Y-1873111D01*
G01X-4203085Y-1863852D01*
G01X-4198619Y-1853070D01*
G01X-4197096Y-1841500D01*
G01X-4197096Y-1739900D01*
G01X-4198619Y-1728330D01*
G01X-4203085Y-1717548D01*
G01X-4210189Y-1708289D01*
G01X-4219448Y-1701185D01*
G01X-4230230Y-1696719D01*
G01X-4241800Y-1695196D01*
G01X-4394200Y-1695196D01*
G01X-4405770Y-1696719D01*
G01X-4416552Y-1701185D01*
G01X-4425811Y-1708289D01*
G01X-4432915Y-1717548D01*
G01X-4437381Y-1728330D01*
G01X-4438904Y-1739900D01*
G01X-4546600Y-1739900D01*
G01X-4546600Y-1485900D01*
G01X-4438904Y-1485900D01*
G01X-4437067Y-1506895D01*
G01X-4431613Y-1527252D01*
G01X-4422706Y-1546352D01*
G01X-4410618Y-1563616D01*
G01X-4395716Y-1578518D01*
G01X-4378452Y-1590606D01*
G01X-4359352Y-1599513D01*
G01X-4338995Y-1604967D01*
G01X-4318000Y-1606804D01*
G01X-4297005Y-1604967D01*
G01X-4276648Y-1599513D01*
G01X-4257548Y-1590606D01*
G01X-4240284Y-1578518D01*
G01X-4225382Y-1563616D01*
G01X-4213294Y-1546352D01*
G01X-4204387Y-1527252D01*
G01X-4198933Y-1506895D01*
G01X-4197096Y-1485900D01*
G01X-4198933Y-1464905D01*
G01X-4204387Y-1444548D01*
G01X-4213294Y-1425448D01*
G01X-4225382Y-1408184D01*
G01X-4240284Y-1393282D01*
G01X-4257548Y-1381194D01*
G01X-4276648Y-1372287D01*
G01X-4297005Y-1366833D01*
G01X-4318000Y-1364996D01*
G01X-4338995Y-1366833D01*
G01X-4359352Y-1372287D01*
G01X-4378452Y-1381194D01*
G01X-4395716Y-1393282D01*
G01X-4410618Y-1408184D01*
G01X-4422706Y-1425448D01*
G01X-4431613Y-1444548D01*
G01X-4437067Y-1464905D01*
G01X-4438904Y-1485900D01*
G01X-4438904Y-1485900D01*
G01X-4546600Y-1485900D01*
G01X-4546600Y-157005D01*
G01X-4460417Y-157005D01*
G01X-4460417Y-357005D01*
G01X-4458893Y-368575D01*
G01X-4454427Y-379357D01*
G01X-4447323Y-388615D01*
G01X-4438065Y-395719D01*
G01X-4427283Y-400185D01*
G01X-4415713Y-401709D01*
G01X-4258917Y-401709D01*
G01X-4258917Y-590296D01*
G01X-4264059Y-590296D01*
G01X-4264059Y-590296D01*
G01X-4283077Y-582749D01*
G01X-4303096Y-578518D01*
G01X-4323542Y-577723D01*
G01X-4343829Y-580387D01*
G01X-4363376Y-586434D01*
G01X-4381624Y-595691D01*
G01X-4398050Y-607892D01*
G01X-4412182Y-622688D01*
G01X-4423618Y-639655D01*
G01X-4432028Y-658308D01*
G01X-4437173Y-678112D01*
G01X-4438904Y-698500D01*
G01X-4437173Y-718888D01*
G01X-4432028Y-738692D01*
G01X-4423618Y-757345D01*
G01X-4412182Y-774312D01*
G01X-4398050Y-789108D01*
G01X-4381624Y-801309D01*
G01X-4363376Y-810566D01*
G01X-4343829Y-816613D01*
G01X-4323542Y-819277D01*
G01X-4303096Y-818482D01*
G01X-4283077Y-814251D01*
G01X-4264059Y-806704D01*
G01X-4150713Y-806704D01*
G01X-4131924Y-805060D01*
G01X-4113705Y-800179D01*
G01X-4096611Y-792207D01*
G01X-4081161Y-781389D01*
G01X-4067824Y-768052D01*
G01X-4057006Y-752602D01*
G01X-4049035Y-735508D01*
G01X-4044153Y-717289D01*
G01X-4042509Y-698500D01*
G01X-4042509Y-401709D01*
G01X-3885714Y-401709D01*
G01X-3874143Y-400185D01*
G01X-3863362Y-395719D01*
G01X-3854103Y-388615D01*
G01X-3846999Y-379357D01*
G01X-3842533Y-368575D01*
G01X-3841010Y-357005D01*
G01X-3841010Y-157005D01*
G01X-3842533Y-145435D01*
G01X-3846999Y-134653D01*
G01X-3854103Y-125395D01*
G01X-3863362Y-118290D01*
G01X-3874143Y-113824D01*
G01X-3885714Y-112301D01*
G01X-4415713Y-112301D01*
G01X-4427283Y-113824D01*
G01X-4438065Y-118290D01*
G01X-4447323Y-125395D01*
G01X-4454427Y-134653D01*
G01X-4458893Y-145435D01*
G01X-4460417Y-157005D01*
G01X-4546600Y-157005D01*
G01X-4546600Y361950D01*
G01X-4544590Y392617D01*
G01X-4538594Y422760D01*
G01X-4528715Y451861D01*
G01X-4515123Y479425D01*
G01X-4499378Y502989D01*
G01X-4460417Y502989D01*
G01X-4460417Y302989D01*
G01X-4458893Y291419D01*
G01X-4454427Y280637D01*
G01X-4447323Y271378D01*
G01X-4438065Y264274D01*
G01X-4427283Y259808D01*
G01X-4415713Y258285D01*
G01X-3885714Y258285D01*
G01X-3873478Y259992D01*
G01X-3862176Y264983D01*
G01X-3852673Y272877D01*
G01X-3845693Y283070D01*
G01X-3841769Y294785D01*
G01X-3730336Y294785D01*
G01X-3730336Y-92832D01*
G01X-3776800Y-92832D01*
G01X-3788370Y-94355D01*
G01X-3799152Y-98821D01*
G01X-3808410Y-105925D01*
G01X-3815514Y-115184D01*
G01X-3819980Y-125966D01*
G01X-3821504Y-137536D01*
G01X-3821504Y-257536D01*
G01X-3819980Y-269106D01*
G01X-3815514Y-279888D01*
G01X-3808410Y-289146D01*
G01X-3799152Y-296250D01*
G01X-3788370Y-300716D01*
G01X-3776800Y-302240D01*
G01X-3646798Y-302240D01*
G01X-3633261Y-304861D01*
G01X-3619500Y-305740D01*
G01X-3607664Y-305740D01*
G01X-3607664Y-714166D01*
G01X-3615310Y-721296D01*
G01X-3621091Y-730006D01*
G01X-3624691Y-739821D01*
G01X-3625913Y-750203D01*
G01X-3625913Y-1020202D01*
G01X-3624691Y-1030585D01*
G01X-3621091Y-1040400D01*
G01X-3615310Y-1049110D01*
G01X-3607664Y-1056239D01*
G01X-3607664Y-1079740D01*
G01X-3607664Y-1079740D01*
G01X-3657912Y-1129988D01*
G01X-3668939Y-1142899D01*
G01X-3677810Y-1157376D01*
G01X-3684308Y-1173063D01*
G01X-3688272Y-1189573D01*
G01X-3689604Y-1206500D01*
G01X-3689604Y-1356063D01*
G01X-3696603Y-1373317D01*
G01X-3700870Y-1391441D01*
G01X-3702304Y-1410005D01*
G01X-3702304Y-1457604D01*
G01X-3700467Y-1478599D01*
G01X-3695013Y-1498956D01*
G01X-3686106Y-1518056D01*
G01X-3674018Y-1535320D01*
G01X-3659116Y-1550222D01*
G01X-3641852Y-1562310D01*
G01X-3622752Y-1571217D01*
G01X-3602395Y-1576672D01*
G01X-3581400Y-1578508D01*
G01X-3560405Y-1576672D01*
G01X-3540048Y-1571217D01*
G01X-3520948Y-1562310D01*
G01X-3503684Y-1550222D01*
G01X-3488782Y-1535320D01*
G01X-3476694Y-1518056D01*
G01X-3467787Y-1498956D01*
G01X-3462333Y-1478599D01*
G01X-3460496Y-1457604D01*
G01X-3460496Y-1410005D01*
G01X-3448304Y-1410005D01*
G01X-3448304Y-1457604D01*
G01X-3446467Y-1478599D01*
G01X-3441013Y-1498956D01*
G01X-3432106Y-1518056D01*
G01X-3420018Y-1535320D01*
G01X-3405116Y-1550222D01*
G01X-3387852Y-1562310D01*
G01X-3368752Y-1571217D01*
G01X-3348395Y-1576672D01*
G01X-3327400Y-1578508D01*
G01X-3306405Y-1576672D01*
G01X-3286048Y-1571217D01*
G01X-3266948Y-1562310D01*
G01X-3249684Y-1550222D01*
G01X-3234782Y-1535320D01*
G01X-3222694Y-1518056D01*
G01X-3213787Y-1498956D01*
G01X-3208333Y-1478599D01*
G01X-3206496Y-1457604D01*
G01X-3206496Y-1410005D01*
G01X-3208333Y-1389010D01*
G01X-3213787Y-1368653D01*
G01X-3222694Y-1349553D01*
G01X-3234782Y-1332289D01*
G01X-3249684Y-1317387D01*
G01X-3266948Y-1305299D01*
G01X-3286048Y-1296392D01*
G01X-3306405Y-1290938D01*
G01X-3327400Y-1289101D01*
G01X-3348395Y-1290938D01*
G01X-3368752Y-1296392D01*
G01X-3387852Y-1305299D01*
G01X-3405116Y-1317387D01*
G01X-3420018Y-1332289D01*
G01X-3432106Y-1349553D01*
G01X-3441013Y-1368653D01*
G01X-3446467Y-1389010D01*
G01X-3448304Y-1410005D01*
G01X-3448304Y-1410005D01*
G01X-3460496Y-1410005D01*
G01X-3461930Y-1391441D01*
G01X-3466197Y-1373317D01*
G01X-3473196Y-1356063D01*
G01X-3473196Y-1251320D01*
G01X-3422948Y-1201071D01*
G01X-3411921Y-1188160D01*
G01X-3403049Y-1173683D01*
G01X-3396551Y-1157996D01*
G01X-3392588Y-1141486D01*
G01X-3391256Y-1124560D01*
G01X-3391256Y-1056239D01*
G01X-3383610Y-1049110D01*
G01X-3377828Y-1040400D01*
G01X-3374228Y-1030585D01*
G01X-3373006Y-1020202D01*
G01X-3373006Y-750203D01*
G01X-3322434Y-750203D01*
G01X-3322434Y-1020202D01*
G01X-3321014Y-1031380D01*
G01X-3316844Y-1041848D01*
G01X-3310190Y-1050941D01*
G01X-3301473Y-1058080D01*
G01X-3291248Y-1062814D01*
G01X-3280164Y-1064840D01*
G01X-3294607Y-1079918D01*
G01X-3306240Y-1097256D01*
G01X-3314717Y-1116337D01*
G01X-3319785Y-1136592D01*
G01X-3321292Y-1157417D01*
G01X-3319194Y-1178191D01*
G01X-3313553Y-1198294D01*
G01X-3304537Y-1217126D01*
G01X-3292416Y-1234127D01*
G01X-3277551Y-1248789D01*
G01X-3260385Y-1260674D01*
G01X-3241430Y-1269429D01*
G01X-3221251Y-1274792D01*
G01X-3200450Y-1276604D01*
G01X-3200450Y-1276604D01*
G01X-3179648Y-1274810D01*
G01X-3159465Y-1269463D01*
G01X-3140503Y-1260724D01*
G01X-3123326Y-1248853D01*
G01X-3108449Y-1234203D01*
G01X-3096314Y-1217213D01*
G01X-3087283Y-1198388D01*
G01X-3081625Y-1178290D01*
G01X-3079510Y-1157518D01*
G01X-3081000Y-1136692D01*
G01X-3086050Y-1116432D01*
G01X-3094511Y-1097344D01*
G01X-3106130Y-1079997D01*
G01X-3120561Y-1064906D01*
G01X-3114230Y-1064906D01*
G01X-3102660Y-1063383D01*
G01X-3091878Y-1058917D01*
G01X-3082620Y-1051813D01*
G01X-3075516Y-1042554D01*
G01X-3071050Y-1031773D01*
G01X-3069526Y-1020202D01*
G01X-3069526Y-750203D01*
G01X-3071050Y-738633D01*
G01X-3075516Y-727851D01*
G01X-3082620Y-718592D01*
G01X-3091878Y-711488D01*
G01X-3102660Y-707022D01*
G01X-3114230Y-705499D01*
G01X-3277730Y-705499D01*
G01X-3289301Y-707022D01*
G01X-3300082Y-711488D01*
G01X-3309341Y-718592D01*
G01X-3316445Y-727851D01*
G01X-3320911Y-738633D01*
G01X-3322434Y-750203D01*
G01X-3373006Y-750203D01*
G01X-3374228Y-739821D01*
G01X-3377828Y-730006D01*
G01X-3383610Y-721296D01*
G01X-3391256Y-714166D01*
G01X-3391256Y-284647D01*
G01X-3386248Y-276350D01*
G01X-3383147Y-267169D01*
G01X-3382096Y-257536D01*
G01X-3382096Y-137536D01*
G01X-3383620Y-125966D01*
G01X-3388086Y-115184D01*
G01X-3395190Y-105925D01*
G01X-3404448Y-98821D01*
G01X-3415230Y-94355D01*
G01X-3426800Y-92832D01*
G01X-3472161Y-92832D01*
G01X-3492032Y-89587D01*
G01X-3512160Y-90080D01*
G01X-3513928Y-89885D01*
G01X-3513928Y-73920D01*
G01X-2867213Y-73920D01*
G01X-2874064Y-83997D01*
G01X-2879739Y-94780D01*
G01X-2892791Y-92832D01*
G01X-3242790Y-92832D01*
G01X-3254360Y-94355D01*
G01X-3265142Y-98821D01*
G01X-3274401Y-105925D01*
G01X-3281505Y-115184D01*
G01X-3285971Y-125966D01*
G01X-3287494Y-137536D01*
G01X-3287494Y-257536D01*
G01X-3285971Y-269106D01*
G01X-3281505Y-279888D01*
G01X-3274401Y-289146D01*
G01X-3265142Y-296250D01*
G01X-3254360Y-300716D01*
G01X-3242790Y-302240D01*
G01X-2892791Y-302240D01*
G01X-2889504Y-302119D01*
G01X-2889504Y-572541D01*
G01X-2891751Y-572541D01*
G01X-2903321Y-574065D01*
G01X-2914103Y-578531D01*
G01X-2923361Y-585635D01*
G01X-2930465Y-594893D01*
G01X-2934931Y-605675D01*
G01X-2936455Y-617245D01*
G01X-2936455Y-737997D01*
G01X-2934931Y-749567D01*
G01X-2930465Y-760349D01*
G01X-2923361Y-769608D01*
G01X-2914103Y-776712D01*
G01X-2903321Y-781178D01*
G01X-2891751Y-782701D01*
G01X-2832514Y-782701D01*
G01X-2815379Y-785477D01*
G01X-2798021Y-785477D01*
G01X-2780886Y-782701D01*
G01X-2721649Y-782701D01*
G01X-2710079Y-781178D01*
G01X-2699297Y-776712D01*
G01X-2690039Y-769608D01*
G01X-2682935Y-760349D01*
G01X-2678469Y-749567D01*
G01X-2676945Y-737997D01*
G01X-2676945Y-680826D01*
G01X-2674063Y-666652D01*
G01X-2673096Y-652221D01*
G01X-2673096Y-139700D01*
G01X-2674389Y-123019D01*
G01X-2678239Y-106738D01*
G01X-2684552Y-91244D01*
G01X-2606569Y-169228D01*
G01X-2593657Y-180255D01*
G01X-2579180Y-189127D01*
G01X-2563493Y-195624D01*
G01X-2546983Y-199588D01*
G01X-2530056Y-200920D01*
G01X-2449772Y-200920D01*
G01X-2449772Y-723977D01*
G01X-2448128Y-742767D01*
G01X-2443246Y-760986D01*
G01X-2435274Y-778081D01*
G01X-2424455Y-793531D01*
G01X-2411118Y-806868D01*
G01X-2395667Y-817687D01*
G01X-2378572Y-825657D01*
G01X-2360352Y-830538D01*
G01X-2341562Y-832181D01*
G01X-2049762Y-832167D01*
G01X-2031439Y-830604D01*
G01X-2013645Y-825960D01*
G01X-1996895Y-818370D01*
G01X-1981672Y-808053D01*
G01X-1968415Y-795308D01*
G01X-1957808Y-790754D01*
G01X-1948720Y-783635D01*
G01X-1941758Y-774427D01*
G01X-1937386Y-763743D01*
G01X-1935895Y-752296D01*
G01X-1935895Y-690174D01*
G01X-1927629Y-696200D01*
G01X-1918210Y-700189D01*
G01X-1901984Y-713079D01*
G01X-1883598Y-722639D01*
G01X-1863728Y-728520D01*
G01X-1843100Y-730504D01*
G01X-1505104Y-730504D01*
G01X-1505104Y-820470D01*
G01X-1503580Y-832040D01*
G01X-1499114Y-842822D01*
G01X-1492010Y-852080D01*
G01X-1482752Y-859184D01*
G01X-1471970Y-863650D01*
G01X-1460400Y-865174D01*
G01X-1130400Y-865174D01*
G01X-1118830Y-863650D01*
G01X-1108048Y-859184D01*
G01X-1098790Y-852080D01*
G01X-1091686Y-842822D01*
G01X-1087220Y-832040D01*
G01X-1085696Y-820470D01*
G01X-1085696Y-730504D01*
G01X-828631Y-730504D01*
G01X-810094Y-728904D01*
G01X-792106Y-724153D01*
G01X-775197Y-716390D01*
G01X-759869Y-705846D01*
G01X-746573Y-692831D01*
G01X-735703Y-677732D01*
G01X-727581Y-660993D01*
G01X-722447Y-643110D01*
G01X-718631Y-643110D01*
G01X-707061Y-641587D01*
G01X-696279Y-637121D01*
G01X-687020Y-630017D01*
G01X-679916Y-620758D01*
G01X-675450Y-609976D01*
G01X-673927Y-598406D01*
G01X-673927Y-238407D01*
G01X-675450Y-226837D01*
G01X-679916Y-216055D01*
G01X-687020Y-206796D01*
G01X-696279Y-199692D01*
G01X-707061Y-195226D01*
G01X-718631Y-193703D01*
G01X-938630Y-193703D01*
G01X-950201Y-195226D01*
G01X-960982Y-199692D01*
G01X-970241Y-206796D01*
G01X-977345Y-216055D01*
G01X-981811Y-226837D01*
G01X-983334Y-238407D01*
G01X-983334Y-514096D01*
G01X-1104412Y-514096D01*
G01X-1112434Y-509535D01*
G01X-1121222Y-506718D01*
G01X-1130400Y-505766D01*
G01X-1460400Y-505766D01*
G01X-1469578Y-506718D01*
G01X-1478366Y-509535D01*
G01X-1486388Y-514096D01*
G01X-1843100Y-514096D01*
G01X-1863728Y-516080D01*
G01X-1883598Y-521961D01*
G01X-1901984Y-531521D01*
G01X-1918210Y-544411D01*
G01X-1927629Y-548400D01*
G01X-1935895Y-554426D01*
G01X-1935895Y-541977D01*
G01X-1934896Y-527304D01*
G01X-1934896Y-475421D01*
G01X-1934644Y-468048D01*
G01X-1934644Y-204639D01*
G01X-1934009Y-197131D01*
G01X-1934009Y-27029D01*
G01X-1934644Y-19521D01*
G01X-1934644Y2220D01*
G01X-1935977Y19147D01*
G01X-1939940Y35657D01*
G01X-1946438Y51344D01*
G01X-1955309Y65821D01*
G01X-1966337Y78732D01*
G01X-2192717Y305112D01*
G01X-2205628Y316139D01*
G01X-2220105Y325010D01*
G01X-2235792Y331508D01*
G01X-2252302Y335472D01*
G01X-2269228Y336804D01*
G01X-2781300Y336804D01*
G01X-2801908Y334823D01*
G01X-2821762Y328954D01*
G01X-2840135Y319411D01*
G01X-2856353Y306543D01*
G01X-2869824Y290822D01*
G01X-2880055Y272822D01*
G01X-2886670Y253204D01*
G01X-2889427Y232685D01*
G01X-2888226Y212017D01*
G01X-2883110Y191956D01*
G01X-2874267Y173236D01*
G01X-2862021Y156543D01*
G01X-2846820Y142488D01*
G01X-3513928Y142488D01*
G01X-3513927Y402989D01*
G01X-3515571Y421778D01*
G01X-3520453Y439997D01*
G01X-3528424Y457091D01*
G01X-3539242Y472541D01*
G01X-3552579Y485878D01*
G01X-3568029Y496696D01*
G01X-3585123Y504667D01*
G01X-3603342Y509549D01*
G01X-3622131Y511193D01*
G01X-3841769Y511193D01*
G01X-3845693Y522907D01*
G01X-3852673Y533101D01*
G01X-3862176Y540995D01*
G01X-3873478Y545985D01*
G01X-3885714Y547693D01*
G01X-4415713Y547693D01*
G01X-4427283Y546169D01*
G01X-4438065Y541703D01*
G01X-4447323Y534599D01*
G01X-4454427Y525341D01*
G01X-4458893Y514559D01*
G01X-4460417Y502989D01*
G01X-4499378Y502989D01*
G01X-4498048Y504978D01*
G01X-4477785Y528085D01*
G01X-4454678Y548348D01*
G01X-4429125Y565423D01*
G01X-4401561Y579015D01*
G01X-4372460Y588894D01*
G01X-4342317Y594890D01*
G01X-4311650Y596900D01*
G01X1314450Y596900D01*
G01X1345117Y594890D01*
G01X1375260Y588894D01*
G01X1404361Y579015D01*
G01X1431925Y565423D01*
G01X1457478Y548348D01*
G01X1480585Y528085D01*
G01X1500848Y504978D01*
G01X1517923Y479425D01*
G01X1531515Y451861D01*
G01X1541394Y422760D01*
G01X1547390Y392617D01*
G01X1549400Y361950D01*
G01X1549400Y-659088D01*
G01X1540392Y-639075D01*
G01X1527914Y-621019D01*
G01X1512378Y-605517D01*
G01X1494296Y-593079D01*
G01X1474262Y-584114D01*
G01X1452938Y-578919D01*
G01X1431027Y-577665D01*
G01X1409250Y-580392D01*
G01X1388324Y-587011D01*
G01X1368940Y-597304D01*
G01X1351736Y-610932D01*
G01X1337279Y-627445D01*
G01X1326045Y-646300D01*
G01X1318405Y-666875D01*
G01X1314611Y-688491D01*
G01X1314787Y-710438D01*
G01X1318927Y-731992D01*
G01X1326896Y-752441D01*
G01X1326896Y-808921D01*
G01X946868Y-808921D01*
G01X946868Y-742126D01*
G01X945344Y-730556D01*
G01X940878Y-719774D01*
G01X933774Y-710515D01*
G01X924516Y-703411D01*
G01X913734Y-698945D01*
G01X902164Y-697422D01*
G01X782164Y-697422D01*
G01X770594Y-698945D01*
G01X759812Y-703411D01*
G01X750553Y-710515D01*
G01X743449Y-719774D01*
G01X738983Y-730556D01*
G01X737460Y-742126D01*
G01X737460Y-808921D01*
G01X482600Y-808921D01*
G01X463811Y-810565D01*
G01X445592Y-815447D01*
G01X428498Y-823418D01*
G01X413048Y-834236D01*
G01X399711Y-847573D01*
G01X388893Y-863023D01*
G01X380921Y-880117D01*
G01X376040Y-898336D01*
G01X374396Y-917125D01*
G01X374396Y-1149096D01*
G01X340623Y-1149096D01*
G01X333494Y-1140152D01*
G01X324330Y-1133310D01*
G01X313730Y-1129017D01*
G01X302387Y-1127554D01*
G01X259571Y-1127554D01*
G01X259571Y-643110D01*
G01X261367Y-643110D01*
G01X272938Y-641587D01*
G01X283719Y-637121D01*
G01X292978Y-630017D01*
G01X300082Y-620758D01*
G01X304548Y-609976D01*
G01X306071Y-598406D01*
G01X306071Y-238407D01*
G01X304548Y-226837D01*
G01X300082Y-216055D01*
G01X292978Y-206796D01*
G01X283719Y-199692D01*
G01X272938Y-195226D01*
G01X261367Y-193703D01*
G01X41368Y-193703D01*
G01X29797Y-195226D01*
G01X19016Y-199692D01*
G01X9757Y-206796D01*
G01X2653Y-216055D01*
G01X-1813Y-226837D01*
G01X-3336Y-238407D01*
G01X-3336Y-598406D01*
G01X-1813Y-609976D01*
G01X2653Y-620758D01*
G01X9757Y-630017D01*
G01X19016Y-637121D01*
G01X29797Y-641587D01*
G01X41368Y-643110D01*
G01X43163Y-643110D01*
G01X43163Y-1127554D01*
G01X32388Y-1127554D01*
G01X22005Y-1128777D01*
G01X12190Y-1132377D01*
G01X3480Y-1138158D01*
G01X-3649Y-1145804D01*
G01X-179635Y-1145804D01*
G01X-186764Y-1138158D01*
G01X-195474Y-1132377D01*
G01X-205289Y-1128777D01*
G01X-215671Y-1127554D01*
G01X-307936Y-1127554D01*
G01X-443877Y-991614D01*
G01X-458152Y-979422D01*
G01X-474159Y-969613D01*
G01X-491502Y-962429D01*
G01X-509756Y-958047D01*
G01X-528471Y-956574D01*
G01X-1716518Y-956574D01*
G01X-1737292Y-958392D01*
G01X-1757435Y-963789D01*
G01X-1776335Y-972602D01*
G01X-1793417Y-984563D01*
G01X-1808163Y-999309D01*
G01X-1820124Y-1016391D01*
G01X-1828937Y-1035291D01*
G01X-1834335Y-1055434D01*
G01X-1836152Y-1076208D01*
G01X-1836152Y-1742924D01*
G01X-1841675Y-1751504D01*
G01X-1845108Y-1761114D01*
G01X-1846273Y-1771251D01*
G01X-1846273Y-1892003D01*
G01X-1845365Y-1900964D01*
G01X-1842680Y-1909561D01*
G01X-1838326Y-1917446D01*
G01X-1917446Y-1917446D01*
G01X-1917446Y-1651000D01*
G01X-1919044Y-1636813D01*
G01X-1923760Y-1623338D01*
G01X-1931355Y-1611250D01*
G01X-1941450Y-1601155D01*
G01X-1953538Y-1593560D01*
G01X-1967013Y-1588844D01*
G01X-1981200Y-1587246D01*
G01X-2959100Y-1587246D01*
G01X-2973564Y-1588908D01*
G01X-2987273Y-1593809D01*
G01X-2999513Y-1601691D01*
G01X-3009646Y-1612145D01*
G01X-3009646Y-1560333D01*
G01X-2993255Y-1548128D01*
G01X-2979154Y-1533337D01*
G01X-2967745Y-1516382D01*
G01X-2959355Y-1497748D01*
G01X-2954223Y-1477967D01*
G01X-2952496Y-1457604D01*
G01X-2952496Y-1410005D01*
G01X-2940304Y-1410005D01*
G01X-2940304Y-1457604D01*
G01X-2938467Y-1478599D01*
G01X-2933013Y-1498956D01*
G01X-2924106Y-1518056D01*
G01X-2912018Y-1535320D01*
G01X-2897116Y-1550222D01*
G01X-2879852Y-1562310D01*
G01X-2860752Y-1571217D01*
G01X-2840395Y-1576672D01*
G01X-2819400Y-1578508D01*
G01X-2798405Y-1576672D01*
G01X-2778048Y-1571217D01*
G01X-2758948Y-1562310D01*
G01X-2741684Y-1550222D01*
G01X-2726782Y-1535320D01*
G01X-2714694Y-1518056D01*
G01X-2705787Y-1498956D01*
G01X-2700333Y-1478599D01*
G01X-2698496Y-1457604D01*
G01X-2698496Y-1410005D01*
G01X-2699930Y-1391441D01*
G01X-2704197Y-1373317D01*
G01X-2711196Y-1356063D01*
G01X-2711196Y-1077219D01*
G01X-2700100Y-1072922D01*
G01X-2690532Y-1065850D01*
G01X-2683167Y-1056505D01*
G01X-2678529Y-1045547D01*
G01X-2676945Y-1033755D01*
G01X-2676945Y-913003D01*
G01X-2678469Y-901433D01*
G01X-2682935Y-890651D01*
G01X-2690039Y-881392D01*
G01X-2699297Y-874288D01*
G01X-2710079Y-869822D01*
G01X-2721649Y-868299D01*
G01X-2780886Y-868299D01*
G01X-2798021Y-865523D01*
G01X-2815379Y-865523D01*
G01X-2832514Y-868299D01*
G01X-2891751Y-868299D01*
G01X-2903321Y-869822D01*
G01X-2914103Y-874288D01*
G01X-2923361Y-881392D01*
G01X-2930465Y-890651D01*
G01X-2934931Y-901433D01*
G01X-2936455Y-913003D01*
G01X-2936455Y-1033755D01*
G01X-2935441Y-1043221D01*
G01X-2932445Y-1052258D01*
G01X-2927604Y-1060456D01*
G01X-2927604Y-1356063D01*
G01X-2927604Y-1356063D01*
G01X-2934603Y-1373317D01*
G01X-2938870Y-1391441D01*
G01X-2940304Y-1410005D01*
G01X-2952496Y-1410005D01*
G01X-2954333Y-1389010D01*
G01X-2959787Y-1368653D01*
G01X-2968694Y-1349553D01*
G01X-2980782Y-1332289D01*
G01X-2995684Y-1317387D01*
G01X-3012948Y-1305299D01*
G01X-3032048Y-1296392D01*
G01X-3052405Y-1290938D01*
G01X-3073400Y-1289101D01*
G01X-3094395Y-1290938D01*
G01X-3114752Y-1296392D01*
G01X-3133852Y-1305299D01*
G01X-3151116Y-1317387D01*
G01X-3166018Y-1332289D01*
G01X-3178106Y-1349553D01*
G01X-3187013Y-1368653D01*
G01X-3192467Y-1389010D01*
G01X-3194304Y-1410005D01*
G01X-3194304Y-1457604D01*
G01X-3192977Y-1475471D01*
G01X-3189024Y-1492945D01*
G01X-3182532Y-1509644D01*
G01X-3173643Y-1525199D01*
G01X-3162554Y-1539270D01*
G01X-3162554Y-1599946D01*
G01X-4025646Y-1599946D01*
G01X-4025646Y-1104900D01*
G01X-4027563Y-1087887D01*
G01X-4033217Y-1071728D01*
G01X-4042326Y-1057232D01*
G01X-4054432Y-1045126D01*
G01X-4068928Y-1036017D01*
G01X-4085087Y-1030363D01*
G01X-4102100Y-1028446D01*
G01X-4224338Y-1028446D01*
G01X-4239126Y-1013267D01*
G01X-4256336Y-1000903D01*
G01X-4275442Y-991734D01*
G01X-4295854Y-986041D01*
G01X-4316947Y-984001D01*
G01X-4338073Y-985674D01*
G01X-4358581Y-991010D01*
G01X-4377843Y-999845D01*
G01X-4395267Y-1011907D01*
G01X-4410316Y-1026827D01*
G01X-4422530Y-1044144D01*
G01X-4431532Y-1063329D01*
G01X-4437047Y-1083790D01*
G01X-4438904Y-1104900D01*
G01X-4437047Y-1126010D01*
G01X-4431532Y-1146471D01*
G01X-4422530Y-1165656D01*
G01X-4410316Y-1182973D01*
G01X-4395267Y-1197893D01*
G01X-4377843Y-1209955D01*
G01X-4358581Y-1218790D01*
G01X-4338073Y-1224126D01*
G01X-4316947Y-1225799D01*
G01X-4295854Y-1223759D01*
G01X-4275442Y-1218066D01*
G01X-4256336Y-1208897D01*
G01X-4239126Y-1196533D01*
G01X-4224338Y-1181354D01*
G01X-4178554Y-1181354D01*
G01X-4178554Y-1676400D01*
G01X-4176637Y-1693413D01*
G01X-4170983Y-1709572D01*
G01X-4161874Y-1724068D01*
G01X-4149768Y-1736174D01*
G01X-4135272Y-1745283D01*
G01X-4119113Y-1750937D01*
G01X-4102100Y-1752854D01*
G01X-3393549Y-1752854D01*
G01X-3399120Y-1768144D01*
G01X-3401272Y-1784275D01*
G01X-3399903Y-1800491D01*
G01X-3395078Y-1816033D01*
G01X-3387023Y-1830173D01*
G01X-3376114Y-1842249D01*
G01X-3362862Y-1851696D01*
G01X-3889005Y-1851696D01*
G01X-3895639Y-1840061D01*
G01X-3905422Y-1830915D01*
G01X-3917475Y-1825076D01*
G01X-3930717Y-1823070D01*
G01X-4100819Y-1823070D01*
G01X-4112389Y-1824593D01*
G01X-4123171Y-1829059D01*
G01X-4132429Y-1836163D01*
G01X-4139533Y-1845422D01*
G01X-4143999Y-1856204D01*
G01X-4145523Y-1867774D01*
G01X-4145523Y-1988525D01*
G01X-4144410Y-1998435D01*
G01X-4164907Y-1977939D01*
G01X-4176541Y-1968398D01*
G01X-4189819Y-1961321D01*
G01X-4204225Y-1956981D01*
G01X-4211371Y-1948451D01*
G01X-4220402Y-1941950D01*
G01X-4230759Y-1937881D01*
G01X-4241800Y-1936496D01*
G01X-4394200Y-1936496D01*
G01X-4405770Y-1938019D01*
G01X-4416552Y-1942485D01*
G01X-4425811Y-1949589D01*
G01X-4432915Y-1958848D01*
G01X-4437381Y-1969630D01*
G01X-4438904Y-1981200D01*
G01X-4438904Y-2082800D01*
G01X-4437381Y-2094370D01*
G01X-4432915Y-2105152D01*
G01X-4425811Y-2114411D01*
G01X-4416552Y-2121515D01*
G01X-4405770Y-2125981D01*
G01X-4394200Y-2127504D01*
G01X-4241800Y-2127504D01*
G01X-4232553Y-2126537D01*
G01X-4145523Y-2213568D01*
G01X-4145523Y-2284283D01*
G01X-4143999Y-2295853D01*
G01X-4139533Y-2306635D01*
G01X-4132429Y-2315893D01*
G01X-4123171Y-2322998D01*
G01X-4112389Y-2327464D01*
G01X-4100819Y-2328987D01*
G01X-3930717Y-2328987D01*
G01X-3919147Y-2327464D01*
G01X-3908365Y-2322998D01*
G01X-3899107Y-2315893D01*
G01X-3892003Y-2306635D01*
G01X-3887537Y-2295853D01*
G01X-3886013Y-2284283D01*
G01X-3886013Y-2199996D01*
G01X-3702304Y-2199996D01*
G01X-3702304Y-2247595D01*
G01X-3700467Y-2268590D01*
G01X-3695013Y-2288947D01*
G01X-3686106Y-2308047D01*
G01X-3674018Y-2325311D01*
G01X-3659116Y-2340213D01*
G01X-3641852Y-2352301D01*
G01X-3622752Y-2361208D01*
G01X-3602395Y-2366662D01*
G01X-3581400Y-2368499D01*
G01X-3560405Y-2366662D01*
G01X-3540048Y-2361208D01*
G01X-3520948Y-2352301D01*
G01X-3503684Y-2340213D01*
G01X-3488782Y-2325311D01*
G01X-3476694Y-2308047D01*
G01X-3467787Y-2288947D01*
G01X-3462333Y-2268590D01*
G01X-3460496Y-2247595D01*
G01X-3460496Y-2199996D01*
G01X-3462333Y-2179001D01*
G01X-3467787Y-2158644D01*
G01X-3476694Y-2139544D01*
G01X-3488782Y-2122280D01*
G01X-3503684Y-2107378D01*
G01X-3520948Y-2095290D01*
G01X-3540048Y-2086383D01*
G01X-3560405Y-2080928D01*
G01X-3581400Y-2079092D01*
G01X-3602395Y-2080928D01*
G01X-3622752Y-2086383D01*
G01X-3641852Y-2095290D01*
G01X-3659116Y-2107378D01*
G01X-3674018Y-2122280D01*
G01X-3686106Y-2139544D01*
G01X-3695013Y-2158644D01*
G01X-3700467Y-2179001D01*
G01X-3702304Y-2199996D01*
G01X-3702304Y-2199996D01*
G01X-3886013Y-2199996D01*
G01X-3886013Y-2163531D01*
G01X-3887537Y-2151961D01*
G01X-3892003Y-2141179D01*
G01X-3899107Y-2131921D01*
G01X-3908365Y-2124817D01*
G01X-3919147Y-2120351D01*
G01X-3930717Y-2118827D01*
G01X-4024018Y-2118827D01*
G01X-4110729Y-2032117D01*
G01X-4100819Y-2033229D01*
G01X-3930717Y-2033229D01*
G01X-3917475Y-2031223D01*
G01X-3905422Y-2025385D01*
G01X-3895639Y-2016238D01*
G01X-3889005Y-2004604D01*
G01X-3403854Y-2004604D01*
G01X-3403854Y-2106334D01*
G01X-3419170Y-2121281D01*
G01X-3431611Y-2138695D01*
G01X-3440787Y-2158029D01*
G01X-3446410Y-2178678D01*
G01X-3448304Y-2199996D01*
G01X-3448304Y-2247595D01*
G01X-3446467Y-2268590D01*
G01X-3441013Y-2288947D01*
G01X-3432106Y-2308047D01*
G01X-3420018Y-2325311D01*
G01X-3405116Y-2340213D01*
G01X-3387852Y-2352301D01*
G01X-3368752Y-2361208D01*
G01X-3348395Y-2366662D01*
G01X-3327400Y-2368499D01*
G01X-3306405Y-2366662D01*
G01X-3286048Y-2361208D01*
G01X-3266948Y-2352301D01*
G01X-3249684Y-2340213D01*
G01X-3234782Y-2325311D01*
G01X-3222694Y-2308047D01*
G01X-3213787Y-2288947D01*
G01X-3208333Y-2268590D01*
G01X-3206496Y-2247595D01*
G01X-3206496Y-2199996D01*
G01X-3208390Y-2178678D01*
G01X-3214013Y-2158029D01*
G01X-3223189Y-2138695D01*
G01X-3235630Y-2121281D01*
G01X-3250946Y-2106334D01*
G01X-3250946Y-1928150D01*
G01X-3252488Y-1912873D01*
G01X-3257051Y-1898213D01*
G01X-3264451Y-1884761D01*
G01X-3274390Y-1873058D01*
G01X-3286466Y-1863577D01*
G01X-3300194Y-1856700D01*
G01X-3286202Y-1849849D01*
G01X-2959100Y-1849849D01*
G01X-2944913Y-1848251D01*
G01X-2931438Y-1843535D01*
G01X-2919350Y-1835940D01*
G01X-2909255Y-1825845D01*
G01X-2901660Y-1813757D01*
G01X-2896944Y-1800282D01*
G01X-2895346Y-1786095D01*
G01X-2895346Y-1771251D01*
G01X-2347509Y-1771251D01*
G01X-2347509Y-1892003D01*
G01X-2345985Y-1903573D01*
G01X-2341519Y-1914355D01*
G01X-2334415Y-1923613D01*
G01X-2325157Y-1930718D01*
G01X-2314375Y-1935184D01*
G01X-2302805Y-1936707D01*
G01X-2132703Y-1936707D01*
G01X-2132703Y-1936707D01*
G01X-2121133Y-1935184D01*
G01X-2110351Y-1930718D01*
G01X-2101093Y-1923613D01*
G01X-2093989Y-1914355D01*
G01X-2089523Y-1903573D01*
G01X-2087999Y-1892003D01*
G01X-2087999Y-1771251D01*
G01X-2089523Y-1759681D01*
G01X-2093989Y-1748899D01*
G01X-2101093Y-1739641D01*
G01X-2110351Y-1732536D01*
G01X-2121133Y-1728070D01*
G01X-2132703Y-1726547D01*
G01X-2302805Y-1726547D01*
G01X-2314375Y-1728070D01*
G01X-2325157Y-1732536D01*
G01X-2334415Y-1739641D01*
G01X-2341519Y-1748899D01*
G01X-2345985Y-1759681D01*
G01X-2347509Y-1771251D01*
G01X-2895346Y-1771251D01*
G01X-2895346Y-1714754D01*
G01X-2044954Y-1714754D01*
G01X-2044954Y-1981200D01*
G01X-2043820Y-1993170D01*
G01X-2040459Y-2004714D01*
G01X-2034991Y-2015421D01*
G01X-2154254Y-2015421D01*
G01X-2173552Y-2017156D01*
G01X-2192231Y-2022305D01*
G01X-2302805Y-2022305D01*
G01X-2314375Y-2023828D01*
G01X-2325157Y-2028294D01*
G01X-2334415Y-2035398D01*
G01X-2341519Y-2044657D01*
G01X-2345985Y-2055439D01*
G01X-2347509Y-2067009D01*
G01X-2347509Y-2163856D01*
G01X-2501148Y-2317496D01*
G01X-2720751Y-2317496D01*
G01X-2711190Y-2301524D01*
G01X-2704194Y-2284274D01*
G01X-2699929Y-2266155D01*
G01X-2698496Y-2247595D01*
G01X-2698496Y-2199996D01*
G01X-2700333Y-2179001D01*
G01X-2705787Y-2158644D01*
G01X-2714694Y-2139544D01*
G01X-2726782Y-2122280D01*
G01X-2741684Y-2107378D01*
G01X-2758948Y-2095290D01*
G01X-2778048Y-2086383D01*
G01X-2798405Y-2080928D01*
G01X-2819400Y-2079092D01*
G01X-2840395Y-2080928D01*
G01X-2860752Y-2086383D01*
G01X-2879852Y-2095290D01*
G01X-2897116Y-2107378D01*
G01X-2912018Y-2122280D01*
G01X-2924106Y-2139544D01*
G01X-2933013Y-2158644D01*
G01X-2938467Y-2179001D01*
G01X-2940304Y-2199996D01*
G01X-2940304Y-2247595D01*
G01X-2939971Y-2256561D01*
G01X-2952496Y-2244036D01*
G01X-2952496Y-2199996D01*
G01X-2954333Y-2179001D01*
G01X-2959787Y-2158644D01*
G01X-2968694Y-2139544D01*
G01X-2980782Y-2122280D01*
G01X-2995684Y-2107378D01*
G01X-3012948Y-2095290D01*
G01X-3032048Y-2086383D01*
G01X-3052405Y-2080928D01*
G01X-3073400Y-2079092D01*
G01X-3094395Y-2080928D01*
G01X-3114752Y-2086383D01*
G01X-3133852Y-2095290D01*
G01X-3151116Y-2107378D01*
G01X-3166018Y-2122280D01*
G01X-3178106Y-2139544D01*
G01X-3187013Y-2158644D01*
G01X-3192467Y-2179001D01*
G01X-3194304Y-2199996D01*
G01X-3194304Y-2247595D01*
G01X-3193080Y-2264759D01*
G01X-3189431Y-2281574D01*
G01X-3183432Y-2297702D01*
G01X-3175205Y-2312815D01*
G01X-3168759Y-2327291D01*
G01X-3160267Y-2340670D01*
G01X-3149912Y-2352666D01*
G37*
G36*
G01X1314450Y-2501900D02*
G01X-2379505Y-2501900D01*
G01X-2109434Y-2231829D01*
G01X-1809077Y-2231829D01*
G01X-1801569Y-2232464D01*
G01X-1631467Y-2232464D01*
G01X-1619897Y-2230941D01*
G01X-1609115Y-2226475D01*
G01X-1599857Y-2219371D01*
G01X-1592753Y-2210112D01*
G01X-1588287Y-2199331D01*
G01X-1586763Y-2187760D01*
G01X-1586763Y-2067009D01*
G01X-1588243Y-2055604D01*
G01X-1592583Y-2044954D01*
G01X-1308354Y-2044954D01*
G01X-1308354Y-2253996D01*
G01X-1320800Y-2253996D01*
G01X-1332370Y-2255519D01*
G01X-1343152Y-2259985D01*
G01X-1352411Y-2267089D01*
G01X-1359515Y-2276348D01*
G01X-1363981Y-2287130D01*
G01X-1365504Y-2298700D01*
G01X-1365504Y-2400300D01*
G01X-1363981Y-2411870D01*
G01X-1359515Y-2422652D01*
G01X-1352411Y-2431911D01*
G01X-1343152Y-2439015D01*
G01X-1332370Y-2443481D01*
G01X-1320800Y-2445004D01*
G01X-1168400Y-2445004D01*
G01X-1156830Y-2443481D01*
G01X-1146048Y-2439015D01*
G01X-1136789Y-2431911D01*
G01X-1129685Y-2422652D01*
G01X-1125219Y-2411870D01*
G01X-1123696Y-2400300D01*
G01X-1123696Y-2298700D01*
G01X-1125219Y-2287130D01*
G01X-1129685Y-2276348D01*
G01X-1136789Y-2267089D01*
G01X-1146048Y-2259985D01*
G01X-1156830Y-2255519D01*
G01X-1168400Y-2253996D01*
G01X-1180846Y-2253996D01*
G01X-1180846Y-1981200D01*
G01X-1182444Y-1967013D01*
G01X-1187160Y-1953538D01*
G01X-1194755Y-1941450D01*
G01X-1204850Y-1931355D01*
G01X-1216938Y-1923760D01*
G01X-1230413Y-1919044D01*
G01X-1244600Y-1917446D01*
G01X-1594710Y-1917446D01*
G01X-1590356Y-1909561D01*
G01X-1587671Y-1900964D01*
G01X-1586763Y-1892003D01*
G01X-1586763Y-1771251D01*
G01X-1587928Y-1761114D01*
G01X-1591361Y-1751504D01*
G01X-1596884Y-1742924D01*
G01X-1596884Y-1634800D01*
G01X-1580904Y-1648259D01*
G01X-1562846Y-1658765D01*
G01X-1543249Y-1666006D01*
G01X-1522697Y-1669766D01*
G01X-1501806Y-1669931D01*
G01X-1481198Y-1666497D01*
G01X-1461488Y-1659566D01*
G01X-1443266Y-1649346D01*
G01X-1427076Y-1636142D01*
G01X-1413401Y-1620347D01*
G01X-1402648Y-1602434D01*
G01X-1336479Y-1602434D01*
G01X-1325747Y-1620427D01*
G01X-1312070Y-1636297D01*
G01X-1295859Y-1649568D01*
G01X-1277600Y-1659841D01*
G01X-1257842Y-1666808D01*
G01X-1237178Y-1670259D01*
G01X-1216229Y-1670092D01*
G01X-1195622Y-1666310D01*
G01X-1175978Y-1659028D01*
G01X-1157886Y-1648465D01*
G01X-1141889Y-1634936D01*
G01X-1128468Y-1618849D01*
G01X-1118026Y-1600687D01*
G01X-1107472Y-1596106D01*
G01X-1098438Y-1588984D01*
G01X-1091520Y-1579792D01*
G01X-1087177Y-1569139D01*
G01X-1085696Y-1557730D01*
G01X-1085696Y-1549730D01*
G01X-1064937Y-1549730D01*
G01X-1063101Y-1570725D01*
G01X-1057646Y-1591082D01*
G01X-1048739Y-1610182D01*
G01X-1036651Y-1627446D01*
G01X-1021749Y-1642348D01*
G01X-1004485Y-1654436D01*
G01X-985385Y-1663343D01*
G01X-965028Y-1668797D01*
G01X-944033Y-1670634D01*
G01X-923039Y-1668797D01*
G01X-902682Y-1663343D01*
G01X-883581Y-1654436D01*
G01X-866318Y-1642348D01*
G01X-851415Y-1627446D01*
G01X-839327Y-1610182D01*
G01X-830421Y-1591082D01*
G01X-824966Y-1570725D01*
G01X-823129Y-1549730D01*
G01X-823158Y-1549400D01*
G01X-781304Y-1549400D01*
G01X-779467Y-1570395D01*
G01X-774013Y-1590752D01*
G01X-765106Y-1609852D01*
G01X-753018Y-1627116D01*
G01X-738116Y-1642018D01*
G01X-720852Y-1654106D01*
G01X-701752Y-1663013D01*
G01X-681395Y-1668467D01*
G01X-660400Y-1670304D01*
G01X-639405Y-1668467D01*
G01X-619048Y-1663013D01*
G01X-599948Y-1654106D01*
G01X-582684Y-1642018D01*
G01X-579904Y-1639237D01*
G01X-530375Y-1639237D01*
G01X-528852Y-1650808D01*
G01X-524386Y-1661589D01*
G01X-517281Y-1670848D01*
G01X-508023Y-1677952D01*
G01X-497241Y-1682418D01*
G01X-485671Y-1683941D01*
G01X-215671Y-1683941D01*
G01X-203404Y-1682225D01*
G01X-192079Y-1677209D01*
G01X-182565Y-1669277D01*
G01X-175593Y-1659040D01*
G01X-171697Y-1647282D01*
G01X-154179Y-1660408D01*
G01X-134582Y-1670161D01*
G01X-113547Y-1676220D01*
G01X-91765Y-1678387D01*
G01X-69949Y-1676591D01*
G01X-48814Y-1670891D01*
G01X-29054Y-1661473D01*
G01X-11315Y-1648647D01*
G01X-7185Y-1660032D01*
G01X-152Y-1669891D01*
G01X9270Y-1677500D01*
G01X20388Y-1682301D01*
G01X32388Y-1683941D01*
G01X302387Y-1683941D01*
G01X315314Y-1682032D01*
G01X327136Y-1676465D01*
G01X336844Y-1667719D01*
G01X343607Y-1656539D01*
G01X360858Y-1668051D01*
G01X379823Y-1676446D01*
G01X399943Y-1681477D01*
G01X420627Y-1682994D01*
G01X441266Y-1680955D01*
G01X461253Y-1675418D01*
G01X480000Y-1666546D01*
G01X496954Y-1654601D01*
G01X511618Y-1639935D01*
G01X521336Y-1626135D01*
G01X737460Y-1626135D01*
G01X738983Y-1637705D01*
G01X743449Y-1648487D01*
G01X750553Y-1657745D01*
G01X759812Y-1664849D01*
G01X770594Y-1669315D01*
G01X782164Y-1670839D01*
G01X902164Y-1670839D01*
G01X913734Y-1669315D01*
G01X924516Y-1664849D01*
G01X933774Y-1657745D01*
G01X940878Y-1648487D01*
G01X945344Y-1637705D01*
G01X946868Y-1626135D01*
G01X946868Y-1276135D01*
G01X945344Y-1264565D01*
G01X940878Y-1253783D01*
G01X933774Y-1244525D01*
G01X924516Y-1237421D01*
G01X913734Y-1232955D01*
G01X902164Y-1231431D01*
G01X782164Y-1231431D01*
G01X782164Y-1231431D01*
G01X770594Y-1232955D01*
G01X759812Y-1237421D01*
G01X750553Y-1244525D01*
G01X743449Y-1253783D01*
G01X738983Y-1264565D01*
G01X737460Y-1276135D01*
G01X737460Y-1626135D01*
G01X521336Y-1626135D01*
G01X523559Y-1622978D01*
G01X532427Y-1604229D01*
G01X537959Y-1584241D01*
G01X539995Y-1563601D01*
G01X538473Y-1542918D01*
G01X533438Y-1522798D01*
G01X525039Y-1503836D01*
G01X513522Y-1486587D01*
G01X499228Y-1471561D01*
G01X482575Y-1459199D01*
G01X464055Y-1449864D01*
G01X444211Y-1443833D01*
G01X423629Y-1441281D01*
G01X402914Y-1442284D01*
G01X382675Y-1446813D01*
G01X363508Y-1454735D01*
G01X345976Y-1465816D01*
G01X341763Y-1454572D01*
G01X334710Y-1444856D01*
G01X325325Y-1437367D01*
G01X314285Y-1432646D01*
G01X302387Y-1431033D01*
G01X32388Y-1431033D01*
G01X20388Y-1432674D01*
G01X9270Y-1437475D01*
G01X-152Y-1445084D01*
G01X-7185Y-1454943D01*
G01X-11315Y-1466328D01*
G01X-29054Y-1453501D01*
G01X-48814Y-1444084D01*
G01X-69949Y-1438384D01*
G01X-91765Y-1436588D01*
G01X-113547Y-1438755D01*
G01X-134582Y-1444814D01*
G01X-154179Y-1454567D01*
G01X-171697Y-1467693D01*
G01X-171697Y-1467693D01*
G01X-175593Y-1455935D01*
G01X-182565Y-1445697D01*
G01X-192079Y-1437766D01*
G01X-203404Y-1432749D01*
G01X-215671Y-1431033D01*
G01X-485671Y-1431033D01*
G01X-497241Y-1432557D01*
G01X-508023Y-1437023D01*
G01X-517281Y-1444127D01*
G01X-524386Y-1453385D01*
G01X-528852Y-1464167D01*
G01X-530375Y-1475737D01*
G01X-530375Y-1639237D01*
G01X-579904Y-1639237D01*
G01X-567782Y-1627116D01*
G01X-555694Y-1609852D01*
G01X-546787Y-1590752D01*
G01X-541333Y-1570395D01*
G01X-539496Y-1549400D01*
G01X-541333Y-1528405D01*
G01X-546787Y-1508048D01*
G01X-555694Y-1488948D01*
G01X-567782Y-1471684D01*
G01X-582684Y-1456782D01*
G01X-599948Y-1444694D01*
G01X-619048Y-1435787D01*
G01X-639405Y-1430333D01*
G01X-660400Y-1428496D01*
G01X-681395Y-1430333D01*
G01X-701752Y-1435787D01*
G01X-720852Y-1444694D01*
G01X-738116Y-1456782D01*
G01X-753018Y-1471684D01*
G01X-765106Y-1488948D01*
G01X-774013Y-1508048D01*
G01X-779467Y-1528405D01*
G01X-781304Y-1549400D01*
G01X-781304Y-1549400D01*
G01X-823158Y-1549400D01*
G01X-824966Y-1528735D01*
G01X-830421Y-1508379D01*
G01X-839327Y-1489278D01*
G01X-851415Y-1472015D01*
G01X-866318Y-1457112D01*
G01X-883581Y-1445024D01*
G01X-902682Y-1436118D01*
G01X-923039Y-1430663D01*
G01X-944033Y-1428826D01*
G01X-965028Y-1430663D01*
G01X-985385Y-1436118D01*
G01X-1004485Y-1445024D01*
G01X-1021749Y-1457112D01*
G01X-1036651Y-1472015D01*
G01X-1048739Y-1489278D01*
G01X-1057646Y-1508379D01*
G01X-1063101Y-1528735D01*
G01X-1064937Y-1549730D01*
G01X-1064937Y-1549730D01*
G01X-1085696Y-1549730D01*
G01X-1085696Y-1287730D01*
G01X-1087220Y-1276160D01*
G01X-1091686Y-1265378D01*
G01X-1098790Y-1256120D01*
G01X-1108048Y-1249016D01*
G01X-1118830Y-1244550D01*
G01X-1130400Y-1243026D01*
G01X-1460400Y-1243026D01*
G01X-1471970Y-1244550D01*
G01X-1482752Y-1249016D01*
G01X-1492010Y-1256120D01*
G01X-1499114Y-1265378D01*
G01X-1503580Y-1276160D01*
G01X-1505104Y-1287730D01*
G01X-1505104Y-1428655D01*
G01X-1525327Y-1429312D01*
G01X-1545157Y-1433333D01*
G01X-1564039Y-1440605D01*
G01X-1581444Y-1450923D01*
G01X-1596884Y-1464000D01*
G01X-1596884Y-1195842D01*
G01X-578025Y-1195842D01*
G01X-530375Y-1243492D01*
G01X-530375Y-1335758D01*
G01X-528852Y-1347328D01*
G01X-524386Y-1358110D01*
G01X-517281Y-1367369D01*
G01X-508023Y-1374473D01*
G01X-497241Y-1378939D01*
G01X-485671Y-1380462D01*
G01X-215671Y-1380462D01*
G01X-205289Y-1379240D01*
G01X-195474Y-1375639D01*
G01X-186764Y-1369858D01*
G01X-179635Y-1362212D01*
G01X-3649Y-1362212D01*
G01X3480Y-1369858D01*
G01X12190Y-1375639D01*
G01X22005Y-1379240D01*
G01X32388Y-1380462D01*
G01X302387Y-1380462D01*
G01X314781Y-1378710D01*
G01X326203Y-1373590D01*
G01X335758Y-1365504D01*
G01X482600Y-1365504D01*
G01X501389Y-1363860D01*
G01X519608Y-1358979D01*
G01X536702Y-1351007D01*
G01X552152Y-1340189D01*
G01X565489Y-1326852D01*
G01X576307Y-1311402D01*
G01X584279Y-1294308D01*
G01X589160Y-1276089D01*
G01X590804Y-1257300D01*
G01X590804Y-1025329D01*
G01X737460Y-1025329D01*
G01X737460Y-1092125D01*
G01X738983Y-1103695D01*
G01X743449Y-1114477D01*
G01X750553Y-1123736D01*
G01X759812Y-1130840D01*
G01X770594Y-1135306D01*
G01X782164Y-1136829D01*
G01X902164Y-1136829D01*
G01X913734Y-1135306D01*
G01X924516Y-1130840D01*
G01X933774Y-1123736D01*
G01X940878Y-1114477D01*
G01X945344Y-1103695D01*
G01X946868Y-1092125D01*
G01X946868Y-1025329D01*
G01X1435100Y-1025329D01*
G01X1453889Y-1023686D01*
G01X1472108Y-1018804D01*
G01X1489202Y-1010833D01*
G01X1504652Y-1000014D01*
G01X1517989Y-986678D01*
G01X1528807Y-971227D01*
G01X1536779Y-954133D01*
G01X1541660Y-935915D01*
G01X1543304Y-917125D01*
G01X1543304Y-752441D01*
G01X1549400Y-737912D01*
G01X1549400Y-1446488D01*
G01X1540757Y-1427127D01*
G01X1528865Y-1409572D01*
G01X1514089Y-1394366D01*
G01X1496884Y-1381974D01*
G01X1477778Y-1372779D01*
G01X1457360Y-1367063D01*
G01X1436258Y-1365002D01*
G01X1415119Y-1366658D01*
G01X1394596Y-1371983D01*
G01X1375318Y-1380810D01*
G01X1357878Y-1392870D01*
G01X1342814Y-1407791D01*
G01X1330588Y-1425114D01*
G01X1321576Y-1444307D01*
G01X1316055Y-1464779D01*
G01X1314196Y-1485900D01*
G01X1316055Y-1507021D01*
G01X1321576Y-1527493D01*
G01X1330588Y-1546686D01*
G01X1342814Y-1564009D01*
G01X1357878Y-1578930D01*
G01X1375318Y-1590990D01*
G01X1394596Y-1599817D01*
G01X1415119Y-1605142D01*
G01X1436258Y-1606798D01*
G01X1457360Y-1604737D01*
G01X1477778Y-1599021D01*
G01X1496884Y-1589826D01*
G01X1514089Y-1577434D01*
G01X1528865Y-1562228D01*
G01X1540757Y-1544673D01*
G01X1549400Y-1525312D01*
G01X1549400Y-2266950D01*
G01X1547390Y-2297617D01*
G01X1541394Y-2327760D01*
G01X1531515Y-2356861D01*
G01X1517923Y-2384425D01*
G01X1500848Y-2409978D01*
G01X1480585Y-2433085D01*
G01X1457478Y-2453348D01*
G01X1431925Y-2470423D01*
G01X1404361Y-2484015D01*
G01X1375260Y-2493894D01*
G01X1345117Y-2499890D01*
G01X1314450Y-2501900D01*
G37*
G36*
G01X-3149912Y-2352666D02*
G01X-3007030Y-2495550D01*
G01X-4292600Y-2495550D01*
G01X-4323267Y-2493540D01*
G01X-4353410Y-2487544D01*
G01X-4382511Y-2477665D01*
G01X-4410075Y-2464073D01*
G01X-4435628Y-2446998D01*
G01X-4458735Y-2426735D01*
G01X-4478998Y-2403628D01*
G01X-4496073Y-2378075D01*
G01X-4509665Y-2350511D01*
G01X-4519544Y-2321410D01*
G01X-4525540Y-2291267D01*
G01X-4527550Y-2260600D01*
G01X-4527550Y-1739900D01*
G01X-4438904Y-1739900D01*
G01X-4438904Y-1841500D01*
G01X-4437381Y-1853070D01*
G01X-4432915Y-1863852D01*
G01X-4425811Y-1873111D01*
G01X-4416552Y-1880215D01*
G01X-4405770Y-1884681D01*
G01X-4394200Y-1886204D01*
G01X-4241800Y-1886204D01*
G01X-4241800Y-1886204D01*
G01X-4230230Y-1884681D01*
G01X-4219448Y-1880215D01*
G01X-4210189Y-1873111D01*
G01X-4203085Y-1863852D01*
G01X-4198619Y-1853070D01*
G01X-4197096Y-1841500D01*
G01X-4197096Y-1739900D01*
G01X-4198619Y-1728330D01*
G01X-4203085Y-1717548D01*
G01X-4210189Y-1708289D01*
G01X-4219448Y-1701185D01*
G01X-4230230Y-1696719D01*
G01X-4241800Y-1695196D01*
G01X-4394200Y-1695196D01*
G01X-4405770Y-1696719D01*
G01X-4416552Y-1701185D01*
G01X-4425811Y-1708289D01*
G01X-4432915Y-1717548D01*
G01X-4437381Y-1728330D01*
G01X-4438904Y-1739900D01*
G01X-4527550Y-1739900D01*
G01X-4527550Y-1485900D01*
G01X-4438904Y-1485900D01*
G01X-4437067Y-1506895D01*
G01X-4431613Y-1527252D01*
G01X-4422706Y-1546352D01*
G01X-4410618Y-1563616D01*
G01X-4395716Y-1578518D01*
G01X-4378452Y-1590606D01*
G01X-4359352Y-1599513D01*
G01X-4338995Y-1604967D01*
G01X-4318000Y-1606804D01*
G01X-4297005Y-1604967D01*
G01X-4276648Y-1599513D01*
G01X-4257548Y-1590606D01*
G01X-4240284Y-1578518D01*
G01X-4225382Y-1563616D01*
G01X-4213294Y-1546352D01*
G01X-4204387Y-1527252D01*
G01X-4198933Y-1506895D01*
G01X-4197096Y-1485900D01*
G01X-4198933Y-1464905D01*
G01X-4204387Y-1444548D01*
G01X-4213294Y-1425448D01*
G01X-4225382Y-1408184D01*
G01X-4240284Y-1393282D01*
G01X-4257548Y-1381194D01*
G01X-4276648Y-1372287D01*
G01X-4297005Y-1366833D01*
G01X-4318000Y-1364996D01*
G01X-4338995Y-1366833D01*
G01X-4359352Y-1372287D01*
G01X-4378452Y-1381194D01*
G01X-4395716Y-1393282D01*
G01X-4410618Y-1408184D01*
G01X-4422706Y-1425448D01*
G01X-4431613Y-1444548D01*
G01X-4437067Y-1464905D01*
G01X-4438904Y-1485900D01*
G01X-4438904Y-1485900D01*
G01X-4527550Y-1485900D01*
G01X-4527550Y-157005D01*
G01X-4460417Y-157005D01*
G01X-4460417Y-357005D01*
G01X-4458893Y-368575D01*
G01X-4454427Y-379357D01*
G01X-4447323Y-388615D01*
G01X-4438065Y-395719D01*
G01X-4427283Y-400185D01*
G01X-4415713Y-401709D01*
G01X-4258917Y-401709D01*
G01X-4258917Y-590296D01*
G01X-4264059Y-590296D01*
G01X-4264059Y-590296D01*
G01X-4283077Y-582749D01*
G01X-4303096Y-578518D01*
G01X-4323542Y-577723D01*
G01X-4343829Y-580387D01*
G01X-4363376Y-586434D01*
G01X-4381624Y-595691D01*
G01X-4398050Y-607892D01*
G01X-4412182Y-622688D01*
G01X-4423618Y-639655D01*
G01X-4432028Y-658308D01*
G01X-4437173Y-678112D01*
G01X-4438904Y-698500D01*
G01X-4437173Y-718888D01*
G01X-4432028Y-738692D01*
G01X-4423618Y-757345D01*
G01X-4412182Y-774312D01*
G01X-4398050Y-789108D01*
G01X-4381624Y-801309D01*
G01X-4363376Y-810566D01*
G01X-4343829Y-816613D01*
G01X-4323542Y-819277D01*
G01X-4303096Y-818482D01*
G01X-4283077Y-814251D01*
G01X-4264059Y-806704D01*
G01X-4150713Y-806704D01*
G01X-4131924Y-805060D01*
G01X-4113705Y-800179D01*
G01X-4096611Y-792207D01*
G01X-4081161Y-781389D01*
G01X-4067824Y-768052D01*
G01X-4057006Y-752602D01*
G01X-4049035Y-735508D01*
G01X-4044153Y-717289D01*
G01X-4042509Y-698500D01*
G01X-4042509Y-401709D01*
G01X-3885714Y-401709D01*
G01X-3874143Y-400185D01*
G01X-3863362Y-395719D01*
G01X-3854103Y-388615D01*
G01X-3846999Y-379357D01*
G01X-3842533Y-368575D01*
G01X-3841010Y-357005D01*
G01X-3841010Y-157005D01*
G01X-3842533Y-145435D01*
G01X-3846999Y-134653D01*
G01X-3854103Y-125395D01*
G01X-3863362Y-118290D01*
G01X-3874143Y-113824D01*
G01X-3885714Y-112301D01*
G01X-4415713Y-112301D01*
G01X-4427283Y-113824D01*
G01X-4438065Y-118290D01*
G01X-4447323Y-125395D01*
G01X-4454427Y-134653D01*
G01X-4458893Y-145435D01*
G01X-4460417Y-157005D01*
G01X-4527550Y-157005D01*
G01X-4527550Y368300D01*
G01X-4525540Y398967D01*
G01X-4519544Y429110D01*
G01X-4509665Y458211D01*
G01X-4496073Y485775D01*
G01X-4484571Y502989D01*
G01X-4460417Y502989D01*
G01X-4460417Y302989D01*
G01X-4458893Y291419D01*
G01X-4454427Y280637D01*
G01X-4447323Y271378D01*
G01X-4438065Y264274D01*
G01X-4427283Y259808D01*
G01X-4415713Y258285D01*
G01X-3885714Y258285D01*
G01X-3873478Y259992D01*
G01X-3862176Y264983D01*
G01X-3852673Y272877D01*
G01X-3845693Y283070D01*
G01X-3841769Y294785D01*
G01X-3730336Y294785D01*
G01X-3730336Y-92832D01*
G01X-3776800Y-92832D01*
G01X-3788370Y-94355D01*
G01X-3799152Y-98821D01*
G01X-3808410Y-105925D01*
G01X-3815514Y-115184D01*
G01X-3819980Y-125966D01*
G01X-3821504Y-137536D01*
G01X-3821504Y-257536D01*
G01X-3819980Y-269106D01*
G01X-3815514Y-279888D01*
G01X-3808410Y-289146D01*
G01X-3799152Y-296250D01*
G01X-3788370Y-300716D01*
G01X-3776800Y-302240D01*
G01X-3646798Y-302240D01*
G01X-3633261Y-304861D01*
G01X-3619500Y-305740D01*
G01X-3607664Y-305740D01*
G01X-3607664Y-714166D01*
G01X-3615310Y-721296D01*
G01X-3621091Y-730006D01*
G01X-3624691Y-739821D01*
G01X-3625913Y-750203D01*
G01X-3625913Y-1020202D01*
G01X-3624691Y-1030585D01*
G01X-3621091Y-1040400D01*
G01X-3615310Y-1049110D01*
G01X-3607664Y-1056239D01*
G01X-3607664Y-1079740D01*
G01X-3607664Y-1079740D01*
G01X-3657912Y-1129988D01*
G01X-3668939Y-1142899D01*
G01X-3677810Y-1157376D01*
G01X-3684308Y-1173063D01*
G01X-3688272Y-1189573D01*
G01X-3689604Y-1206500D01*
G01X-3689604Y-1356063D01*
G01X-3696603Y-1373317D01*
G01X-3700870Y-1391441D01*
G01X-3702304Y-1410005D01*
G01X-3702304Y-1457604D01*
G01X-3700467Y-1478599D01*
G01X-3695013Y-1498956D01*
G01X-3686106Y-1518056D01*
G01X-3674018Y-1535320D01*
G01X-3659116Y-1550222D01*
G01X-3641852Y-1562310D01*
G01X-3622752Y-1571217D01*
G01X-3602395Y-1576672D01*
G01X-3581400Y-1578508D01*
G01X-3560405Y-1576672D01*
G01X-3540048Y-1571217D01*
G01X-3520948Y-1562310D01*
G01X-3503684Y-1550222D01*
G01X-3488782Y-1535320D01*
G01X-3476694Y-1518056D01*
G01X-3467787Y-1498956D01*
G01X-3462333Y-1478599D01*
G01X-3460496Y-1457604D01*
G01X-3460496Y-1410005D01*
G01X-3448304Y-1410005D01*
G01X-3448304Y-1457604D01*
G01X-3446467Y-1478599D01*
G01X-3441013Y-1498956D01*
G01X-3432106Y-1518056D01*
G01X-3420018Y-1535320D01*
G01X-3405116Y-1550222D01*
G01X-3387852Y-1562310D01*
G01X-3368752Y-1571217D01*
G01X-3348395Y-1576672D01*
G01X-3327400Y-1578508D01*
G01X-3306405Y-1576672D01*
G01X-3286048Y-1571217D01*
G01X-3266948Y-1562310D01*
G01X-3249684Y-1550222D01*
G01X-3234782Y-1535320D01*
G01X-3222694Y-1518056D01*
G01X-3213787Y-1498956D01*
G01X-3208333Y-1478599D01*
G01X-3206496Y-1457604D01*
G01X-3206496Y-1410005D01*
G01X-3208333Y-1389010D01*
G01X-3213787Y-1368653D01*
G01X-3222694Y-1349553D01*
G01X-3234782Y-1332289D01*
G01X-3249684Y-1317387D01*
G01X-3266948Y-1305299D01*
G01X-3286048Y-1296392D01*
G01X-3306405Y-1290938D01*
G01X-3327400Y-1289101D01*
G01X-3348395Y-1290938D01*
G01X-3368752Y-1296392D01*
G01X-3387852Y-1305299D01*
G01X-3405116Y-1317387D01*
G01X-3420018Y-1332289D01*
G01X-3432106Y-1349553D01*
G01X-3441013Y-1368653D01*
G01X-3446467Y-1389010D01*
G01X-3448304Y-1410005D01*
G01X-3448304Y-1410005D01*
G01X-3460496Y-1410005D01*
G01X-3461930Y-1391441D01*
G01X-3466197Y-1373317D01*
G01X-3473196Y-1356063D01*
G01X-3473196Y-1251320D01*
G01X-3422948Y-1201071D01*
G01X-3411921Y-1188160D01*
G01X-3403049Y-1173683D01*
G01X-3396551Y-1157996D01*
G01X-3392588Y-1141486D01*
G01X-3391256Y-1124560D01*
G01X-3391256Y-1056239D01*
G01X-3383610Y-1049110D01*
G01X-3377828Y-1040400D01*
G01X-3374228Y-1030585D01*
G01X-3373006Y-1020202D01*
G01X-3373006Y-750203D01*
G01X-3322434Y-750203D01*
G01X-3322434Y-1020202D01*
G01X-3321014Y-1031380D01*
G01X-3316844Y-1041848D01*
G01X-3310190Y-1050941D01*
G01X-3301473Y-1058080D01*
G01X-3291248Y-1062814D01*
G01X-3280164Y-1064840D01*
G01X-3294607Y-1079918D01*
G01X-3306240Y-1097256D01*
G01X-3314717Y-1116337D01*
G01X-3319785Y-1136592D01*
G01X-3321292Y-1157417D01*
G01X-3319194Y-1178191D01*
G01X-3313553Y-1198294D01*
G01X-3304537Y-1217126D01*
G01X-3292416Y-1234127D01*
G01X-3277551Y-1248789D01*
G01X-3260385Y-1260674D01*
G01X-3241430Y-1269429D01*
G01X-3221251Y-1274792D01*
G01X-3200450Y-1276604D01*
G01X-3200450Y-1276604D01*
G01X-3179648Y-1274810D01*
G01X-3159465Y-1269463D01*
G01X-3140503Y-1260724D01*
G01X-3123326Y-1248853D01*
G01X-3108449Y-1234203D01*
G01X-3096314Y-1217213D01*
G01X-3087283Y-1198388D01*
G01X-3081625Y-1178290D01*
G01X-3079510Y-1157518D01*
G01X-3081000Y-1136692D01*
G01X-3086050Y-1116432D01*
G01X-3094511Y-1097344D01*
G01X-3106130Y-1079997D01*
G01X-3120561Y-1064906D01*
G01X-3114230Y-1064906D01*
G01X-3102660Y-1063383D01*
G01X-3091878Y-1058917D01*
G01X-3082620Y-1051813D01*
G01X-3075516Y-1042554D01*
G01X-3071050Y-1031773D01*
G01X-3069526Y-1020202D01*
G01X-3069526Y-750203D01*
G01X-3071050Y-738633D01*
G01X-3075516Y-727851D01*
G01X-3082620Y-718592D01*
G01X-3091878Y-711488D01*
G01X-3102660Y-707022D01*
G01X-3114230Y-705499D01*
G01X-3277730Y-705499D01*
G01X-3289301Y-707022D01*
G01X-3300082Y-711488D01*
G01X-3309341Y-718592D01*
G01X-3316445Y-727851D01*
G01X-3320911Y-738633D01*
G01X-3322434Y-750203D01*
G01X-3373006Y-750203D01*
G01X-3374228Y-739821D01*
G01X-3377828Y-730006D01*
G01X-3383610Y-721296D01*
G01X-3391256Y-714166D01*
G01X-3391256Y-284647D01*
G01X-3386248Y-276350D01*
G01X-3383147Y-267169D01*
G01X-3382096Y-257536D01*
G01X-3382096Y-137536D01*
G01X-3383620Y-125966D01*
G01X-3388086Y-115184D01*
G01X-3395190Y-105925D01*
G01X-3404448Y-98821D01*
G01X-3415230Y-94355D01*
G01X-3426800Y-92832D01*
G01X-3472161Y-92832D01*
G01X-3492032Y-89587D01*
G01X-3512160Y-90080D01*
G01X-3513928Y-89885D01*
G01X-3513928Y-73920D01*
G01X-2867213Y-73920D01*
G01X-2874064Y-83997D01*
G01X-2879739Y-94780D01*
G01X-2892791Y-92832D01*
G01X-3242790Y-92832D01*
G01X-3254360Y-94355D01*
G01X-3265142Y-98821D01*
G01X-3274401Y-105925D01*
G01X-3281505Y-115184D01*
G01X-3285971Y-125966D01*
G01X-3287494Y-137536D01*
G01X-3287494Y-257536D01*
G01X-3285971Y-269106D01*
G01X-3281505Y-279888D01*
G01X-3274401Y-289146D01*
G01X-3265142Y-296250D01*
G01X-3254360Y-300716D01*
G01X-3242790Y-302240D01*
G01X-2892791Y-302240D01*
G01X-2889504Y-302119D01*
G01X-2889504Y-572541D01*
G01X-2891751Y-572541D01*
G01X-2903321Y-574065D01*
G01X-2914103Y-578531D01*
G01X-2923361Y-585635D01*
G01X-2930465Y-594893D01*
G01X-2934931Y-605675D01*
G01X-2936455Y-617245D01*
G01X-2936455Y-737997D01*
G01X-2934931Y-749567D01*
G01X-2930465Y-760349D01*
G01X-2923361Y-769608D01*
G01X-2914103Y-776712D01*
G01X-2903321Y-781178D01*
G01X-2891751Y-782701D01*
G01X-2832514Y-782701D01*
G01X-2815379Y-785477D01*
G01X-2798021Y-785477D01*
G01X-2780886Y-782701D01*
G01X-2721649Y-782701D01*
G01X-2710079Y-781178D01*
G01X-2699297Y-776712D01*
G01X-2690039Y-769608D01*
G01X-2682935Y-760349D01*
G01X-2678469Y-749567D01*
G01X-2676945Y-737997D01*
G01X-2676945Y-680826D01*
G01X-2674063Y-666652D01*
G01X-2673096Y-652221D01*
G01X-2673096Y-139700D01*
G01X-2674389Y-123019D01*
G01X-2678239Y-106738D01*
G01X-2684552Y-91244D01*
G01X-2606569Y-169228D01*
G01X-2593657Y-180255D01*
G01X-2579180Y-189127D01*
G01X-2563493Y-195624D01*
G01X-2546983Y-199588D01*
G01X-2530056Y-200920D01*
G01X-2449772Y-200920D01*
G01X-2449772Y-723977D01*
G01X-2448128Y-742767D01*
G01X-2443246Y-760986D01*
G01X-2435274Y-778081D01*
G01X-2424455Y-793531D01*
G01X-2411118Y-806868D01*
G01X-2395667Y-817687D01*
G01X-2378572Y-825657D01*
G01X-2360352Y-830538D01*
G01X-2341562Y-832181D01*
G01X-2049762Y-832167D01*
G01X-2031439Y-830604D01*
G01X-2013645Y-825960D01*
G01X-1996895Y-818370D01*
G01X-1981672Y-808053D01*
G01X-1968415Y-795308D01*
G01X-1957808Y-790754D01*
G01X-1948720Y-783635D01*
G01X-1941758Y-774427D01*
G01X-1937386Y-763743D01*
G01X-1935895Y-752296D01*
G01X-1935895Y-690174D01*
G01X-1927629Y-696200D01*
G01X-1918210Y-700189D01*
G01X-1901984Y-713079D01*
G01X-1883598Y-722639D01*
G01X-1863728Y-728520D01*
G01X-1843100Y-730504D01*
G01X-1505104Y-730504D01*
G01X-1505104Y-820470D01*
G01X-1503580Y-832040D01*
G01X-1499114Y-842822D01*
G01X-1492010Y-852080D01*
G01X-1482752Y-859184D01*
G01X-1471970Y-863650D01*
G01X-1460400Y-865174D01*
G01X-1130400Y-865174D01*
G01X-1118830Y-863650D01*
G01X-1108048Y-859184D01*
G01X-1098790Y-852080D01*
G01X-1091686Y-842822D01*
G01X-1087220Y-832040D01*
G01X-1085696Y-820470D01*
G01X-1085696Y-730504D01*
G01X-828631Y-730504D01*
G01X-810094Y-728904D01*
G01X-792106Y-724153D01*
G01X-775197Y-716390D01*
G01X-759869Y-705846D01*
G01X-746573Y-692831D01*
G01X-735703Y-677732D01*
G01X-727581Y-660993D01*
G01X-722447Y-643110D01*
G01X-718631Y-643110D01*
G01X-707061Y-641587D01*
G01X-696279Y-637121D01*
G01X-687020Y-630017D01*
G01X-679916Y-620758D01*
G01X-675450Y-609976D01*
G01X-673927Y-598406D01*
G01X-673927Y-238407D01*
G01X-675450Y-226837D01*
G01X-679916Y-216055D01*
G01X-687020Y-206796D01*
G01X-696279Y-199692D01*
G01X-707061Y-195226D01*
G01X-718631Y-193703D01*
G01X-938630Y-193703D01*
G01X-950201Y-195226D01*
G01X-960982Y-199692D01*
G01X-970241Y-206796D01*
G01X-977345Y-216055D01*
G01X-981811Y-226837D01*
G01X-983334Y-238407D01*
G01X-983334Y-514096D01*
G01X-1104412Y-514096D01*
G01X-1112434Y-509535D01*
G01X-1121222Y-506718D01*
G01X-1130400Y-505766D01*
G01X-1460400Y-505766D01*
G01X-1469578Y-506718D01*
G01X-1478366Y-509535D01*
G01X-1486388Y-514096D01*
G01X-1843100Y-514096D01*
G01X-1863728Y-516080D01*
G01X-1883598Y-521961D01*
G01X-1901984Y-531521D01*
G01X-1918210Y-544411D01*
G01X-1927629Y-548400D01*
G01X-1935895Y-554426D01*
G01X-1935895Y-541977D01*
G01X-1934896Y-527304D01*
G01X-1934896Y-475421D01*
G01X-1934644Y-468048D01*
G01X-1934644Y-204639D01*
G01X-1934009Y-197131D01*
G01X-1934009Y-27029D01*
G01X-1934644Y-19521D01*
G01X-1934644Y2220D01*
G01X-1935977Y19147D01*
G01X-1939940Y35657D01*
G01X-1946438Y51344D01*
G01X-1955309Y65821D01*
G01X-1966337Y78732D01*
G01X-2192717Y305112D01*
G01X-2205628Y316139D01*
G01X-2220105Y325010D01*
G01X-2235792Y331508D01*
G01X-2252302Y335472D01*
G01X-2269228Y336804D01*
G01X-2781300Y336804D01*
G01X-2801908Y334823D01*
G01X-2821762Y328954D01*
G01X-2840135Y319411D01*
G01X-2856353Y306543D01*
G01X-2869824Y290822D01*
G01X-2880055Y272822D01*
G01X-2886670Y253204D01*
G01X-2889427Y232685D01*
G01X-2888226Y212017D01*
G01X-2883110Y191956D01*
G01X-2874267Y173236D01*
G01X-2862021Y156543D01*
G01X-2846820Y142488D01*
G01X-3513928Y142488D01*
G01X-3513927Y402989D01*
G01X-3515571Y421778D01*
G01X-3520453Y439997D01*
G01X-3528424Y457091D01*
G01X-3539242Y472541D01*
G01X-3552579Y485878D01*
G01X-3568029Y496696D01*
G01X-3585123Y504667D01*
G01X-3603342Y509549D01*
G01X-3622131Y511193D01*
G01X-3841769Y511193D01*
G01X-3845693Y522907D01*
G01X-3852673Y533101D01*
G01X-3862176Y540995D01*
G01X-3873478Y545985D01*
G01X-3885714Y547693D01*
G01X-4415713Y547693D01*
G01X-4427283Y546169D01*
G01X-4438065Y541703D01*
G01X-4447323Y534599D01*
G01X-4454427Y525341D01*
G01X-4458893Y514559D01*
G01X-4460417Y502989D01*
G01X-4484571Y502989D01*
G01X-4478998Y511328D01*
G01X-4458735Y534435D01*
G01X-4435628Y554698D01*
G01X-4410075Y571773D01*
G01X-4382511Y585365D01*
G01X-4353410Y595244D01*
G01X-4323267Y601240D01*
G01X-4292600Y603250D01*
G01X1333500Y603250D01*
G01X1364167Y601240D01*
G01X1394310Y595244D01*
G01X1423411Y585365D01*
G01X1450975Y571773D01*
G01X1476528Y554698D01*
G01X1499635Y534435D01*
G01X1519898Y511328D01*
G01X1536973Y485775D01*
G01X1550565Y458211D01*
G01X1560444Y429110D01*
G01X1566440Y398967D01*
G01X1568450Y368300D01*
G01X1568450Y-2260600D01*
G01X1566440Y-2291267D01*
G01X1560444Y-2321410D01*
G01X1550565Y-2350511D01*
G01X1536973Y-2378075D01*
G01X1519898Y-2403628D01*
G01X1499635Y-2426735D01*
G01X1476528Y-2446998D01*
G01X1450975Y-2464073D01*
G01X1423411Y-2477665D01*
G01X1394310Y-2487544D01*
G01X1364167Y-2493540D01*
G01X1333500Y-2495550D01*
G01X-2373155Y-2495550D01*
G01X-2109434Y-2231829D01*
G01X-1809077Y-2231829D01*
G01X-1801569Y-2232464D01*
G01X-1631467Y-2232464D01*
G01X-1619897Y-2230941D01*
G01X-1609115Y-2226475D01*
G01X-1599857Y-2219371D01*
G01X-1592753Y-2210112D01*
G01X-1588287Y-2199331D01*
G01X-1586763Y-2187760D01*
G01X-1586763Y-2067009D01*
G01X-1588243Y-2055604D01*
G01X-1592583Y-2044954D01*
G01X-1308354Y-2044954D01*
G01X-1308354Y-2253996D01*
G01X-1320800Y-2253996D01*
G01X-1332370Y-2255519D01*
G01X-1343152Y-2259985D01*
G01X-1352411Y-2267089D01*
G01X-1359515Y-2276348D01*
G01X-1363981Y-2287130D01*
G01X-1365504Y-2298700D01*
G01X-1365504Y-2400300D01*
G01X-1363981Y-2411870D01*
G01X-1359515Y-2422652D01*
G01X-1352411Y-2431911D01*
G01X-1343152Y-2439015D01*
G01X-1332370Y-2443481D01*
G01X-1320800Y-2445004D01*
G01X-1168400Y-2445004D01*
G01X-1156830Y-2443481D01*
G01X-1146048Y-2439015D01*
G01X-1136789Y-2431911D01*
G01X-1129685Y-2422652D01*
G01X-1125219Y-2411870D01*
G01X-1123696Y-2400300D01*
G01X-1123696Y-2298700D01*
G01X-1125219Y-2287130D01*
G01X-1129685Y-2276348D01*
G01X-1136789Y-2267089D01*
G01X-1146048Y-2259985D01*
G01X-1156830Y-2255519D01*
G01X-1168400Y-2253996D01*
G01X-1180846Y-2253996D01*
G01X-1180846Y-1981200D01*
G01X-1182444Y-1967013D01*
G01X-1187160Y-1953538D01*
G01X-1194755Y-1941450D01*
G01X-1204850Y-1931355D01*
G01X-1216938Y-1923760D01*
G01X-1230413Y-1919044D01*
G01X-1244600Y-1917446D01*
G01X-1594710Y-1917446D01*
G01X-1590356Y-1909561D01*
G01X-1587671Y-1900964D01*
G01X-1586763Y-1892003D01*
G01X-1586763Y-1771251D01*
G01X-1587928Y-1761114D01*
G01X-1591361Y-1751504D01*
G01X-1596884Y-1742924D01*
G01X-1596884Y-1634800D01*
G01X-1580904Y-1648259D01*
G01X-1562846Y-1658765D01*
G01X-1543249Y-1666006D01*
G01X-1522697Y-1669766D01*
G01X-1501806Y-1669931D01*
G01X-1481198Y-1666497D01*
G01X-1461488Y-1659566D01*
G01X-1443266Y-1649346D01*
G01X-1427076Y-1636142D01*
G01X-1413401Y-1620347D01*
G01X-1402648Y-1602434D01*
G01X-1336479Y-1602434D01*
G01X-1325747Y-1620427D01*
G01X-1312070Y-1636297D01*
G01X-1295859Y-1649568D01*
G01X-1277600Y-1659841D01*
G01X-1257842Y-1666808D01*
G01X-1237178Y-1670259D01*
G01X-1216229Y-1670092D01*
G01X-1195622Y-1666310D01*
G01X-1175978Y-1659028D01*
G01X-1157886Y-1648465D01*
G01X-1141889Y-1634936D01*
G01X-1128468Y-1618849D01*
G01X-1118026Y-1600687D01*
G01X-1107472Y-1596106D01*
G01X-1098438Y-1588984D01*
G01X-1091520Y-1579792D01*
G01X-1087177Y-1569139D01*
G01X-1085696Y-1557730D01*
G01X-1085696Y-1549730D01*
G01X-1064937Y-1549730D01*
G01X-1063101Y-1570725D01*
G01X-1057646Y-1591082D01*
G01X-1048739Y-1610182D01*
G01X-1036651Y-1627446D01*
G01X-1021749Y-1642348D01*
G01X-1004485Y-1654436D01*
G01X-985385Y-1663343D01*
G01X-965028Y-1668797D01*
G01X-944033Y-1670634D01*
G01X-923039Y-1668797D01*
G01X-902682Y-1663343D01*
G01X-883581Y-1654436D01*
G01X-866318Y-1642348D01*
G01X-851415Y-1627446D01*
G01X-839327Y-1610182D01*
G01X-830421Y-1591082D01*
G01X-824966Y-1570725D01*
G01X-823129Y-1549730D01*
G01X-823158Y-1549400D01*
G01X-781304Y-1549400D01*
G01X-779467Y-1570395D01*
G01X-774013Y-1590752D01*
G01X-765106Y-1609852D01*
G01X-753018Y-1627116D01*
G01X-738116Y-1642018D01*
G01X-720852Y-1654106D01*
G01X-701752Y-1663013D01*
G01X-681395Y-1668467D01*
G01X-660400Y-1670304D01*
G01X-639405Y-1668467D01*
G01X-619048Y-1663013D01*
G01X-599948Y-1654106D01*
G01X-582684Y-1642018D01*
G01X-579904Y-1639237D01*
G01X-530375Y-1639237D01*
G01X-528852Y-1650808D01*
G01X-524386Y-1661589D01*
G01X-517281Y-1670848D01*
G01X-508023Y-1677952D01*
G01X-497241Y-1682418D01*
G01X-485671Y-1683941D01*
G01X-215671Y-1683941D01*
G01X-203404Y-1682225D01*
G01X-192079Y-1677209D01*
G01X-182565Y-1669277D01*
G01X-175593Y-1659040D01*
G01X-171697Y-1647282D01*
G01X-154179Y-1660408D01*
G01X-134582Y-1670161D01*
G01X-113547Y-1676220D01*
G01X-91765Y-1678387D01*
G01X-69949Y-1676591D01*
G01X-48814Y-1670891D01*
G01X-29054Y-1661473D01*
G01X-11315Y-1648647D01*
G01X-7185Y-1660032D01*
G01X-152Y-1669891D01*
G01X9270Y-1677500D01*
G01X20388Y-1682301D01*
G01X32388Y-1683941D01*
G01X302387Y-1683941D01*
G01X315314Y-1682032D01*
G01X327136Y-1676465D01*
G01X336844Y-1667719D01*
G01X343607Y-1656539D01*
G01X360858Y-1668051D01*
G01X379823Y-1676446D01*
G01X399943Y-1681477D01*
G01X420627Y-1682994D01*
G01X441266Y-1680955D01*
G01X461253Y-1675418D01*
G01X480000Y-1666546D01*
G01X496954Y-1654601D01*
G01X511618Y-1639935D01*
G01X521336Y-1626135D01*
G01X737460Y-1626135D01*
G01X738983Y-1637705D01*
G01X743449Y-1648487D01*
G01X750553Y-1657745D01*
G01X759812Y-1664849D01*
G01X770594Y-1669315D01*
G01X782164Y-1670839D01*
G01X902164Y-1670839D01*
G01X913734Y-1669315D01*
G01X924516Y-1664849D01*
G01X933774Y-1657745D01*
G01X940878Y-1648487D01*
G01X945344Y-1637705D01*
G01X946868Y-1626135D01*
G01X946868Y-1485900D01*
G01X1314196Y-1485900D01*
G01X1316033Y-1506895D01*
G01X1321487Y-1527252D01*
G01X1330394Y-1546352D01*
G01X1342482Y-1563616D01*
G01X1357384Y-1578518D01*
G01X1374648Y-1590606D01*
G01X1393748Y-1599513D01*
G01X1414105Y-1604967D01*
G01X1435100Y-1606804D01*
G01X1456095Y-1604967D01*
G01X1476452Y-1599513D01*
G01X1495552Y-1590606D01*
G01X1512816Y-1578518D01*
G01X1527718Y-1563616D01*
G01X1539806Y-1546352D01*
G01X1548713Y-1527252D01*
G01X1554167Y-1506895D01*
G01X1556004Y-1485900D01*
G01X1554167Y-1464905D01*
G01X1548713Y-1444548D01*
G01X1539806Y-1425448D01*
G01X1527718Y-1408184D01*
G01X1512816Y-1393282D01*
G01X1495552Y-1381194D01*
G01X1476452Y-1372287D01*
G01X1456095Y-1366833D01*
G01X1435100Y-1364996D01*
G01X1414105Y-1366833D01*
G01X1393748Y-1372287D01*
G01X1374648Y-1381194D01*
G01X1357384Y-1393282D01*
G01X1342482Y-1408184D01*
G01X1330394Y-1425448D01*
G01X1321487Y-1444548D01*
G01X1316033Y-1464905D01*
G01X1314196Y-1485900D01*
G01X1314196Y-1485900D01*
G01X946868Y-1485900D01*
G01X946868Y-1276135D01*
G01X945344Y-1264565D01*
G01X940878Y-1253783D01*
G01X933774Y-1244525D01*
G01X924516Y-1237421D01*
G01X913734Y-1232955D01*
G01X902164Y-1231431D01*
G01X782164Y-1231431D01*
G01X782164Y-1231431D01*
G01X770594Y-1232955D01*
G01X759812Y-1237421D01*
G01X750553Y-1244525D01*
G01X743449Y-1253783D01*
G01X738983Y-1264565D01*
G01X737460Y-1276135D01*
G01X737460Y-1626135D01*
G01X521336Y-1626135D01*
G01X523559Y-1622978D01*
G01X532427Y-1604229D01*
G01X537959Y-1584241D01*
G01X539995Y-1563601D01*
G01X538473Y-1542918D01*
G01X533438Y-1522798D01*
G01X525039Y-1503836D01*
G01X513522Y-1486587D01*
G01X499228Y-1471561D01*
G01X482575Y-1459199D01*
G01X464055Y-1449864D01*
G01X444211Y-1443833D01*
G01X423629Y-1441281D01*
G01X402914Y-1442284D01*
G01X382675Y-1446813D01*
G01X363508Y-1454735D01*
G01X345976Y-1465816D01*
G01X341763Y-1454572D01*
G01X334710Y-1444856D01*
G01X325325Y-1437367D01*
G01X314285Y-1432646D01*
G01X302387Y-1431033D01*
G01X32388Y-1431033D01*
G01X20388Y-1432674D01*
G01X9270Y-1437475D01*
G01X-152Y-1445084D01*
G01X-7185Y-1454943D01*
G01X-11315Y-1466328D01*
G01X-29054Y-1453501D01*
G01X-48814Y-1444084D01*
G01X-69949Y-1438384D01*
G01X-91765Y-1436588D01*
G01X-113547Y-1438755D01*
G01X-134582Y-1444814D01*
G01X-154179Y-1454567D01*
G01X-171697Y-1467693D01*
G01X-171697Y-1467693D01*
G01X-175593Y-1455935D01*
G01X-182565Y-1445697D01*
G01X-192079Y-1437766D01*
G01X-203404Y-1432749D01*
G01X-215671Y-1431033D01*
G01X-485671Y-1431033D01*
G01X-497241Y-1432557D01*
G01X-508023Y-1437023D01*
G01X-517281Y-1444127D01*
G01X-524386Y-1453385D01*
G01X-528852Y-1464167D01*
G01X-530375Y-1475737D01*
G01X-530375Y-1639237D01*
G01X-579904Y-1639237D01*
G01X-567782Y-1627116D01*
G01X-555694Y-1609852D01*
G01X-546787Y-1590752D01*
G01X-541333Y-1570395D01*
G01X-539496Y-1549400D01*
G01X-541333Y-1528405D01*
G01X-546787Y-1508048D01*
G01X-555694Y-1488948D01*
G01X-567782Y-1471684D01*
G01X-582684Y-1456782D01*
G01X-599948Y-1444694D01*
G01X-619048Y-1435787D01*
G01X-639405Y-1430333D01*
G01X-660400Y-1428496D01*
G01X-681395Y-1430333D01*
G01X-701752Y-1435787D01*
G01X-720852Y-1444694D01*
G01X-738116Y-1456782D01*
G01X-753018Y-1471684D01*
G01X-765106Y-1488948D01*
G01X-774013Y-1508048D01*
G01X-779467Y-1528405D01*
G01X-781304Y-1549400D01*
G01X-781304Y-1549400D01*
G01X-823158Y-1549400D01*
G01X-824966Y-1528735D01*
G01X-830421Y-1508379D01*
G01X-839327Y-1489278D01*
G01X-851415Y-1472015D01*
G01X-866318Y-1457112D01*
G01X-883581Y-1445024D01*
G01X-902682Y-1436118D01*
G01X-923039Y-1430663D01*
G01X-944033Y-1428826D01*
G01X-965028Y-1430663D01*
G01X-985385Y-1436118D01*
G01X-1004485Y-1445024D01*
G01X-1021749Y-1457112D01*
G01X-1036651Y-1472015D01*
G01X-1048739Y-1489278D01*
G01X-1057646Y-1508379D01*
G01X-1063101Y-1528735D01*
G01X-1064937Y-1549730D01*
G01X-1064937Y-1549730D01*
G01X-1085696Y-1549730D01*
G01X-1085696Y-1287730D01*
G01X-1087220Y-1276160D01*
G01X-1091686Y-1265378D01*
G01X-1098790Y-1256120D01*
G01X-1108048Y-1249016D01*
G01X-1118830Y-1244550D01*
G01X-1130400Y-1243026D01*
G01X-1460400Y-1243026D01*
G01X-1471970Y-1244550D01*
G01X-1482752Y-1249016D01*
G01X-1492010Y-1256120D01*
G01X-1499114Y-1265378D01*
G01X-1503580Y-1276160D01*
G01X-1505104Y-1287730D01*
G01X-1505104Y-1428655D01*
G01X-1525327Y-1429312D01*
G01X-1545157Y-1433333D01*
G01X-1564039Y-1440605D01*
G01X-1581444Y-1450923D01*
G01X-1596884Y-1464000D01*
G01X-1596884Y-1195842D01*
G01X-578025Y-1195842D01*
G01X-530375Y-1243492D01*
G01X-530375Y-1335758D01*
G01X-528852Y-1347328D01*
G01X-524386Y-1358110D01*
G01X-517281Y-1367369D01*
G01X-508023Y-1374473D01*
G01X-497241Y-1378939D01*
G01X-485671Y-1380462D01*
G01X-215671Y-1380462D01*
G01X-205289Y-1379240D01*
G01X-195474Y-1375639D01*
G01X-186764Y-1369858D01*
G01X-179635Y-1362212D01*
G01X-3649Y-1362212D01*
G01X3480Y-1369858D01*
G01X12190Y-1375639D01*
G01X22005Y-1379240D01*
G01X32388Y-1380462D01*
G01X302387Y-1380462D01*
G01X314781Y-1378710D01*
G01X326203Y-1373590D01*
G01X335758Y-1365504D01*
G01X482600Y-1365504D01*
G01X501389Y-1363860D01*
G01X519608Y-1358979D01*
G01X536702Y-1351007D01*
G01X552152Y-1340189D01*
G01X565489Y-1326852D01*
G01X576307Y-1311402D01*
G01X584279Y-1294308D01*
G01X589160Y-1276089D01*
G01X590804Y-1257300D01*
G01X590804Y-1025329D01*
G01X737460Y-1025329D01*
G01X737460Y-1092125D01*
G01X738983Y-1103695D01*
G01X743449Y-1114477D01*
G01X750553Y-1123736D01*
G01X759812Y-1130840D01*
G01X770594Y-1135306D01*
G01X782164Y-1136829D01*
G01X902164Y-1136829D01*
G01X913734Y-1135306D01*
G01X924516Y-1130840D01*
G01X933774Y-1123736D01*
G01X940878Y-1114477D01*
G01X945344Y-1103695D01*
G01X946868Y-1092125D01*
G01X946868Y-1025329D01*
G01X1435100Y-1025329D01*
G01X1453889Y-1023686D01*
G01X1472108Y-1018804D01*
G01X1489202Y-1010833D01*
G01X1504652Y-1000014D01*
G01X1517989Y-986678D01*
G01X1528807Y-971227D01*
G01X1536779Y-954133D01*
G01X1541660Y-935915D01*
G01X1543304Y-917125D01*
G01X1543304Y-752441D01*
G01X1550851Y-733423D01*
G01X1555082Y-713404D01*
G01X1555877Y-692958D01*
G01X1553213Y-672671D01*
G01X1547166Y-653124D01*
G01X1537909Y-634876D01*
G01X1525708Y-618450D01*
G01X1510912Y-604318D01*
G01X1493945Y-592882D01*
G01X1475292Y-584472D01*
G01X1455488Y-579327D01*
G01X1435100Y-577596D01*
G01X1414712Y-579327D01*
G01X1394908Y-584472D01*
G01X1376255Y-592882D01*
G01X1359288Y-604318D01*
G01X1344492Y-618450D01*
G01X1332291Y-634876D01*
G01X1323034Y-653124D01*
G01X1316987Y-672671D01*
G01X1314323Y-692958D01*
G01X1315118Y-713404D01*
G01X1319349Y-733423D01*
G01X1326896Y-752441D01*
G01X1326896Y-808921D01*
G01X946868Y-808921D01*
G01X946868Y-742126D01*
G01X945344Y-730556D01*
G01X940878Y-719774D01*
G01X933774Y-710515D01*
G01X924516Y-703411D01*
G01X913734Y-698945D01*
G01X902164Y-697422D01*
G01X782164Y-697422D01*
G01X770594Y-698945D01*
G01X759812Y-703411D01*
G01X750553Y-710515D01*
G01X743449Y-719774D01*
G01X738983Y-730556D01*
G01X737460Y-742126D01*
G01X737460Y-808921D01*
G01X482600Y-808921D01*
G01X463811Y-810565D01*
G01X445592Y-815447D01*
G01X428498Y-823418D01*
G01X413048Y-834236D01*
G01X399711Y-847573D01*
G01X388893Y-863023D01*
G01X380921Y-880117D01*
G01X376040Y-898336D01*
G01X374396Y-917125D01*
G01X374396Y-1149096D01*
G01X340623Y-1149096D01*
G01X333494Y-1140152D01*
G01X324330Y-1133310D01*
G01X313730Y-1129017D01*
G01X302387Y-1127554D01*
G01X259571Y-1127554D01*
G01X259571Y-643110D01*
G01X261367Y-643110D01*
G01X272938Y-641587D01*
G01X283719Y-637121D01*
G01X292978Y-630017D01*
G01X300082Y-620758D01*
G01X304548Y-609976D01*
G01X306071Y-598406D01*
G01X306071Y-238407D01*
G01X304548Y-226837D01*
G01X300082Y-216055D01*
G01X292978Y-206796D01*
G01X283719Y-199692D01*
G01X272938Y-195226D01*
G01X261367Y-193703D01*
G01X41368Y-193703D01*
G01X29797Y-195226D01*
G01X19016Y-199692D01*
G01X9757Y-206796D01*
G01X2653Y-216055D01*
G01X-1813Y-226837D01*
G01X-3336Y-238407D01*
G01X-3336Y-598406D01*
G01X-1813Y-609976D01*
G01X2653Y-620758D01*
G01X9757Y-630017D01*
G01X19016Y-637121D01*
G01X29797Y-641587D01*
G01X41368Y-643110D01*
G01X43163Y-643110D01*
G01X43163Y-1127554D01*
G01X32388Y-1127554D01*
G01X22005Y-1128777D01*
G01X12190Y-1132377D01*
G01X3480Y-1138158D01*
G01X-3649Y-1145804D01*
G01X-179635Y-1145804D01*
G01X-186764Y-1138158D01*
G01X-195474Y-1132377D01*
G01X-205289Y-1128777D01*
G01X-215671Y-1127554D01*
G01X-307936Y-1127554D01*
G01X-443877Y-991614D01*
G01X-458152Y-979422D01*
G01X-474159Y-969613D01*
G01X-491502Y-962429D01*
G01X-509756Y-958047D01*
G01X-528471Y-956574D01*
G01X-1716518Y-956574D01*
G01X-1737292Y-958392D01*
G01X-1757435Y-963789D01*
G01X-1776335Y-972602D01*
G01X-1793417Y-984563D01*
G01X-1808163Y-999309D01*
G01X-1820124Y-1016391D01*
G01X-1828937Y-1035291D01*
G01X-1834335Y-1055434D01*
G01X-1836152Y-1076208D01*
G01X-1836152Y-1742924D01*
G01X-1841675Y-1751504D01*
G01X-1845108Y-1761114D01*
G01X-1846273Y-1771251D01*
G01X-1846273Y-1892003D01*
G01X-1845365Y-1900964D01*
G01X-1842680Y-1909561D01*
G01X-1838326Y-1917446D01*
G01X-1917446Y-1917446D01*
G01X-1917446Y-1651000D01*
G01X-1919044Y-1636813D01*
G01X-1923760Y-1623338D01*
G01X-1931355Y-1611250D01*
G01X-1941450Y-1601155D01*
G01X-1953538Y-1593560D01*
G01X-1967013Y-1588844D01*
G01X-1981200Y-1587246D01*
G01X-2959100Y-1587246D01*
G01X-2973564Y-1588908D01*
G01X-2987273Y-1593809D01*
G01X-2999513Y-1601691D01*
G01X-3009646Y-1612145D01*
G01X-3009646Y-1560333D01*
G01X-2993255Y-1548128D01*
G01X-2979154Y-1533337D01*
G01X-2967745Y-1516382D01*
G01X-2959355Y-1497748D01*
G01X-2954223Y-1477967D01*
G01X-2952496Y-1457604D01*
G01X-2952496Y-1410005D01*
G01X-2940304Y-1410005D01*
G01X-2940304Y-1457604D01*
G01X-2938467Y-1478599D01*
G01X-2933013Y-1498956D01*
G01X-2924106Y-1518056D01*
G01X-2912018Y-1535320D01*
G01X-2897116Y-1550222D01*
G01X-2879852Y-1562310D01*
G01X-2860752Y-1571217D01*
G01X-2840395Y-1576672D01*
G01X-2819400Y-1578508D01*
G01X-2798405Y-1576672D01*
G01X-2778048Y-1571217D01*
G01X-2758948Y-1562310D01*
G01X-2741684Y-1550222D01*
G01X-2726782Y-1535320D01*
G01X-2714694Y-1518056D01*
G01X-2705787Y-1498956D01*
G01X-2700333Y-1478599D01*
G01X-2698496Y-1457604D01*
G01X-2698496Y-1410005D01*
G01X-2699930Y-1391441D01*
G01X-2704197Y-1373317D01*
G01X-2711196Y-1356063D01*
G01X-2711196Y-1077219D01*
G01X-2700100Y-1072922D01*
G01X-2690532Y-1065850D01*
G01X-2683167Y-1056505D01*
G01X-2678529Y-1045547D01*
G01X-2676945Y-1033755D01*
G01X-2676945Y-913003D01*
G01X-2678469Y-901433D01*
G01X-2682935Y-890651D01*
G01X-2690039Y-881392D01*
G01X-2699297Y-874288D01*
G01X-2710079Y-869822D01*
G01X-2721649Y-868299D01*
G01X-2780886Y-868299D01*
G01X-2798021Y-865523D01*
G01X-2815379Y-865523D01*
G01X-2832514Y-868299D01*
G01X-2891751Y-868299D01*
G01X-2903321Y-869822D01*
G01X-2914103Y-874288D01*
G01X-2923361Y-881392D01*
G01X-2930465Y-890651D01*
G01X-2934931Y-901433D01*
G01X-2936455Y-913003D01*
G01X-2936455Y-1033755D01*
G01X-2935441Y-1043221D01*
G01X-2932445Y-1052258D01*
G01X-2927604Y-1060456D01*
G01X-2927604Y-1356063D01*
G01X-2927604Y-1356063D01*
G01X-2934603Y-1373317D01*
G01X-2938870Y-1391441D01*
G01X-2940304Y-1410005D01*
G01X-2952496Y-1410005D01*
G01X-2954333Y-1389010D01*
G01X-2959787Y-1368653D01*
G01X-2968694Y-1349553D01*
G01X-2980782Y-1332289D01*
G01X-2995684Y-1317387D01*
G01X-3012948Y-1305299D01*
G01X-3032048Y-1296392D01*
G01X-3052405Y-1290938D01*
G01X-3073400Y-1289101D01*
G01X-3094395Y-1290938D01*
G01X-3114752Y-1296392D01*
G01X-3133852Y-1305299D01*
G01X-3151116Y-1317387D01*
G01X-3166018Y-1332289D01*
G01X-3178106Y-1349553D01*
G01X-3187013Y-1368653D01*
G01X-3192467Y-1389010D01*
G01X-3194304Y-1410005D01*
G01X-3194304Y-1457604D01*
G01X-3192977Y-1475471D01*
G01X-3189024Y-1492945D01*
G01X-3182532Y-1509644D01*
G01X-3173643Y-1525199D01*
G01X-3162554Y-1539270D01*
G01X-3162554Y-1599946D01*
G01X-4025646Y-1599946D01*
G01X-4025646Y-1104900D01*
G01X-4027563Y-1087887D01*
G01X-4033217Y-1071728D01*
G01X-4042326Y-1057232D01*
G01X-4054432Y-1045126D01*
G01X-4068928Y-1036017D01*
G01X-4085087Y-1030363D01*
G01X-4102100Y-1028446D01*
G01X-4224338Y-1028446D01*
G01X-4239126Y-1013267D01*
G01X-4256336Y-1000903D01*
G01X-4275442Y-991734D01*
G01X-4295854Y-986041D01*
G01X-4316947Y-984001D01*
G01X-4338073Y-985674D01*
G01X-4358581Y-991010D01*
G01X-4377843Y-999845D01*
G01X-4395267Y-1011907D01*
G01X-4410316Y-1026827D01*
G01X-4422530Y-1044144D01*
G01X-4431532Y-1063329D01*
G01X-4437047Y-1083790D01*
G01X-4438904Y-1104900D01*
G01X-4437047Y-1126010D01*
G01X-4431532Y-1146471D01*
G01X-4422530Y-1165656D01*
G01X-4410316Y-1182973D01*
G01X-4395267Y-1197893D01*
G01X-4377843Y-1209955D01*
G01X-4358581Y-1218790D01*
G01X-4338073Y-1224126D01*
G01X-4316947Y-1225799D01*
G01X-4295854Y-1223759D01*
G01X-4275442Y-1218066D01*
G01X-4256336Y-1208897D01*
G01X-4239126Y-1196533D01*
G01X-4224338Y-1181354D01*
G01X-4178554Y-1181354D01*
G01X-4178554Y-1676400D01*
G01X-4176637Y-1693413D01*
G01X-4170983Y-1709572D01*
G01X-4161874Y-1724068D01*
G01X-4149768Y-1736174D01*
G01X-4135272Y-1745283D01*
G01X-4119113Y-1750937D01*
G01X-4102100Y-1752854D01*
G01X-3393549Y-1752854D01*
G01X-3399120Y-1768144D01*
G01X-3401272Y-1784275D01*
G01X-3399903Y-1800491D01*
G01X-3395078Y-1816033D01*
G01X-3387023Y-1830173D01*
G01X-3376114Y-1842249D01*
G01X-3362862Y-1851696D01*
G01X-3889005Y-1851696D01*
G01X-3895639Y-1840061D01*
G01X-3905422Y-1830915D01*
G01X-3917475Y-1825076D01*
G01X-3930717Y-1823070D01*
G01X-4100819Y-1823070D01*
G01X-4112389Y-1824593D01*
G01X-4123171Y-1829059D01*
G01X-4132429Y-1836163D01*
G01X-4139533Y-1845422D01*
G01X-4143999Y-1856204D01*
G01X-4145523Y-1867774D01*
G01X-4145523Y-1988525D01*
G01X-4144410Y-1998435D01*
G01X-4164907Y-1977939D01*
G01X-4176541Y-1968398D01*
G01X-4189819Y-1961321D01*
G01X-4204225Y-1956981D01*
G01X-4211371Y-1948451D01*
G01X-4220402Y-1941950D01*
G01X-4230759Y-1937881D01*
G01X-4241800Y-1936496D01*
G01X-4394200Y-1936496D01*
G01X-4405770Y-1938019D01*
G01X-4416552Y-1942485D01*
G01X-4425811Y-1949589D01*
G01X-4432915Y-1958848D01*
G01X-4437381Y-1969630D01*
G01X-4438904Y-1981200D01*
G01X-4438904Y-2082800D01*
G01X-4437381Y-2094370D01*
G01X-4432915Y-2105152D01*
G01X-4425811Y-2114411D01*
G01X-4416552Y-2121515D01*
G01X-4405770Y-2125981D01*
G01X-4394200Y-2127504D01*
G01X-4241800Y-2127504D01*
G01X-4232553Y-2126537D01*
G01X-4145523Y-2213568D01*
G01X-4145523Y-2284283D01*
G01X-4143999Y-2295853D01*
G01X-4139533Y-2306635D01*
G01X-4132429Y-2315893D01*
G01X-4123171Y-2322998D01*
G01X-4112389Y-2327464D01*
G01X-4100819Y-2328987D01*
G01X-3930717Y-2328987D01*
G01X-3919147Y-2327464D01*
G01X-3908365Y-2322998D01*
G01X-3899107Y-2315893D01*
G01X-3892003Y-2306635D01*
G01X-3887537Y-2295853D01*
G01X-3886013Y-2284283D01*
G01X-3886013Y-2199996D01*
G01X-3702304Y-2199996D01*
G01X-3702304Y-2247595D01*
G01X-3700467Y-2268590D01*
G01X-3695013Y-2288947D01*
G01X-3686106Y-2308047D01*
G01X-3674018Y-2325311D01*
G01X-3659116Y-2340213D01*
G01X-3641852Y-2352301D01*
G01X-3622752Y-2361208D01*
G01X-3602395Y-2366662D01*
G01X-3581400Y-2368499D01*
G01X-3560405Y-2366662D01*
G01X-3540048Y-2361208D01*
G01X-3520948Y-2352301D01*
G01X-3503684Y-2340213D01*
G01X-3488782Y-2325311D01*
G01X-3476694Y-2308047D01*
G01X-3467787Y-2288947D01*
G01X-3462333Y-2268590D01*
G01X-3460496Y-2247595D01*
G01X-3460496Y-2199996D01*
G01X-3462333Y-2179001D01*
G01X-3467787Y-2158644D01*
G01X-3476694Y-2139544D01*
G01X-3488782Y-2122280D01*
G01X-3503684Y-2107378D01*
G01X-3520948Y-2095290D01*
G01X-3540048Y-2086383D01*
G01X-3560405Y-2080928D01*
G01X-3581400Y-2079092D01*
G01X-3602395Y-2080928D01*
G01X-3622752Y-2086383D01*
G01X-3641852Y-2095290D01*
G01X-3659116Y-2107378D01*
G01X-3674018Y-2122280D01*
G01X-3686106Y-2139544D01*
G01X-3695013Y-2158644D01*
G01X-3700467Y-2179001D01*
G01X-3702304Y-2199996D01*
G01X-3702304Y-2199996D01*
G01X-3886013Y-2199996D01*
G01X-3886013Y-2163531D01*
G01X-3887537Y-2151961D01*
G01X-3892003Y-2141179D01*
G01X-3899107Y-2131921D01*
G01X-3908365Y-2124817D01*
G01X-3919147Y-2120351D01*
G01X-3930717Y-2118827D01*
G01X-4024018Y-2118827D01*
G01X-4110729Y-2032117D01*
G01X-4100819Y-2033229D01*
G01X-3930717Y-2033229D01*
G01X-3917475Y-2031223D01*
G01X-3905422Y-2025385D01*
G01X-3895639Y-2016238D01*
G01X-3889005Y-2004604D01*
G01X-3403854Y-2004604D01*
G01X-3403854Y-2106334D01*
G01X-3419170Y-2121281D01*
G01X-3431611Y-2138695D01*
G01X-3440787Y-2158029D01*
G01X-3446410Y-2178678D01*
G01X-3448304Y-2199996D01*
G01X-3448304Y-2247595D01*
G01X-3446467Y-2268590D01*
G01X-3441013Y-2288947D01*
G01X-3432106Y-2308047D01*
G01X-3420018Y-2325311D01*
G01X-3405116Y-2340213D01*
G01X-3387852Y-2352301D01*
G01X-3368752Y-2361208D01*
G01X-3348395Y-2366662D01*
G01X-3327400Y-2368499D01*
G01X-3306405Y-2366662D01*
G01X-3286048Y-2361208D01*
G01X-3266948Y-2352301D01*
G01X-3249684Y-2340213D01*
G01X-3234782Y-2325311D01*
G01X-3222694Y-2308047D01*
G01X-3213787Y-2288947D01*
G01X-3208333Y-2268590D01*
G01X-3206496Y-2247595D01*
G01X-3206496Y-2199996D01*
G01X-3208390Y-2178678D01*
G01X-3214013Y-2158029D01*
G01X-3223189Y-2138695D01*
G01X-3235630Y-2121281D01*
G01X-3250946Y-2106334D01*
G01X-3250946Y-1928150D01*
G01X-3252488Y-1912873D01*
G01X-3257051Y-1898213D01*
G01X-3264451Y-1884761D01*
G01X-3274390Y-1873058D01*
G01X-3286466Y-1863577D01*
G01X-3300194Y-1856700D01*
G01X-3286202Y-1849849D01*
G01X-2959100Y-1849849D01*
G01X-2944913Y-1848251D01*
G01X-2931438Y-1843535D01*
G01X-2919350Y-1835940D01*
G01X-2909255Y-1825845D01*
G01X-2901660Y-1813757D01*
G01X-2896944Y-1800282D01*
G01X-2895346Y-1786095D01*
G01X-2895346Y-1771251D01*
G01X-2347509Y-1771251D01*
G01X-2347509Y-1892003D01*
G01X-2345985Y-1903573D01*
G01X-2341519Y-1914355D01*
G01X-2334415Y-1923613D01*
G01X-2325157Y-1930718D01*
G01X-2314375Y-1935184D01*
G01X-2302805Y-1936707D01*
G01X-2132703Y-1936707D01*
G01X-2132703Y-1936707D01*
G01X-2121133Y-1935184D01*
G01X-2110351Y-1930718D01*
G01X-2101093Y-1923613D01*
G01X-2093989Y-1914355D01*
G01X-2089523Y-1903573D01*
G01X-2087999Y-1892003D01*
G01X-2087999Y-1771251D01*
G01X-2089523Y-1759681D01*
G01X-2093989Y-1748899D01*
G01X-2101093Y-1739641D01*
G01X-2110351Y-1732536D01*
G01X-2121133Y-1728070D01*
G01X-2132703Y-1726547D01*
G01X-2302805Y-1726547D01*
G01X-2314375Y-1728070D01*
G01X-2325157Y-1732536D01*
G01X-2334415Y-1739641D01*
G01X-2341519Y-1748899D01*
G01X-2345985Y-1759681D01*
G01X-2347509Y-1771251D01*
G01X-2895346Y-1771251D01*
G01X-2895346Y-1714754D01*
G01X-2044954Y-1714754D01*
G01X-2044954Y-1981200D01*
G01X-2043820Y-1993170D01*
G01X-2040459Y-2004714D01*
G01X-2034991Y-2015421D01*
G01X-2154254Y-2015421D01*
G01X-2173552Y-2017156D01*
G01X-2192231Y-2022305D01*
G01X-2302805Y-2022305D01*
G01X-2314375Y-2023828D01*
G01X-2325157Y-2028294D01*
G01X-2334415Y-2035398D01*
G01X-2341519Y-2044657D01*
G01X-2345985Y-2055439D01*
G01X-2347509Y-2067009D01*
G01X-2347509Y-2163856D01*
G01X-2501148Y-2317496D01*
G01X-2720751Y-2317496D01*
G01X-2711190Y-2301524D01*
G01X-2704194Y-2284274D01*
G01X-2699929Y-2266155D01*
G01X-2698496Y-2247595D01*
G01X-2698496Y-2199996D01*
G01X-2700333Y-2179001D01*
G01X-2705787Y-2158644D01*
G01X-2714694Y-2139544D01*
G01X-2726782Y-2122280D01*
G01X-2741684Y-2107378D01*
G01X-2758948Y-2095290D01*
G01X-2778048Y-2086383D01*
G01X-2798405Y-2080928D01*
G01X-2819400Y-2079092D01*
G01X-2840395Y-2080928D01*
G01X-2860752Y-2086383D01*
G01X-2879852Y-2095290D01*
G01X-2897116Y-2107378D01*
G01X-2912018Y-2122280D01*
G01X-2924106Y-2139544D01*
G01X-2933013Y-2158644D01*
G01X-2938467Y-2179001D01*
G01X-2940304Y-2199996D01*
G01X-2940304Y-2247595D01*
G01X-2939971Y-2256561D01*
G01X-2952496Y-2244036D01*
G01X-2952496Y-2199996D01*
G01X-2954333Y-2179001D01*
G01X-2959787Y-2158644D01*
G01X-2968694Y-2139544D01*
G01X-2980782Y-2122280D01*
G01X-2995684Y-2107378D01*
G01X-3012948Y-2095290D01*
G01X-3032048Y-2086383D01*
G01X-3052405Y-2080928D01*
G01X-3073400Y-2079092D01*
G01X-3094395Y-2080928D01*
G01X-3114752Y-2086383D01*
G01X-3133852Y-2095290D01*
G01X-3151116Y-2107378D01*
G01X-3166018Y-2122280D01*
G01X-3178106Y-2139544D01*
G01X-3187013Y-2158644D01*
G01X-3192467Y-2179001D01*
G01X-3194304Y-2199996D01*
G01X-3194304Y-2247595D01*
G01X-3193080Y-2264759D01*
G01X-3189431Y-2281574D01*
G01X-3183432Y-2297702D01*
G01X-3175205Y-2312815D01*
G01X-3168759Y-2327291D01*
G01X-3160267Y-2340670D01*
G01X-3149912Y-2352666D01*
G37*
G54D10*
G01X-3149912Y-2352666D02*
G01X-3000680Y-2501900D01*
G01X-4311650Y-2501900D01*
G02X-4546600Y-2266950I0J234950D01*
G01X-4546600Y361950D01*
G02X-4311650Y596900I234950J0D01*
G01X1314450Y596900D01*
G02X1549400Y361950I0J-234950D01*
G01X1549400Y-659088D01*
G03X1388324Y-587011I-114300J-39412D01*
G03X1326896Y-752441I46776J-111489D01*
G01X1326896Y-808921D01*
G01X946868Y-808921D01*
G01X946868Y-742126D01*
G03X902164Y-697422I-44704J0D01*
G01X782164Y-697422D01*
G03X737460Y-742126I0J-44704D01*
G01X737460Y-808921D01*
G01X482600Y-808921D01*
G03X374396Y-917125I0J-108204D01*
G01X374396Y-1149096D01*
G01X340623Y-1149096D01*
G03X302387Y-1127554I-38236J-23162D01*
G01X259571Y-1127554D01*
G01X259571Y-643110D01*
G01X261367Y-643110D01*
G03X306071Y-598406I0J44704D01*
G01X306071Y-238407D01*
G03X261367Y-193703I-44704J0D01*
G01X41368Y-193703D01*
G03X-3336Y-238407I0J-44704D01*
G01X-3336Y-598406D01*
G03X41368Y-643110I44704J0D01*
G01X43163Y-643110D01*
G01X43163Y-1127554D01*
G01X32388Y-1127554D01*
G03X-3649Y-1145804I0J-44704D01*
G01X-179635Y-1145804D01*
G03X-215671Y-1127554I-36036J-26454D01*
G01X-307936Y-1127554D01*
G01X-443877Y-991614D01*
G03X-528471Y-956574I-84594J-84594D01*
G01X-1716518Y-956574D01*
G03X-1836152Y-1076208I0J-119634D01*
G01X-1836152Y-1742924D01*
G03X-1846273Y-1771251I34583J-28327D01*
G01X-1846273Y-1892003D01*
G03X-1838326Y-1917446I44704J0D01*
G01X-1917446Y-1917446D01*
G01X-1917446Y-1651000D01*
G03X-1981200Y-1587246I-63754J0D01*
G01X-2959100Y-1587246D01*
G03X-3009646Y-1612145I0J-63754D01*
G01X-3009646Y-1560333D01*
G03X-2952496Y-1457604I-63754J102729D01*
G01X-2952496Y-1410005D01*
G03X-3194304Y-1410005I-120904J0D01*
G01X-3194304Y-1457604D01*
G03X-3162554Y-1539270I120904J0D01*
G01X-3162554Y-1599946D01*
G01X-4025646Y-1599946D01*
G01X-4025646Y-1104900D01*
G03X-4102100Y-1028446I-76454J0D01*
G01X-4224338Y-1028446D01*
G03X-4438904Y-1104900I-93662J-76454D01*
G03X-4224338Y-1181354I120904J0D01*
G01X-4178554Y-1181354D01*
G01X-4178554Y-1676400D01*
G03X-4102100Y-1752854I76454J0D01*
G01X-3393549Y-1752854D01*
G03X-3362862Y-1851696I67459J-33241D01*
G01X-3889005Y-1851696D01*
G03X-3930717Y-1823070I-41713J-16078D01*
G01X-4100819Y-1823070D01*
G03X-4145523Y-1867774I0J-44704D01*
G01X-4145523Y-1988525D01*
G03X-4144410Y-1998435I44704J0D01*
G01X-4164907Y-1977939D01*
G03X-4204225Y-1956981I-54061J-54061D01*
G03X-4241800Y-1936496I-37575J-24219D01*
G01X-4394200Y-1936496D01*
G03X-4438904Y-1981200I0J-44704D01*
G01X-4438904Y-2082800D01*
G03X-4394200Y-2127504I44704J0D01*
G01X-4241800Y-2127504D01*
G03X-4232553Y-2126537I0J44704D01*
G01X-4145523Y-2213568D01*
G01X-4145523Y-2284283D01*
G03X-4100819Y-2328987I44704J0D01*
G01X-3930717Y-2328987D01*
G03X-3886013Y-2284283I0J44704D01*
G01X-3886013Y-2163531D01*
G03X-3930717Y-2118827I-44704J0D01*
G01X-4024018Y-2118827D01*
G01X-4110729Y-2032117D01*
G03X-4100819Y-2033229I9910J43592D01*
G01X-3930717Y-2033229D01*
G03X-3889005Y-2004604I0J44704D01*
G01X-3403854Y-2004604D01*
G01X-3403854Y-2106334D01*
G03X-3448304Y-2199996I76454J-93662D01*
G01X-3448304Y-2247595D01*
G03X-3206496Y-2247595I120904J0D01*
G01X-3206496Y-2199996D01*
G03X-3250946Y-2106334I-120904J0D01*
G01X-3250946Y-1928150D01*
G03X-3300194Y-1856700I-76454J0D01*
G03X-3286202Y-1849849I-25896J70605D01*
G01X-2959100Y-1849849D01*
G03X-2895346Y-1786095I0J63754D01*
G01X-2895346Y-1714754D01*
G01X-2044954Y-1714754D01*
G01X-2044954Y-1981200D01*
G03X-2034991Y-2015421I63754J0D01*
G01X-2154254Y-2015421D01*
G03X-2192231Y-2022305I0J-108204D01*
G01X-2302805Y-2022305D01*
G03X-2347509Y-2067009I0J-44704D01*
G01X-2347509Y-2163856D01*
G01X-2501148Y-2317496D01*
G01X-2720751Y-2317496D01*
G03X-2698496Y-2247595I-98649J69901D01*
G01X-2698496Y-2199996D01*
G03X-2940304Y-2199996I-120904J0D01*
G01X-2940304Y-2247595D01*
G03X-2939971Y-2256561I120904J0D01*
G01X-2952496Y-2244036D01*
G01X-2952496Y-2199996D01*
G03X-3194304Y-2199996I-120904J0D01*
G01X-3194304Y-2247595D01*
G03X-3175205Y-2312815I120904J0D01*
G03X-3149912Y-2352666I101805J36660D01*
G01X-3607664Y-1079740D02*
G01X-3657912Y-1129988D01*
G03X-3689604Y-1206500I76512J-76512D01*
G01X-3689604Y-1356063D01*
G03X-3702304Y-1410005I108204J-53941D01*
G01X-3702304Y-1457604D01*
G03X-3460496Y-1457604I120904J0D01*
G01X-3460496Y-1410005D01*
G03X-3473196Y-1356063I-120904J0D01*
G01X-3473196Y-1251320D01*
G01X-3422948Y-1201071D01*
G03X-3391256Y-1124560I-76512J76512D01*
G01X-3391256Y-1056239D01*
G03X-3373006Y-1020202I-26454J36036D01*
G01X-3373006Y-750203D01*
G03X-3391256Y-714166I-44704J0D01*
G01X-3391256Y-284647D01*
G03X-3382096Y-257536I-35545J27111D01*
G01X-3382096Y-137536D01*
G03X-3426800Y-92832I-44704J0D01*
G01X-3472161Y-92832D01*
G03X-3512160Y-90080I-27298J-104704D01*
G01X-3513928Y-89885D01*
G01X-3513928Y-73920D01*
G01X-2867213Y-73920D01*
G03X-2879739Y-94780I85913J-65780D01*
G03X-2892791Y-92832I-13052J-42756D01*
G01X-3242790Y-92832D01*
G03X-3287494Y-137536I0J-44704D01*
G01X-3287494Y-257536D01*
G03X-3242790Y-302240I44704J0D01*
G01X-2892791Y-302240D01*
G03X-2889504Y-302119I0J44704D01*
G01X-2889504Y-572541D01*
G01X-2891751Y-572541D01*
G03X-2936455Y-617245I0J-44704D01*
G01X-2936455Y-737997D01*
G03X-2891751Y-782701I44704J0D01*
G01X-2832514Y-782701D01*
G03X-2780886Y-782701I25814J105080D01*
G01X-2721649Y-782701D01*
G03X-2676945Y-737997I0J44704D01*
G01X-2676945Y-680826D01*
G03X-2673096Y-652221I-104355J28604D01*
G01X-2673096Y-139700D01*
G03X-2684552Y-91244I-108204J0D01*
G01X-2606569Y-169228D01*
G03X-2530056Y-200920I76512J76512D01*
G01X-2449772Y-200920D01*
G01X-2449772Y-723977D01*
G03X-2341562Y-832181I108204J0D01*
G01X-2049762Y-832167D01*
G03X-1968415Y-795308I-5J108204D01*
G03X-1935895Y-752296I-12184J43012D01*
G01X-1935895Y-690174D01*
G03X-1918210Y-700189I30295J32874D01*
G03X-1843100Y-730504I75109J77889D01*
G01X-1505104Y-730504D01*
G01X-1505104Y-820470D01*
G03X-1460400Y-865174I44704J0D01*
G01X-1130400Y-865174D01*
G03X-1085696Y-820470I0J44704D01*
G01X-1085696Y-730504D01*
G01X-828631Y-730504D01*
G03X-722447Y-643110I0J108204D01*
G01X-718631Y-643110D01*
G03X-673927Y-598406I0J44704D01*
G01X-673927Y-238407D01*
G03X-718631Y-193703I-44704J0D01*
G01X-938630Y-193703D01*
G03X-983334Y-238407I0J-44704D01*
G01X-983334Y-514096D01*
G01X-1104412Y-514096D01*
G03X-1130400Y-505766I-25988J-36374D01*
G01X-1460400Y-505766D01*
G03X-1486388Y-514096I0J-44704D01*
G01X-1843100Y-514096D01*
G03X-1918210Y-544411I0J-108204D01*
G03X-1935895Y-554426I12609J-42889D01*
G01X-1935895Y-541977D01*
G03X-1934896Y-527304I-107205J14673D01*
G01X-1934896Y-475421D01*
G03X-1934644Y-468048I-107953J7373D01*
G01X-1934644Y-204639D01*
G03X-1934009Y-197131I-44069J7508D01*
G01X-1934009Y-27029D01*
G03X-1934644Y-19521I-44704J0D01*
G01X-1934644Y2220D01*
G03X-1966337Y78732I-108204J0D01*
G01X-2192717Y305112D01*
G03X-2269228Y336804I-76512J-76512D01*
G01X-2781300Y336804D01*
G03X-2846820Y142488I0J-108204D01*
G01X-3513928Y142488D01*
G01X-3513927Y402989D01*
G03X-3622131Y511193I-108204J0D01*
G01X-3841769Y511193D01*
G03X-3885714Y547693I-43945J-8204D01*
G01X-4415713Y547693D01*
G03X-4460417Y502989I0J-44704D01*
G01X-4460417Y302989D01*
G03X-4415713Y258285I44704J0D01*
G01X-3885714Y258285D01*
G03X-3841769Y294785I0J44704D01*
G01X-3730336Y294785D01*
G01X-3730336Y-92832D01*
G01X-3776800Y-92832D01*
G03X-3821504Y-137536I0J-44704D01*
G01X-3821504Y-257536D01*
G03X-3776800Y-302240I44704J0D01*
G01X-3646798Y-302240D01*
G03X-3619500Y-305740I27298J104704D01*
G01X-3607664Y-305740D01*
G01X-3607664Y-714166D01*
G03X-3625913Y-750203I26454J-36036D01*
G01X-3625913Y-1020202D01*
G03X-3607664Y-1056239I44704J0D01*
G01X-3607664Y-1079740D01*
G01X-4264059Y-590296D02*
G03X-4438904Y-698500I-53941J-108204D01*
G03X-4264059Y-806704I120904J0D01*
G01X-4150713Y-806704D01*
G03X-4042509Y-698500I0J108204D01*
G01X-4042509Y-401709D01*
G01X-3885714Y-401709D01*
G03X-3841010Y-357005I0J44704D01*
G01X-3841010Y-157005D01*
G03X-3885714Y-112301I-44704J0D01*
G01X-4415713Y-112301D01*
G03X-4460417Y-157005I0J-44704D01*
G01X-4460417Y-357005D01*
G03X-4415713Y-401709I44704J0D01*
G01X-4258917Y-401709D01*
G01X-4258917Y-590296D01*
G01X-4264059Y-590296D01*
G01X-4438904Y-1485900D02*
G03X-4197096Y-1485900I120904J0D01*
G03X-4438904Y-1485900I-120904J0D01*
G01X-4241800Y-1886204D02*
G03X-4197096Y-1841500I0J44704D01*
G01X-4197096Y-1739900D01*
G03X-4241800Y-1695196I-44704J0D01*
G01X-4394200Y-1695196D01*
G03X-4438904Y-1739900I0J-44704D01*
G01X-4438904Y-1841500D01*
G03X-4394200Y-1886204I44704J0D01*
G01X-4241800Y-1886204D01*
G01X-3702304Y-2199996D02*
G01X-3702304Y-2247595D01*
G03X-3460496Y-2247595I120904J0D01*
G01X-3460496Y-2199996D01*
G03X-3702304Y-2199996I-120904J0D01*
G01X-3448304Y-1410005D02*
G01X-3448304Y-1457604D01*
G03X-3206496Y-1457604I120904J0D01*
G01X-3206496Y-1410005D01*
G03X-3448304Y-1410005I-120904J0D01*
G01X-3200450Y-1276604D02*
G03X-3120561Y-1064906I50J120904D01*
G01X-3114230Y-1064906D01*
G03X-3069526Y-1020202I0J44704D01*
G01X-3069526Y-750203D01*
G03X-3114230Y-705499I-44704J0D01*
G01X-3277730Y-705499D01*
G03X-3322434Y-750203I0J-44704D01*
G01X-3322434Y-1020202D01*
G03X-3280164Y-1064840I44704J0D01*
G03X-3200450Y-1276604I79764J-90860D01*
G01X-2927604Y-1356063D02*
G03X-2940304Y-1410005I108204J-53941D01*
G01X-2940304Y-1457604D01*
G03X-2698496Y-1457604I120904J0D01*
G01X-2698496Y-1410005D01*
G03X-2711196Y-1356063I-120904J0D01*
G01X-2711196Y-1077219D01*
G03X-2676945Y-1033755I-10453J43465D01*
G01X-2676945Y-913003D01*
G03X-2721649Y-868299I-44704J0D01*
G01X-2780886Y-868299D01*
G03X-2832514Y-868299I-25814J-105080D01*
G01X-2891751Y-868299D01*
G03X-2936455Y-913003I0J-44704D01*
G01X-2936455Y-1033755D01*
G03X-2927604Y-1060456I44704J0D01*
G01X-2927604Y-1356063D01*
G01X-2132703Y-1936707D02*
G03X-2087999Y-1892003I0J44704D01*
G01X-2087999Y-1771251D01*
G03X-2132703Y-1726547I-44704J0D01*
G01X-2302805Y-1726547D01*
G03X-2347509Y-1771251I0J-44704D01*
G01X-2347509Y-1892003D01*
G03X-2302805Y-1936707I44704J0D01*
G01X-2132703Y-1936707D01*
G01X1314450Y-2501900D02*
G01X-2379505Y-2501900D01*
G01X-2109434Y-2231829D01*
G01X-1809077Y-2231829D01*
G03X-1801569Y-2232464I7508J44069D01*
G01X-1631467Y-2232464D01*
G03X-1586763Y-2187760I0J44704D01*
G01X-1586763Y-2067009D01*
G03X-1592583Y-2044954I-44704J0D01*
G01X-1308354Y-2044954D01*
G01X-1308354Y-2253996D01*
G01X-1320800Y-2253996D01*
G03X-1365504Y-2298700I0J-44704D01*
G01X-1365504Y-2400300D01*
G03X-1320800Y-2445004I44704J0D01*
G01X-1168400Y-2445004D01*
G03X-1123696Y-2400300I0J44704D01*
G01X-1123696Y-2298700D01*
G03X-1168400Y-2253996I-44704J0D01*
G01X-1180846Y-2253996D01*
G01X-1180846Y-1981200D01*
G03X-1244600Y-1917446I-63754J0D01*
G01X-1594710Y-1917446D01*
G03X-1586763Y-1892003I-36757J25443D01*
G01X-1586763Y-1771251D01*
G03X-1596884Y-1742924I-44704J0D01*
G01X-1596884Y-1634800D01*
G03X-1402648Y-1602434I85584J85400D01*
G01X-1336479Y-1602434D01*
G03X-1118026Y-1600687I108812J52704D01*
G03X-1085696Y-1557730I-12375J42957D01*
G01X-1085696Y-1287730D01*
G03X-1130400Y-1243026I-44704J0D01*
G01X-1460400Y-1243026D01*
G03X-1505104Y-1287730I0J-44704D01*
G01X-1505104Y-1428655D01*
G03X-1596884Y-1464000I-6196J-120745D01*
G01X-1596884Y-1195842D01*
G01X-578025Y-1195842D01*
G01X-530375Y-1243492D01*
G01X-530375Y-1335758D01*
G03X-485671Y-1380462I44704J0D01*
G01X-215671Y-1380462D01*
G03X-179635Y-1362212I0J44704D01*
G01X-3649Y-1362212D01*
G03X32388Y-1380462I36036J26454D01*
G01X302387Y-1380462D01*
G03X335758Y-1365504I0J44704D01*
G01X482600Y-1365504D01*
G03X590804Y-1257300I0J108204D01*
G01X590804Y-1025329D01*
G01X737460Y-1025329D01*
G01X737460Y-1092125D01*
G03X782164Y-1136829I44704J0D01*
G01X902164Y-1136829D01*
G03X946868Y-1092125I0J44704D01*
G01X946868Y-1025329D01*
G01X1435100Y-1025329D01*
G03X1543304Y-917125I0J108204D01*
G01X1543304Y-752441D01*
G03X1549400Y-737912I-108204J53941D01*
G01X1549400Y-1446488D01*
G03X1314196Y-1485900I-114300J-39412D01*
G03X1549400Y-1525312I120904J0D01*
G01X1549400Y-2266950D01*
G02X1314450Y-2501900I-234950J0D01*
G01X-1064937Y-1549730D02*
G03X-823129Y-1549730I120904J0D01*
G03X-1064937Y-1549730I-120904J0D01*
G01X-781304Y-1549400D02*
G03X-539496Y-1549400I120904J0D01*
G03X-781304Y-1549400I-120904J0D01*
G01X-171697Y-1467693D02*
G03X-215671Y-1431033I-43974J-8044D01*
G01X-485671Y-1431033D01*
G03X-530375Y-1475737I0J-44704D01*
G01X-530375Y-1639237D01*
G03X-485671Y-1683941I44704J0D01*
G01X-215671Y-1683941D01*
G03X-171697Y-1647282I0J44704D01*
G03X-11315Y-1648647I80961J89794D01*
G03X32388Y-1683941I43702J9410D01*
G01X302387Y-1683941D01*
G03X343607Y-1656539I0J44704D01*
G03X539995Y-1563601I75493J94439D01*
G03X345976Y-1465816I-120895J1501D01*
G03X302387Y-1431033I-43589J-9922D01*
G01X32388Y-1431033D01*
G03X-11315Y-1466328I0J-44704D01*
G03X-171697Y-1467693I-79421J-91160D01*
G01X782164Y-1231431D02*
G03X737460Y-1276135I0J-44704D01*
G01X737460Y-1626135D01*
G03X782164Y-1670839I44704J0D01*
G01X902164Y-1670839D01*
G03X946868Y-1626135I0J44704D01*
G01X946868Y-1276135D01*
G03X902164Y-1231431I-44704J0D01*
G01X782164Y-1231431D01*
G01X-3149912Y-2352666D02*
G01X-3007030Y-2495550D01*
G01X-4292600Y-2495550D01*
G02X-4527550Y-2260600I0J234950D01*
G01X-4527550Y368300D01*
G02X-4292600Y603250I234950J0D01*
G01X1333500Y603250D01*
G02X1568450Y368300I0J-234950D01*
G01X1568450Y-2260600D01*
G02X1333500Y-2495550I-234950J0D01*
G01X-2373155Y-2495550D01*
G01X-2109434Y-2231829D01*
G01X-1809077Y-2231829D01*
G03X-1801569Y-2232464I7508J44069D01*
G01X-1631467Y-2232464D01*
G03X-1586763Y-2187760I0J44704D01*
G01X-1586763Y-2067009D01*
G03X-1592583Y-2044954I-44704J0D01*
G01X-1308354Y-2044954D01*
G01X-1308354Y-2253996D01*
G01X-1320800Y-2253996D01*
G03X-1365504Y-2298700I0J-44704D01*
G01X-1365504Y-2400300D01*
G03X-1320800Y-2445004I44704J0D01*
G01X-1168400Y-2445004D01*
G03X-1123696Y-2400300I0J44704D01*
G01X-1123696Y-2298700D01*
G03X-1168400Y-2253996I-44704J0D01*
G01X-1180846Y-2253996D01*
G01X-1180846Y-1981200D01*
G03X-1244600Y-1917446I-63754J0D01*
G01X-1594710Y-1917446D01*
G03X-1586763Y-1892003I-36757J25443D01*
G01X-1586763Y-1771251D01*
G03X-1596884Y-1742924I-44704J0D01*
G01X-1596884Y-1634800D01*
G03X-1402648Y-1602434I85584J85400D01*
G01X-1336479Y-1602434D01*
G03X-1118026Y-1600687I108812J52704D01*
G03X-1085696Y-1557730I-12375J42957D01*
G01X-1085696Y-1287730D01*
G03X-1130400Y-1243026I-44704J0D01*
G01X-1460400Y-1243026D01*
G03X-1505104Y-1287730I0J-44704D01*
G01X-1505104Y-1428655D01*
G03X-1596884Y-1464000I-6196J-120745D01*
G01X-1596884Y-1195842D01*
G01X-578025Y-1195842D01*
G01X-530375Y-1243492D01*
G01X-530375Y-1335758D01*
G03X-485671Y-1380462I44704J0D01*
G01X-215671Y-1380462D01*
G03X-179635Y-1362212I0J44704D01*
G01X-3649Y-1362212D01*
G03X32388Y-1380462I36036J26454D01*
G01X302387Y-1380462D01*
G03X335758Y-1365504I0J44704D01*
G01X482600Y-1365504D01*
G03X590804Y-1257300I0J108204D01*
G01X590804Y-1025329D01*
G01X737460Y-1025329D01*
G01X737460Y-1092125D01*
G03X782164Y-1136829I44704J0D01*
G01X902164Y-1136829D01*
G03X946868Y-1092125I0J44704D01*
G01X946868Y-1025329D01*
G01X1435100Y-1025329D01*
G03X1543304Y-917125I0J108204D01*
G01X1543304Y-752441D01*
G03X1435100Y-577596I-108204J53941D01*
G03X1326896Y-752441I0J-120904D01*
G01X1326896Y-808921D01*
G01X946868Y-808921D01*
G01X946868Y-742126D01*
G03X902164Y-697422I-44704J0D01*
G01X782164Y-697422D01*
G03X737460Y-742126I0J-44704D01*
G01X737460Y-808921D01*
G01X482600Y-808921D01*
G03X374396Y-917125I0J-108204D01*
G01X374396Y-1149096D01*
G01X340623Y-1149096D01*
G03X302387Y-1127554I-38236J-23162D01*
G01X259571Y-1127554D01*
G01X259571Y-643110D01*
G01X261367Y-643110D01*
G03X306071Y-598406I0J44704D01*
G01X306071Y-238407D01*
G03X261367Y-193703I-44704J0D01*
G01X41368Y-193703D01*
G03X-3336Y-238407I0J-44704D01*
G01X-3336Y-598406D01*
G03X41368Y-643110I44704J0D01*
G01X43163Y-643110D01*
G01X43163Y-1127554D01*
G01X32388Y-1127554D01*
G03X-3649Y-1145804I0J-44704D01*
G01X-179635Y-1145804D01*
G03X-215671Y-1127554I-36036J-26454D01*
G01X-307936Y-1127554D01*
G01X-443877Y-991614D01*
G03X-528471Y-956574I-84594J-84594D01*
G01X-1716518Y-956574D01*
G03X-1836152Y-1076208I0J-119634D01*
G01X-1836152Y-1742924D01*
G03X-1846273Y-1771251I34583J-28327D01*
G01X-1846273Y-1892003D01*
G03X-1838326Y-1917446I44704J0D01*
G01X-1917446Y-1917446D01*
G01X-1917446Y-1651000D01*
G03X-1981200Y-1587246I-63754J0D01*
G01X-2959100Y-1587246D01*
G03X-3009646Y-1612145I0J-63754D01*
G01X-3009646Y-1560333D01*
G03X-2952496Y-1457604I-63754J102729D01*
G01X-2952496Y-1410005D01*
G03X-3194304Y-1410005I-120904J0D01*
G01X-3194304Y-1457604D01*
G03X-3162554Y-1539270I120904J0D01*
G01X-3162554Y-1599946D01*
G01X-4025646Y-1599946D01*
G01X-4025646Y-1104900D01*
G03X-4102100Y-1028446I-76454J0D01*
G01X-4224338Y-1028446D01*
G03X-4438904Y-1104900I-93662J-76454D01*
G03X-4224338Y-1181354I120904J0D01*
G01X-4178554Y-1181354D01*
G01X-4178554Y-1676400D01*
G03X-4102100Y-1752854I76454J0D01*
G01X-3393549Y-1752854D01*
G03X-3362862Y-1851696I67459J-33241D01*
G01X-3889005Y-1851696D01*
G03X-3930717Y-1823070I-41713J-16078D01*
G01X-4100819Y-1823070D01*
G03X-4145523Y-1867774I0J-44704D01*
G01X-4145523Y-1988525D01*
G03X-4144410Y-1998435I44704J0D01*
G01X-4164907Y-1977939D01*
G03X-4204225Y-1956981I-54061J-54061D01*
G03X-4241800Y-1936496I-37575J-24219D01*
G01X-4394200Y-1936496D01*
G03X-4438904Y-1981200I0J-44704D01*
G01X-4438904Y-2082800D01*
G03X-4394200Y-2127504I44704J0D01*
G01X-4241800Y-2127504D01*
G03X-4232553Y-2126537I0J44704D01*
G01X-4145523Y-2213568D01*
G01X-4145523Y-2284283D01*
G03X-4100819Y-2328987I44704J0D01*
G01X-3930717Y-2328987D01*
G03X-3886013Y-2284283I0J44704D01*
G01X-3886013Y-2163531D01*
G03X-3930717Y-2118827I-44704J0D01*
G01X-4024018Y-2118827D01*
G01X-4110729Y-2032117D01*
G03X-4100819Y-2033229I9910J43592D01*
G01X-3930717Y-2033229D01*
G03X-3889005Y-2004604I0J44704D01*
G01X-3403854Y-2004604D01*
G01X-3403854Y-2106334D01*
G03X-3448304Y-2199996I76454J-93662D01*
G01X-3448304Y-2247595D01*
G03X-3206496Y-2247595I120904J0D01*
G01X-3206496Y-2199996D01*
G03X-3250946Y-2106334I-120904J0D01*
G01X-3250946Y-1928150D01*
G03X-3300194Y-1856700I-76454J0D01*
G03X-3286202Y-1849849I-25896J70605D01*
G01X-2959100Y-1849849D01*
G03X-2895346Y-1786095I0J63754D01*
G01X-2895346Y-1714754D01*
G01X-2044954Y-1714754D01*
G01X-2044954Y-1981200D01*
G03X-2034991Y-2015421I63754J0D01*
G01X-2154254Y-2015421D01*
G03X-2192231Y-2022305I0J-108204D01*
G01X-2302805Y-2022305D01*
G03X-2347509Y-2067009I0J-44704D01*
G01X-2347509Y-2163856D01*
G01X-2501148Y-2317496D01*
G01X-2720751Y-2317496D01*
G03X-2698496Y-2247595I-98649J69901D01*
G01X-2698496Y-2199996D01*
G03X-2940304Y-2199996I-120904J0D01*
G01X-2940304Y-2247595D01*
G03X-2939971Y-2256561I120904J0D01*
G01X-2952496Y-2244036D01*
G01X-2952496Y-2199996D01*
G03X-3194304Y-2199996I-120904J0D01*
G01X-3194304Y-2247595D01*
G03X-3175205Y-2312815I120904J0D01*
G03X-3149912Y-2352666I101805J36660D01*
G01X-3607664Y-1079740D02*
G01X-3657912Y-1129988D01*
G03X-3689604Y-1206500I76512J-76512D01*
G01X-3689604Y-1356063D01*
G03X-3702304Y-1410005I108204J-53941D01*
G01X-3702304Y-1457604D01*
G03X-3460496Y-1457604I120904J0D01*
G01X-3460496Y-1410005D01*
G03X-3473196Y-1356063I-120904J0D01*
G01X-3473196Y-1251320D01*
G01X-3422948Y-1201071D01*
G03X-3391256Y-1124560I-76512J76512D01*
G01X-3391256Y-1056239D01*
G03X-3373006Y-1020202I-26454J36036D01*
G01X-3373006Y-750203D01*
G03X-3391256Y-714166I-44704J0D01*
G01X-3391256Y-284647D01*
G03X-3382096Y-257536I-35545J27111D01*
G01X-3382096Y-137536D01*
G03X-3426800Y-92832I-44704J0D01*
G01X-3472161Y-92832D01*
G03X-3512160Y-90080I-27298J-104704D01*
G01X-3513928Y-89885D01*
G01X-3513928Y-73920D01*
G01X-2867213Y-73920D01*
G03X-2879739Y-94780I85913J-65780D01*
G03X-2892791Y-92832I-13052J-42756D01*
G01X-3242790Y-92832D01*
G03X-3287494Y-137536I0J-44704D01*
G01X-3287494Y-257536D01*
G03X-3242790Y-302240I44704J0D01*
G01X-2892791Y-302240D01*
G03X-2889504Y-302119I0J44704D01*
G01X-2889504Y-572541D01*
G01X-2891751Y-572541D01*
G03X-2936455Y-617245I0J-44704D01*
G01X-2936455Y-737997D01*
G03X-2891751Y-782701I44704J0D01*
G01X-2832514Y-782701D01*
G03X-2780886Y-782701I25814J105080D01*
G01X-2721649Y-782701D01*
G03X-2676945Y-737997I0J44704D01*
G01X-2676945Y-680826D01*
G03X-2673096Y-652221I-104355J28604D01*
G01X-2673096Y-139700D01*
G03X-2684552Y-91244I-108204J0D01*
G01X-2606569Y-169228D01*
G03X-2530056Y-200920I76512J76512D01*
G01X-2449772Y-200920D01*
G01X-2449772Y-723977D01*
G03X-2341562Y-832181I108204J0D01*
G01X-2049762Y-832167D01*
G03X-1968415Y-795308I-5J108204D01*
G03X-1935895Y-752296I-12184J43012D01*
G01X-1935895Y-690174D01*
G03X-1918210Y-700189I30295J32874D01*
G03X-1843100Y-730504I75109J77889D01*
G01X-1505104Y-730504D01*
G01X-1505104Y-820470D01*
G03X-1460400Y-865174I44704J0D01*
G01X-1130400Y-865174D01*
G03X-1085696Y-820470I0J44704D01*
G01X-1085696Y-730504D01*
G01X-828631Y-730504D01*
G03X-722447Y-643110I0J108204D01*
G01X-718631Y-643110D01*
G03X-673927Y-598406I0J44704D01*
G01X-673927Y-238407D01*
G03X-718631Y-193703I-44704J0D01*
G01X-938630Y-193703D01*
G03X-983334Y-238407I0J-44704D01*
G01X-983334Y-514096D01*
G01X-1104412Y-514096D01*
G03X-1130400Y-505766I-25988J-36374D01*
G01X-1460400Y-505766D01*
G03X-1486388Y-514096I0J-44704D01*
G01X-1843100Y-514096D01*
G03X-1918210Y-544411I0J-108204D01*
G03X-1935895Y-554426I12609J-42889D01*
G01X-1935895Y-541977D01*
G03X-1934896Y-527304I-107205J14673D01*
G01X-1934896Y-475421D01*
G03X-1934644Y-468048I-107953J7373D01*
G01X-1934644Y-204639D01*
G03X-1934009Y-197131I-44069J7508D01*
G01X-1934009Y-27029D01*
G03X-1934644Y-19521I-44704J0D01*
G01X-1934644Y2220D01*
G03X-1966337Y78732I-108204J0D01*
G01X-2192717Y305112D01*
G03X-2269228Y336804I-76512J-76512D01*
G01X-2781300Y336804D01*
G03X-2846820Y142488I0J-108204D01*
G01X-3513928Y142488D01*
G01X-3513927Y402989D01*
G03X-3622131Y511193I-108204J0D01*
G01X-3841769Y511193D01*
G03X-3885714Y547693I-43945J-8204D01*
G01X-4415713Y547693D01*
G03X-4460417Y502989I0J-44704D01*
G01X-4460417Y302989D01*
G03X-4415713Y258285I44704J0D01*
G01X-3885714Y258285D01*
G03X-3841769Y294785I0J44704D01*
G01X-3730336Y294785D01*
G01X-3730336Y-92832D01*
G01X-3776800Y-92832D01*
G03X-3821504Y-137536I0J-44704D01*
G01X-3821504Y-257536D01*
G03X-3776800Y-302240I44704J0D01*
G01X-3646798Y-302240D01*
G03X-3619500Y-305740I27298J104704D01*
G01X-3607664Y-305740D01*
G01X-3607664Y-714166D01*
G03X-3625913Y-750203I26454J-36036D01*
G01X-3625913Y-1020202D01*
G03X-3607664Y-1056239I44704J0D01*
G01X-3607664Y-1079740D01*
G01X-4264059Y-590296D02*
G03X-4438904Y-698500I-53941J-108204D01*
G03X-4264059Y-806704I120904J0D01*
G01X-4150713Y-806704D01*
G03X-4042509Y-698500I0J108204D01*
G01X-4042509Y-401709D01*
G01X-3885714Y-401709D01*
G03X-3841010Y-357005I0J44704D01*
G01X-3841010Y-157005D01*
G03X-3885714Y-112301I-44704J0D01*
G01X-4415713Y-112301D01*
G03X-4460417Y-157005I0J-44704D01*
G01X-4460417Y-357005D01*
G03X-4415713Y-401709I44704J0D01*
G01X-4258917Y-401709D01*
G01X-4258917Y-590296D01*
G01X-4264059Y-590296D01*
G01X-4438904Y-1485900D02*
G03X-4197096Y-1485900I120904J0D01*
G03X-4438904Y-1485900I-120904J0D01*
G01X-4241800Y-1886204D02*
G03X-4197096Y-1841500I0J44704D01*
G01X-4197096Y-1739900D01*
G03X-4241800Y-1695196I-44704J0D01*
G01X-4394200Y-1695196D01*
G03X-4438904Y-1739900I0J-44704D01*
G01X-4438904Y-1841500D01*
G03X-4394200Y-1886204I44704J0D01*
G01X-4241800Y-1886204D01*
G01X-3702304Y-2199996D02*
G01X-3702304Y-2247595D01*
G03X-3460496Y-2247595I120904J0D01*
G01X-3460496Y-2199996D01*
G03X-3702304Y-2199996I-120904J0D01*
G01X-3448304Y-1410005D02*
G01X-3448304Y-1457604D01*
G03X-3206496Y-1457604I120904J0D01*
G01X-3206496Y-1410005D01*
G03X-3448304Y-1410005I-120904J0D01*
G01X-3200450Y-1276604D02*
G03X-3120561Y-1064906I50J120904D01*
G01X-3114230Y-1064906D01*
G03X-3069526Y-1020202I0J44704D01*
G01X-3069526Y-750203D01*
G03X-3114230Y-705499I-44704J0D01*
G01X-3277730Y-705499D01*
G03X-3322434Y-750203I0J-44704D01*
G01X-3322434Y-1020202D01*
G03X-3280164Y-1064840I44704J0D01*
G03X-3200450Y-1276604I79764J-90860D01*
G01X-2927604Y-1356063D02*
G03X-2940304Y-1410005I108204J-53941D01*
G01X-2940304Y-1457604D01*
G03X-2698496Y-1457604I120904J0D01*
G01X-2698496Y-1410005D01*
G03X-2711196Y-1356063I-120904J0D01*
G01X-2711196Y-1077219D01*
G03X-2676945Y-1033755I-10453J43465D01*
G01X-2676945Y-913003D01*
G03X-2721649Y-868299I-44704J0D01*
G01X-2780886Y-868299D01*
G03X-2832514Y-868299I-25814J-105080D01*
G01X-2891751Y-868299D01*
G03X-2936455Y-913003I0J-44704D01*
G01X-2936455Y-1033755D01*
G03X-2927604Y-1060456I44704J0D01*
G01X-2927604Y-1356063D01*
G01X-2132703Y-1936707D02*
G03X-2087999Y-1892003I0J44704D01*
G01X-2087999Y-1771251D01*
G03X-2132703Y-1726547I-44704J0D01*
G01X-2302805Y-1726547D01*
G03X-2347509Y-1771251I0J-44704D01*
G01X-2347509Y-1892003D01*
G03X-2302805Y-1936707I44704J0D01*
G01X-2132703Y-1936707D01*
G01X-1064937Y-1549730D02*
G03X-823129Y-1549730I120904J0D01*
G03X-1064937Y-1549730I-120904J0D01*
G01X-781304Y-1549400D02*
G03X-539496Y-1549400I120904J0D01*
G03X-781304Y-1549400I-120904J0D01*
G01X-171697Y-1467693D02*
G03X-215671Y-1431033I-43974J-8044D01*
G01X-485671Y-1431033D01*
G03X-530375Y-1475737I0J-44704D01*
G01X-530375Y-1639237D01*
G03X-485671Y-1683941I44704J0D01*
G01X-215671Y-1683941D01*
G03X-171697Y-1647282I0J44704D01*
G03X-11315Y-1648647I80961J89794D01*
G03X32388Y-1683941I43702J9410D01*
G01X302387Y-1683941D01*
G03X343607Y-1656539I0J44704D01*
G03X539995Y-1563601I75493J94439D01*
G03X345976Y-1465816I-120895J1501D01*
G03X302387Y-1431033I-43589J-9922D01*
G01X32388Y-1431033D01*
G03X-11315Y-1466328I0J-44704D01*
G03X-171697Y-1467693I-79421J-91160D01*
G01X782164Y-1231431D02*
G03X737460Y-1276135I0J-44704D01*
G01X737460Y-1626135D01*
G03X782164Y-1670839I44704J0D01*
G01X902164Y-1670839D01*
G03X946868Y-1626135I0J44704D01*
G01X946868Y-1276135D01*
G03X902164Y-1231431I-44704J0D01*
G01X782164Y-1231431D01*
G01X1314196Y-1485900D02*
G03X1556004Y-1485900I120904J0D01*
G03X1314196Y-1485900I-120904J0D01*
G54D11*
G01X-3277476Y-885203D02*
G01X-3303384Y-885203D01*
G01X-3114484Y-885203D02*
G01X-3088576Y-885203D01*
G01X-3195980Y-750457D02*
G01X-3195980Y-724549D01*
G01X-2217754Y-1891749D02*
G01X-2217754Y-1917657D01*
G01X-2217754Y-1771505D02*
G01X-2217754Y-1745597D01*
G01X-2302551Y-1831627D02*
G01X-2328459Y-1831627D01*
G01X-2132957Y-1831627D02*
G01X-2107049Y-1831627D01*
G01X-4393946Y-1790700D02*
G01X-4419854Y-1790700D01*
G01X-4242054Y-1790700D02*
G01X-4216146Y-1790700D01*
G01X-4318000Y-1740154D02*
G01X-4318000Y-1714246D01*
G01X-4318000Y-1841246D02*
G01X-4318000Y-1867154D01*
G01X-3242536Y-197536D02*
G01X-3268444Y-197536D01*
G01X-3067790Y-137790D02*
G01X-3067790Y-111882D01*
G01X-3067790Y-257282D02*
G01X-3067790Y-283190D01*
G01X-350671Y-1638983D02*
G01X-350671Y-1664891D01*
G01X-350671Y-1475991D02*
G01X-350671Y-1450083D01*
G01X-485417Y-1557487D02*
G01X-511325Y-1557487D01*
G01X167387Y-1638983D02*
G01X167387Y-1664891D01*
G01X167387Y-1475991D02*
G01X167387Y-1450083D01*
G01X842164Y-1276389D02*
G01X842164Y-1250481D01*
G01X842164Y-1625881D02*
G01X842164Y-1651789D01*
G01X901910Y-1451135D02*
G01X927818Y-1451135D01*
G01X782418Y-1451135D02*
G01X756510Y-1451135D01*
G01X-1295400Y-1287984D02*
G01X-1295400Y-1262076D01*
G01X-1130654Y-1422730D02*
G01X-1104746Y-1422730D01*
G01X-1460146Y-1422730D02*
G01X-1486054Y-1422730D01*
G01X-4393946Y-1485900D02*
G01X-4419854Y-1485900D01*
G01X-4242054Y-1485900D02*
G01X-4216146Y-1485900D01*
G01X-4318000Y-1409954D02*
G01X-4318000Y-1384046D01*
G01X-4318000Y-1561846D02*
G01X-4318000Y-1587754D01*
G01X-3276346Y-1155700D02*
G01X-3302254Y-1155700D01*
G01X-3124454Y-1155700D02*
G01X-3098546Y-1155700D01*
G01X-3200400Y-1231646D02*
G01X-3200400Y-1257554D01*
G01X-2895346Y-2223795D02*
G01X-2921254Y-2223795D01*
G01X-2743454Y-2223795D02*
G01X-2717546Y-2223795D01*
G01X-2819400Y-2124050D02*
G01X-2819400Y-2098142D01*
G01X-1511300Y-1473454D02*
G01X-1511300Y-1447546D01*
G01X-1511300Y-1625346D02*
G01X-1511300Y-1651254D01*
G01X-1227667Y-1625676D02*
G01X-1227667Y-1651584D01*
G01X-1019979Y-1549730D02*
G01X-1045887Y-1549730D01*
G01X-868087Y-1549730D02*
G01X-842179Y-1549730D01*
G01X-944033Y-1473784D02*
G01X-944033Y-1447876D01*
G01X-944033Y-1625676D02*
G01X-944033Y-1651584D01*
G01X-736346Y-1549400D02*
G01X-762254Y-1549400D01*
G01X-584454Y-1549400D02*
G01X-558546Y-1549400D01*
G01X-660400Y-1473454D02*
G01X-660400Y-1447546D01*
G01X-660400Y-1625346D02*
G01X-660400Y-1651254D01*
G01X-90736Y-1481541D02*
G01X-90736Y-1455633D01*
G01X-90736Y-1633433D02*
G01X-90736Y-1659341D01*
G01X495046Y-1562100D02*
G01X520954Y-1562100D01*
G01X419100Y-1486154D02*
G01X419100Y-1460246D01*
G01X419100Y-1638046D02*
G01X419100Y-1663954D01*
G01X1359154Y-1485900D02*
G01X1333246Y-1485900D01*
G01X1435100Y-1409954D02*
G01X1435100Y-1384046D01*
G01X1435100Y-1561846D02*
G01X1435100Y-1587754D01*
G01X-3277476Y-885203D02*
G01X-3303384Y-885203D01*
G01X-3114484Y-885203D02*
G01X-3088576Y-885203D01*
G01X-3195980Y-750457D02*
G01X-3195980Y-724549D01*
G01X-3242536Y-197536D02*
G01X-3268444Y-197536D01*
G01X-3067790Y-137790D02*
G01X-3067790Y-111882D01*
G01X-3067790Y-257282D02*
G01X-3067790Y-283190D01*
G01X-2217754Y-1891749D02*
G01X-2217754Y-1917657D01*
G01X-2217754Y-1771505D02*
G01X-2217754Y-1745597D01*
G01X-2302551Y-1831627D02*
G01X-2328459Y-1831627D01*
G01X-2132957Y-1831627D02*
G01X-2107049Y-1831627D01*
G01X-4393946Y-1790700D02*
G01X-4419854Y-1790700D01*
G01X-4242054Y-1790700D02*
G01X-4216146Y-1790700D01*
G01X-4318000Y-1740154D02*
G01X-4318000Y-1714246D01*
G01X-4318000Y-1841246D02*
G01X-4318000Y-1867154D01*
G01X167387Y-1638983D02*
G01X167387Y-1664891D01*
G01X167387Y-1475991D02*
G01X167387Y-1450083D01*
G01X842164Y-1276389D02*
G01X842164Y-1250481D01*
G01X842164Y-1625881D02*
G01X842164Y-1651789D01*
G01X901910Y-1451135D02*
G01X927818Y-1451135D01*
G01X782418Y-1451135D02*
G01X756510Y-1451135D01*
G01X-1295400Y-1287984D02*
G01X-1295400Y-1262076D01*
G01X-1130654Y-1422730D02*
G01X-1104746Y-1422730D01*
G01X-1460146Y-1422730D02*
G01X-1486054Y-1422730D01*
G01X-350671Y-1638983D02*
G01X-350671Y-1664891D01*
G01X-350671Y-1475991D02*
G01X-350671Y-1450083D01*
G01X-485417Y-1557487D02*
G01X-511325Y-1557487D01*
G01X-4393946Y-1485900D02*
G01X-4419854Y-1485900D01*
G01X-4242054Y-1485900D02*
G01X-4216146Y-1485900D01*
G01X-4318000Y-1409954D02*
G01X-4318000Y-1384046D01*
G01X-4318000Y-1561846D02*
G01X-4318000Y-1587754D01*
G01X-3276346Y-1155700D02*
G01X-3302254Y-1155700D01*
G01X-3124454Y-1155700D02*
G01X-3098546Y-1155700D01*
G01X-3200400Y-1231646D02*
G01X-3200400Y-1257554D01*
G01X-2895346Y-2223795D02*
G01X-2921254Y-2223795D01*
G01X-2743454Y-2223795D02*
G01X-2717546Y-2223795D01*
G01X-2819400Y-2124050D02*
G01X-2819400Y-2098142D01*
G01X-1511300Y-1473454D02*
G01X-1511300Y-1447546D01*
G01X-1511300Y-1625346D02*
G01X-1511300Y-1651254D01*
G01X-1227667Y-1625676D02*
G01X-1227667Y-1651584D01*
G01X-1019979Y-1549730D02*
G01X-1045887Y-1549730D01*
G01X-868087Y-1549730D02*
G01X-842179Y-1549730D01*
G01X-944033Y-1473784D02*
G01X-944033Y-1447876D01*
G01X-944033Y-1625676D02*
G01X-944033Y-1651584D01*
G01X-736346Y-1549400D02*
G01X-762254Y-1549400D01*
G01X-584454Y-1549400D02*
G01X-558546Y-1549400D01*
G01X-660400Y-1473454D02*
G01X-660400Y-1447546D01*
G01X-660400Y-1625346D02*
G01X-660400Y-1651254D01*
G01X-90736Y-1481541D02*
G01X-90736Y-1455633D01*
G01X-90736Y-1633433D02*
G01X-90736Y-1659341D01*
G01X495046Y-1562100D02*
G01X520954Y-1562100D01*
G01X419100Y-1486154D02*
G01X419100Y-1460246D01*
G01X419100Y-1638046D02*
G01X419100Y-1663954D01*
G01X1359154Y-1485900D02*
G01X1333246Y-1485900D01*
G01X1511046Y-1485900D02*
G01X1536954Y-1485900D01*
G01X1435100Y-1409954D02*
G01X1435100Y-1384046D01*
G01X1435100Y-1561846D02*
G01X1435100Y-1587754D01*
G04 Copper End*

G04 Pad Start*
G54D12*
G01X1435100Y-698500D03*
G01X1435100Y-1485900D03*
G01X-4318000Y-698500D03*
G01X-4318000Y-1485900D03*
G01X-3200400Y-1155700D03*
G01X419100Y-1562100D03*
G01X-660400Y-1549400D03*
G01X-90736Y-1557487D03*
G54D13*
G01X-4318000Y-2032000D03*
G01X-4318000Y-1790700D03*
G54D12*
G01X-4318000Y-1104900D03*
G01X-944033Y-1549730D03*
G01X-1227667Y-1549730D03*
G54D13*
G01X-1244600Y-2349500D03*
G54D12*
G01X-1511300Y-1549400D03*
G54D14*
G01X842164Y-917125D03*
G01X842164Y-1451135D03*
G54D15*
G01X167387Y-1254008D03*
G01X167387Y-1557487D03*
G01X-350671Y-1254008D03*
G01X-350671Y-1557487D03*
G54D16*
G01X-3601800Y-197536D03*
G01X-3067790Y-197536D03*
G54D17*
G01X-3195980Y-885203D03*
G01X-3499460Y-885203D03*
G54D18*
G01X-2043100Y-527304D03*
G01X-2043100Y-717296D03*
G01X-1843100Y-622300D03*
G54D20*
G01X-3581400Y-2223795D03*
G01X-3581400Y-1433805D03*
G01X-3327400Y-2223795D03*
G01X-3327400Y-1433805D03*
G01X-3073400Y-2223795D03*
G01X-3073400Y-1433805D03*
G01X-2819400Y-2223795D03*
G01X-2819400Y-1433805D03*
G54D21*
G01X-2217754Y-1831627D03*
G01X-2217754Y-2127385D03*
G54D22*
G01X-2039089Y-112080D03*
G01X-2334847Y-112080D03*
G54D21*
G01X-1716518Y-2127385D03*
G01X-1716518Y-1831627D03*
G01X-2806700Y-677621D03*
G01X-2806700Y-973379D03*
G54D23*
G01X151367Y-418407D03*
G01X-828631Y-418407D03*
G54D24*
G01X-4150713Y402989D03*
G01X-4150713Y-257005D03*
G54D21*
G01X-4015768Y-2223907D03*
G01X-4015768Y-1928150D03*
G54D25*
G01X-1295400Y-1422730D03*
G01X-1295400Y-685470D03*
G04 Pad End*

G04 Via Start*
G54D26*
G01X-2781300Y228600D03*
G01X-2781300Y-139700D03*
G01X-3326090Y-1786095D03*
G01X-4019550Y-971550D03*
G01X-4019550Y44450D03*
G01X-3511550Y552450D03*
G01X-3003550Y-971550D03*
G01X-3003550Y-463550D03*
G01X-3003550Y552450D03*
G01X-3003550Y-1987550D03*
G01X-2495550Y-1479550D03*
G01X-2495550Y-971550D03*
G01X-2495550Y-463550D03*
G01X-2495550Y552450D03*
G01X-2495550Y-1987550D03*
G01X-1987550Y-1479550D03*
G01X-1987550Y-971550D03*
G01X-1987550Y552450D03*
G01X-1479550Y-463550D03*
G01X-1479550Y44450D03*
G01X-1479550Y552450D03*
G01X-971550Y44450D03*
G01X-971550Y552450D03*
G01X-971550Y-1987550D03*
G01X-463550Y-463550D03*
G01X-463550Y44450D03*
G01X-463550Y552450D03*
G01X-463550Y-1987550D03*
G01X44450Y44450D03*
G01X44450Y552450D03*
G01X44450Y-1987550D03*
G01X552450Y-463550D03*
G01X552450Y44450D03*
G01X552450Y552450D03*
G01X552450Y-1987550D03*
G01X552450Y-1479550D03*
G01X1060450Y-463550D03*
G01X1060450Y44450D03*
G01X1060450Y552450D03*
G01X1060450Y-1987550D03*
G01X1060450Y-1479550D03*
G04 Via End*

G04 Track Start*
G54D27*
G01X-2042848Y2220D02*
G01X-2042848Y-468048D01*
G01X-3622131Y402989D02*
G01X-3622132Y-145323D01*
G01X-3499460Y-197536D02*
G01X-3499460Y-885203D01*
G01X-2530057Y-92716D02*
G01X-2657056Y34284D01*
G01X-2350452Y-92715D02*
G01X-2530057Y-92716D01*
G01X-2341568Y-723977D02*
G01X-2341568Y-101600D01*
G01X842164Y-1485900D02*
G01X1447800Y-1485900D01*
G01X-2819400Y-1835386D02*
G01X-2217754Y-1835386D01*
G01X-3200400Y-509751D02*
G01X-3067789Y-377140D01*
G01X842162Y-917125D02*
G01X482600Y-917125D01*
G01X482600Y-1257300D01*
G01X254000Y-1257300D02*
G01X228600Y-1231900D01*
G01X-4150713Y-698500D02*
G01X-4318000Y-698500D01*
G01X-4150713Y-257005D02*
G01X-4150713Y-698500D01*
G01X-4150713Y402989D02*
G01X-3622131Y402989D01*
G01X-3622132Y-145323D02*
G01X-3601800Y-165655D01*
G01X-3601800Y-197536D02*
G01X-3619500Y-197536D01*
G01X-2043100Y-468300D02*
G01X-2043100Y-527304D01*
G01X-2042848Y-468048D02*
G01X-2043100Y-468300D01*
G01X151367Y-1254008D02*
G01X167387Y-1254008D01*
G01X151367Y-481907D02*
G01X151367Y-1254008D01*
G01X-2806700Y-677621D02*
G01X-2781300Y-652221D01*
G01X-2781300Y-139700D01*
G01X-2806700Y-1020420D02*
G01X-2806700Y-973379D01*
G01X-2819400Y-1033120D02*
G01X-2806700Y-1020420D01*
G01X-2819400Y-2223795D02*
G01X-2819400Y-1835386D01*
G01X1435100Y-917125D02*
G01X842164Y-917125D01*
G01X842164Y-1485900D02*
G01X842164Y-1451135D01*
G01X842164Y-1557487D02*
G01X842164Y-1485900D01*
G01X482600Y-1257300D02*
G01X254000Y-1257300D01*
G01X1435100Y-698500D02*
G01X1435100Y-917125D01*
G01X-3200400Y-880783D02*
G01X-3200400Y-509751D01*
G01X-2269228Y228600D02*
G01X-2042848Y2220D01*
G01X-2781300Y228600D02*
G01X-2269228Y228600D01*
G01X-2341568Y-101600D02*
G01X-2350452Y-92715D01*
G01X-3601800Y-197536D02*
G01X-3524860Y-197536D01*
G01X-3067789Y-377140D02*
G01X-3067789Y-197536D01*
G01X-350672Y-1557487D02*
G01X-358760Y-1549400D01*
G01X-660400Y-1549400D01*
G01X-2819400Y-1433805D02*
G01X-2819400Y-1033120D01*
G01X-90736Y-1557487D02*
G01X167387Y-1557487D01*
G01X-3601800Y-165655D02*
G01X-3601800Y-197536D01*
G01X-3619500Y-197536D02*
G01X-3601800Y-165655D01*
G01X-3195980Y-885203D02*
G01X-3200400Y-880783D01*
G01X-3581400Y-1206500D02*
G01X-3581400Y-1433805D01*
G01X-3499460Y-1124560D02*
G01X-3581400Y-1206500D01*
G01X-3499460Y-885203D02*
G01X-3499460Y-1124560D01*
G01X-2049767Y-723963D02*
G01X-2341568Y-723977D01*
G01X-3195980Y-1151280D02*
G01X-3195980Y-885203D01*
G01X-3200400Y-1155700D02*
G01X-3195980Y-1151280D01*
G01X-1843100Y-622300D02*
G01X-1384300Y-622300D01*
G01X-828631Y-622300D01*
G01X-828631Y-418407D01*
G01X-660400Y-1549400D02*
G01X-660400Y-1549730D01*
G01X-1384300Y-622300D02*
G01X-1289215Y-717385D01*
G54D28*
G01X-528471Y-1076208D02*
G01X-1716518Y-1076208D01*
G01X-1716518Y-1831627D01*
G54D27*
G01X-350671Y-1254008D02*
G01X151367Y-1254008D01*
G54D28*
G01X-350671Y-1254007D02*
G01X-528471Y-1076208D01*
G54D27*
G01X-350671Y-1557487D02*
G01X-90736Y-1557487D01*
G01X-660400Y-1549730D02*
G01X-965421Y-1549730D01*
G01X-1273678Y-1549730D01*
G01X-3073400Y-2223795D02*
G01X-3073400Y-2276155D01*
G01X-2923856Y-2425700D01*
G01X-2456329Y-2425700D01*
G01X-2154254Y-2123625D01*
G01X-1716518Y-2123625D01*
G54D29*
G01X-3327400Y-1928150D02*
G01X-3952268Y-1928150D01*
G01X-3327400Y-2223795D02*
G01X-3327400Y-1928150D01*
G54D27*
G01X-3596731Y34284D02*
G01X-2657056Y34284D01*
G01X-2341568Y-101600D02*
G01X-2331088Y-112080D01*
G01X167387Y-1557487D02*
G01X842164Y-1557487D01*
G54D29*
G01X-4318000Y-1790700D02*
G01X-4318000Y-1485900D01*
G01X-3086100Y-1446505D02*
G01X-3086100Y-1676400D01*
G01X-4102100Y-1676400D01*
G01X-3073400Y-1433805D02*
G01X-3086100Y-1446505D01*
G01X-4102100Y-1676400D02*
G01X-4102100Y-1104900D01*
G01X-4318000Y-1104900D01*
G01X-4014361Y-2236607D02*
G01X-4014361Y-2225314D01*
G01X-4015768Y-2223907D01*
G01X-4318000Y-2019300D02*
G01X-4305300Y-2032000D01*
G01X-4218968Y-2032000D01*
G01X-4014361Y-2236607D01*
G54D10*
G01X-3326090Y-1786095D02*
G01X-2959100Y-1786095D01*
G01X-2959100Y-1651000D01*
G01X-1981200Y-1651000D01*
G01X-1981200Y-1981200D01*
G01X-1244600Y-1981200D01*
G01X-1244600Y-2349500D01*
G54D27*
G01X-1273678Y-1549730D02*
G01X-1510970Y-1549730D01*
G01X-1511300Y-1549400D01*
G04 Track End*

M02*

