G04 Layer: BottomLayer*
G04 EasyEDA Pro v2.2.45.4, 2025-12-20 17:50:56*
G04 Gerber Generator version 0.3*
G04 Scale: 100 percent, Rotated: No, Reflected: No*
G04 Dimensions in millimeters*
G04 Leading zeros omitted, absolute positions, 4 integers and 5 decimals*
G04 Generated by one-click*
%FSLAX45Y45*%
%MOMM*%
%ADD10C,0.381*%
%ADD11C,0.254*%
%ADD12C,1.524*%
%ADD13O,1.524X2.0*%
%ADD14C,0.61*%
%ADD15C,1.27*%
%ADD16C,0.6431*%
%ADD17C,0.635*%
G75*


G04 Copper Start*
G36*
G01X1562100Y361950D02*
G01X1562100Y-2266950D01*
G01X1560090Y-2297617D01*
G01X1554094Y-2327760D01*
G01X1544215Y-2356861D01*
G01X1530623Y-2384425D01*
G01X1513548Y-2409978D01*
G01X1493285Y-2433085D01*
G01X1470178Y-2453348D01*
G01X1444625Y-2470423D01*
G01X1417061Y-2484015D01*
G01X1387960Y-2493894D01*
G01X1357817Y-2499890D01*
G01X1327150Y-2501900D01*
G01X-4298950Y-2501900D01*
G01X-4329617Y-2499890D01*
G01X-4359760Y-2493894D01*
G01X-4388861Y-2484015D01*
G01X-4416425Y-2470423D01*
G01X-4441978Y-2453348D01*
G01X-4465085Y-2433085D01*
G01X-4485348Y-2409978D01*
G01X-4502423Y-2384425D01*
G01X-4516015Y-2356861D01*
G01X-4525894Y-2327760D01*
G01X-4531890Y-2297617D01*
G01X-4533900Y-2266950D01*
G01X-4533900Y-2199996D01*
G01X-3702304Y-2199996D01*
G01X-3702304Y-2247595D01*
G01X-3700467Y-2268590D01*
G01X-3695013Y-2288947D01*
G01X-3686106Y-2308047D01*
G01X-3674018Y-2325311D01*
G01X-3659116Y-2340213D01*
G01X-3641852Y-2352301D01*
G01X-3622752Y-2361208D01*
G01X-3602395Y-2366662D01*
G01X-3581400Y-2368499D01*
G01X-3560405Y-2366662D01*
G01X-3540048Y-2361208D01*
G01X-3520948Y-2352301D01*
G01X-3503684Y-2340213D01*
G01X-3488782Y-2325311D01*
G01X-3476694Y-2308047D01*
G01X-3467787Y-2288947D01*
G01X-3462333Y-2268590D01*
G01X-3460496Y-2247595D01*
G01X-3460496Y-2199996D01*
G01X-3448304Y-2199996D01*
G01X-3448304Y-2247595D01*
G01X-3446467Y-2268590D01*
G01X-3441013Y-2288947D01*
G01X-3432106Y-2308047D01*
G01X-3420018Y-2325311D01*
G01X-3405116Y-2340213D01*
G01X-3387852Y-2352301D01*
G01X-3368752Y-2361208D01*
G01X-3348395Y-2366662D01*
G01X-3327400Y-2368499D01*
G01X-3306405Y-2366662D01*
G01X-3286048Y-2361208D01*
G01X-3266948Y-2352301D01*
G01X-3249684Y-2340213D01*
G01X-3234782Y-2325311D01*
G01X-3222694Y-2308047D01*
G01X-3213787Y-2288947D01*
G01X-3208333Y-2268590D01*
G01X-3206496Y-2247595D01*
G01X-3206496Y-2199996D01*
G01X-3194304Y-2199996D01*
G01X-3194304Y-2247595D01*
G01X-3192467Y-2268590D01*
G01X-3187013Y-2288947D01*
G01X-3178106Y-2308047D01*
G01X-3166018Y-2325311D01*
G01X-3151116Y-2340213D01*
G01X-3133852Y-2352301D01*
G01X-3114752Y-2361208D01*
G01X-3094395Y-2366662D01*
G01X-3073400Y-2368499D01*
G01X-3052405Y-2366662D01*
G01X-3032048Y-2361208D01*
G01X-3012948Y-2352301D01*
G01X-2995684Y-2340213D01*
G01X-2980782Y-2325311D01*
G01X-2968694Y-2308047D01*
G01X-2959787Y-2288947D01*
G01X-2954333Y-2268590D01*
G01X-2952496Y-2247595D01*
G01X-2952496Y-2199996D01*
G01X-2940304Y-2199996D01*
G01X-2940304Y-2247595D01*
G01X-2938467Y-2268590D01*
G01X-2933013Y-2288947D01*
G01X-2924106Y-2308047D01*
G01X-2912018Y-2325311D01*
G01X-2897116Y-2340213D01*
G01X-2879852Y-2352301D01*
G01X-2860752Y-2361208D01*
G01X-2840395Y-2366662D01*
G01X-2819400Y-2368499D01*
G01X-2798405Y-2366662D01*
G01X-2778048Y-2361208D01*
G01X-2758948Y-2352301D01*
G01X-2741684Y-2340213D01*
G01X-2726782Y-2325311D01*
G01X-2714694Y-2308047D01*
G01X-2705787Y-2288947D01*
G01X-2700333Y-2268590D01*
G01X-2698496Y-2247595D01*
G01X-2698496Y-2199996D01*
G01X-2700333Y-2179001D01*
G01X-2705787Y-2158644D01*
G01X-2714694Y-2139544D01*
G01X-2726782Y-2122280D01*
G01X-2741684Y-2107378D01*
G01X-2758948Y-2095290D01*
G01X-2778048Y-2086383D01*
G01X-2798405Y-2080928D01*
G01X-2819400Y-2079092D01*
G01X-2840395Y-2080928D01*
G01X-2860752Y-2086383D01*
G01X-2879852Y-2095290D01*
G01X-2897116Y-2107378D01*
G01X-2912018Y-2122280D01*
G01X-2924106Y-2139544D01*
G01X-2933013Y-2158644D01*
G01X-2938467Y-2179001D01*
G01X-2940304Y-2199996D01*
G01X-2940304Y-2199996D01*
G01X-2952496Y-2199996D01*
G01X-2954333Y-2179001D01*
G01X-2959787Y-2158644D01*
G01X-2968694Y-2139544D01*
G01X-2980782Y-2122280D01*
G01X-2995684Y-2107378D01*
G01X-3012948Y-2095290D01*
G01X-3032048Y-2086383D01*
G01X-3052405Y-2080928D01*
G01X-3073400Y-2079092D01*
G01X-3094395Y-2080928D01*
G01X-3114752Y-2086383D01*
G01X-3133852Y-2095290D01*
G01X-3151116Y-2107378D01*
G01X-3166018Y-2122280D01*
G01X-3178106Y-2139544D01*
G01X-3187013Y-2158644D01*
G01X-3192467Y-2179001D01*
G01X-3194304Y-2199996D01*
G01X-3194304Y-2199996D01*
G01X-3206496Y-2199996D01*
G01X-3208333Y-2179001D01*
G01X-3213787Y-2158644D01*
G01X-3222694Y-2139544D01*
G01X-3234782Y-2122280D01*
G01X-3249684Y-2107378D01*
G01X-3266948Y-2095290D01*
G01X-3286048Y-2086383D01*
G01X-3306405Y-2080928D01*
G01X-3327400Y-2079092D01*
G01X-3348395Y-2080928D01*
G01X-3368752Y-2086383D01*
G01X-3387852Y-2095290D01*
G01X-3405116Y-2107378D01*
G01X-3420018Y-2122280D01*
G01X-3432106Y-2139544D01*
G01X-3441013Y-2158644D01*
G01X-3446467Y-2179001D01*
G01X-3448304Y-2199996D01*
G01X-3448304Y-2199996D01*
G01X-3460496Y-2199996D01*
G01X-3462333Y-2179001D01*
G01X-3467787Y-2158644D01*
G01X-3476694Y-2139544D01*
G01X-3488782Y-2122280D01*
G01X-3503684Y-2107378D01*
G01X-3520948Y-2095290D01*
G01X-3540048Y-2086383D01*
G01X-3560405Y-2080928D01*
G01X-3581400Y-2079092D01*
G01X-3602395Y-2080928D01*
G01X-3622752Y-2086383D01*
G01X-3641852Y-2095290D01*
G01X-3659116Y-2107378D01*
G01X-3674018Y-2122280D01*
G01X-3686106Y-2139544D01*
G01X-3695013Y-2158644D01*
G01X-3700467Y-2179001D01*
G01X-3702304Y-2199996D01*
G01X-3702304Y-2199996D01*
G01X-4533900Y-2199996D01*
G01X-4533900Y-1485900D01*
G01X-4438904Y-1485900D01*
G01X-4437067Y-1506895D01*
G01X-4431613Y-1527252D01*
G01X-4422706Y-1546352D01*
G01X-4410618Y-1563616D01*
G01X-4395716Y-1578518D01*
G01X-4378452Y-1590606D01*
G01X-4359352Y-1599513D01*
G01X-4338995Y-1604967D01*
G01X-4318000Y-1606804D01*
G01X-4297005Y-1604967D01*
G01X-4276648Y-1599513D01*
G01X-4257548Y-1590606D01*
G01X-4240284Y-1578518D01*
G01X-4225382Y-1563616D01*
G01X-4213294Y-1546352D01*
G01X-4204387Y-1527252D01*
G01X-4198933Y-1506895D01*
G01X-4197096Y-1485900D01*
G01X-4198933Y-1464905D01*
G01X-4204387Y-1444548D01*
G01X-4213294Y-1425448D01*
G01X-4224108Y-1410005D01*
G01X-3702304Y-1410005D01*
G01X-3702304Y-1457604D01*
G01X-3700467Y-1478599D01*
G01X-3695013Y-1498956D01*
G01X-3686106Y-1518056D01*
G01X-3674018Y-1535320D01*
G01X-3659116Y-1550222D01*
G01X-3641852Y-1562310D01*
G01X-3622752Y-1571217D01*
G01X-3602395Y-1576672D01*
G01X-3581400Y-1578508D01*
G01X-3560405Y-1576672D01*
G01X-3540048Y-1571217D01*
G01X-3520948Y-1562310D01*
G01X-3503684Y-1550222D01*
G01X-3488782Y-1535320D01*
G01X-3476694Y-1518056D01*
G01X-3467787Y-1498956D01*
G01X-3462333Y-1478599D01*
G01X-3460496Y-1457604D01*
G01X-3460496Y-1410005D01*
G01X-3448304Y-1410005D01*
G01X-3448304Y-1457604D01*
G01X-3446350Y-1479253D01*
G01X-3440552Y-1500201D01*
G01X-3431096Y-1519773D01*
G01X-3418289Y-1537335D01*
G01X-3402544Y-1552321D01*
G01X-3402544Y-1786095D01*
G01X-3402544Y-1786095D01*
G01X-3400627Y-1803108D01*
G01X-3394973Y-1819267D01*
G01X-3385864Y-1833763D01*
G01X-3373758Y-1845869D01*
G01X-3359262Y-1854978D01*
G01X-3343103Y-1860632D01*
G01X-3326090Y-1862549D01*
G01X-3309077Y-1860632D01*
G01X-3292918Y-1854978D01*
G01X-3278422Y-1845869D01*
G01X-3266316Y-1833763D01*
G01X-3257207Y-1819267D01*
G01X-3251553Y-1803108D01*
G01X-3249636Y-1786095D01*
G01X-3249636Y-1550182D01*
G01X-3234750Y-1535281D01*
G01X-3222675Y-1518024D01*
G01X-3213779Y-1498932D01*
G01X-3208331Y-1478587D01*
G01X-3206496Y-1457604D01*
G01X-3206496Y-1410005D01*
G01X-3194304Y-1410005D01*
G01X-3194304Y-1457604D01*
G01X-3192467Y-1478599D01*
G01X-3187013Y-1498956D01*
G01X-3178106Y-1518056D01*
G01X-3166018Y-1535320D01*
G01X-3151116Y-1550222D01*
G01X-3133852Y-1562310D01*
G01X-3114752Y-1571217D01*
G01X-3094395Y-1576672D01*
G01X-3073400Y-1578508D01*
G01X-3052405Y-1576672D01*
G01X-3032048Y-1571217D01*
G01X-3012948Y-1562310D01*
G01X-2995684Y-1550222D01*
G01X-2980782Y-1535320D01*
G01X-2968694Y-1518056D01*
G01X-2959787Y-1498956D01*
G01X-2954333Y-1478599D01*
G01X-2952496Y-1457604D01*
G01X-2952496Y-1410005D01*
G01X-2940304Y-1410005D01*
G01X-2940304Y-1457604D01*
G01X-2938467Y-1478599D01*
G01X-2933013Y-1498956D01*
G01X-2924106Y-1518056D01*
G01X-2912018Y-1535320D01*
G01X-2897116Y-1550222D01*
G01X-2879852Y-1562310D01*
G01X-2860752Y-1571217D01*
G01X-2840395Y-1576672D01*
G01X-2819400Y-1578508D01*
G01X-2798405Y-1576672D01*
G01X-2778048Y-1571217D01*
G01X-2758948Y-1562310D01*
G01X-2741684Y-1550222D01*
G01X-2740862Y-1549400D01*
G01X-1632204Y-1549400D01*
G01X-1630367Y-1570395D01*
G01X-1624913Y-1590752D01*
G01X-1616006Y-1609852D01*
G01X-1603918Y-1627116D01*
G01X-1589016Y-1642018D01*
G01X-1571752Y-1654106D01*
G01X-1552652Y-1663013D01*
G01X-1532295Y-1668467D01*
G01X-1511300Y-1670304D01*
G01X-1490305Y-1668467D01*
G01X-1469948Y-1663013D01*
G01X-1450848Y-1654106D01*
G01X-1433584Y-1642018D01*
G01X-1418682Y-1627116D01*
G01X-1406594Y-1609852D01*
G01X-1397687Y-1590752D01*
G01X-1392233Y-1570395D01*
G01X-1390425Y-1549730D01*
G01X-1348571Y-1549730D01*
G01X-1346734Y-1570725D01*
G01X-1341279Y-1591082D01*
G01X-1332373Y-1610182D01*
G01X-1320285Y-1627446D01*
G01X-1305382Y-1642348D01*
G01X-1288119Y-1654436D01*
G01X-1269018Y-1663343D01*
G01X-1248661Y-1668797D01*
G01X-1227667Y-1670634D01*
G01X-1206672Y-1668797D01*
G01X-1186315Y-1663343D01*
G01X-1167215Y-1654436D01*
G01X-1149951Y-1642348D01*
G01X-1135049Y-1627446D01*
G01X-1122961Y-1610182D01*
G01X-1114054Y-1591082D01*
G01X-1108599Y-1570725D01*
G01X-1106763Y-1549730D01*
G01X-1064937Y-1549730D01*
G01X-1063101Y-1570725D01*
G01X-1057646Y-1591082D01*
G01X-1048739Y-1610182D01*
G01X-1036651Y-1627446D01*
G01X-1021749Y-1642348D01*
G01X-1004485Y-1654436D01*
G01X-985385Y-1663343D01*
G01X-965028Y-1668797D01*
G01X-944033Y-1670634D01*
G01X-923039Y-1668797D01*
G01X-902682Y-1663343D01*
G01X-883581Y-1654436D01*
G01X-866318Y-1642348D01*
G01X-851415Y-1627446D01*
G01X-839327Y-1610182D01*
G01X-830421Y-1591082D01*
G01X-824966Y-1570725D01*
G01X-823129Y-1549730D01*
G01X-823158Y-1549400D01*
G01X-781304Y-1549400D01*
G01X-779467Y-1570395D01*
G01X-774013Y-1590752D01*
G01X-765106Y-1609852D01*
G01X-753018Y-1627116D01*
G01X-738116Y-1642018D01*
G01X-720852Y-1654106D01*
G01X-701752Y-1663013D01*
G01X-681395Y-1668467D01*
G01X-660400Y-1670304D01*
G01X-639405Y-1668467D01*
G01X-619048Y-1663013D01*
G01X-599948Y-1654106D01*
G01X-582684Y-1642018D01*
G01X-567782Y-1627116D01*
G01X-555694Y-1609852D01*
G01X-546787Y-1590752D01*
G01X-541333Y-1570395D01*
G01X-540204Y-1557487D01*
G01X-211640Y-1557487D01*
G01X-209803Y-1578482D01*
G01X-204348Y-1598839D01*
G01X-195442Y-1617939D01*
G01X-183353Y-1635203D01*
G01X-168451Y-1650105D01*
G01X-151188Y-1662193D01*
G01X-132087Y-1671100D01*
G01X-111730Y-1676555D01*
G01X-90736Y-1678391D01*
G01X-69741Y-1676555D01*
G01X-49384Y-1671100D01*
G01X-30284Y-1662193D01*
G01X-13020Y-1650105D01*
G01X1882Y-1635203D01*
G01X13970Y-1617939D01*
G01X22877Y-1598839D01*
G01X28332Y-1578482D01*
G01X29765Y-1562100D01*
G01X298196Y-1562100D01*
G01X300033Y-1583095D01*
G01X305487Y-1603452D01*
G01X314394Y-1622552D01*
G01X326482Y-1639816D01*
G01X341384Y-1654718D01*
G01X358648Y-1666806D01*
G01X377748Y-1675713D01*
G01X398105Y-1681167D01*
G01X419100Y-1683004D01*
G01X440095Y-1681167D01*
G01X460452Y-1675713D01*
G01X479552Y-1666806D01*
G01X496816Y-1654718D01*
G01X511718Y-1639816D01*
G01X523806Y-1622552D01*
G01X532713Y-1603452D01*
G01X538167Y-1583095D01*
G01X540004Y-1562100D01*
G01X538167Y-1541105D01*
G01X532713Y-1520748D01*
G01X523806Y-1501648D01*
G01X512779Y-1485900D01*
G01X1314196Y-1485900D01*
G01X1316033Y-1506895D01*
G01X1321487Y-1527252D01*
G01X1330394Y-1546352D01*
G01X1342482Y-1563616D01*
G01X1357384Y-1578518D01*
G01X1374648Y-1590606D01*
G01X1393748Y-1599513D01*
G01X1414105Y-1604967D01*
G01X1435100Y-1606804D01*
G01X1456095Y-1604967D01*
G01X1476452Y-1599513D01*
G01X1495552Y-1590606D01*
G01X1512816Y-1578518D01*
G01X1527718Y-1563616D01*
G01X1539806Y-1546352D01*
G01X1548713Y-1527252D01*
G01X1554167Y-1506895D01*
G01X1556004Y-1485900D01*
G01X1554167Y-1464905D01*
G01X1548713Y-1444548D01*
G01X1539806Y-1425448D01*
G01X1527718Y-1408184D01*
G01X1512816Y-1393282D01*
G01X1495552Y-1381194D01*
G01X1476452Y-1372287D01*
G01X1456095Y-1366833D01*
G01X1435100Y-1364996D01*
G01X1414105Y-1366833D01*
G01X1393748Y-1372287D01*
G01X1374648Y-1381194D01*
G01X1357384Y-1393282D01*
G01X1342482Y-1408184D01*
G01X1330394Y-1425448D01*
G01X1321487Y-1444548D01*
G01X1316033Y-1464905D01*
G01X1314196Y-1485900D01*
G01X1314196Y-1485900D01*
G01X512779Y-1485900D01*
G01X511718Y-1484384D01*
G01X496816Y-1469482D01*
G01X479552Y-1457394D01*
G01X460452Y-1448487D01*
G01X440095Y-1443033D01*
G01X419100Y-1441196D01*
G01X398105Y-1443033D01*
G01X377748Y-1448487D01*
G01X358648Y-1457394D01*
G01X341384Y-1469482D01*
G01X326482Y-1484384D01*
G01X314394Y-1501648D01*
G01X305487Y-1520748D01*
G01X300033Y-1541105D01*
G01X298196Y-1562100D01*
G01X298196Y-1562100D01*
G01X29765Y-1562100D01*
G01X30168Y-1557487D01*
G01X28332Y-1536493D01*
G01X22877Y-1516136D01*
G01X13970Y-1497035D01*
G01X1882Y-1479772D01*
G01X-13020Y-1464870D01*
G01X-30284Y-1452781D01*
G01X-49384Y-1443875D01*
G01X-69741Y-1438420D01*
G01X-90736Y-1436583D01*
G01X-111730Y-1438420D01*
G01X-132087Y-1443875D01*
G01X-151188Y-1452781D01*
G01X-168451Y-1464870D01*
G01X-183353Y-1479772D01*
G01X-195442Y-1497035D01*
G01X-204348Y-1516136D01*
G01X-209803Y-1536493D01*
G01X-211640Y-1557487D01*
G01X-211640Y-1557487D01*
G01X-540204Y-1557487D01*
G01X-539496Y-1549400D01*
G01X-541333Y-1528405D01*
G01X-546787Y-1508048D01*
G01X-555694Y-1488948D01*
G01X-567782Y-1471684D01*
G01X-582684Y-1456782D01*
G01X-599948Y-1444694D01*
G01X-619048Y-1435787D01*
G01X-639405Y-1430333D01*
G01X-660400Y-1428496D01*
G01X-681395Y-1430333D01*
G01X-701752Y-1435787D01*
G01X-720852Y-1444694D01*
G01X-738116Y-1456782D01*
G01X-753018Y-1471684D01*
G01X-765106Y-1488948D01*
G01X-774013Y-1508048D01*
G01X-779467Y-1528405D01*
G01X-781304Y-1549400D01*
G01X-781304Y-1549400D01*
G01X-823158Y-1549400D01*
G01X-824966Y-1528735D01*
G01X-830421Y-1508379D01*
G01X-839327Y-1489278D01*
G01X-851415Y-1472015D01*
G01X-866318Y-1457112D01*
G01X-883581Y-1445024D01*
G01X-902682Y-1436118D01*
G01X-923039Y-1430663D01*
G01X-944033Y-1428826D01*
G01X-965028Y-1430663D01*
G01X-985385Y-1436118D01*
G01X-1004485Y-1445024D01*
G01X-1021749Y-1457112D01*
G01X-1036651Y-1472015D01*
G01X-1048739Y-1489278D01*
G01X-1057646Y-1508379D01*
G01X-1063101Y-1528735D01*
G01X-1064937Y-1549730D01*
G01X-1064937Y-1549730D01*
G01X-1106763Y-1549730D01*
G01X-1108599Y-1528735D01*
G01X-1114054Y-1508379D01*
G01X-1122961Y-1489278D01*
G01X-1135049Y-1472015D01*
G01X-1149951Y-1457112D01*
G01X-1167215Y-1445024D01*
G01X-1186315Y-1436118D01*
G01X-1206672Y-1430663D01*
G01X-1227667Y-1428826D01*
G01X-1248661Y-1430663D01*
G01X-1269018Y-1436118D01*
G01X-1288119Y-1445024D01*
G01X-1305382Y-1457112D01*
G01X-1320285Y-1472015D01*
G01X-1332373Y-1489278D01*
G01X-1341279Y-1508379D01*
G01X-1346734Y-1528735D01*
G01X-1348571Y-1549730D01*
G01X-1348571Y-1549730D01*
G01X-1390425Y-1549730D01*
G01X-1390396Y-1549400D01*
G01X-1392233Y-1528405D01*
G01X-1397687Y-1508048D01*
G01X-1406594Y-1488948D01*
G01X-1418682Y-1471684D01*
G01X-1433584Y-1456782D01*
G01X-1450848Y-1444694D01*
G01X-1469948Y-1435787D01*
G01X-1490305Y-1430333D01*
G01X-1511300Y-1428496D01*
G01X-1532295Y-1430333D01*
G01X-1552652Y-1435787D01*
G01X-1571752Y-1444694D01*
G01X-1589016Y-1456782D01*
G01X-1603918Y-1471684D01*
G01X-1616006Y-1488948D01*
G01X-1624913Y-1508048D01*
G01X-1630367Y-1528405D01*
G01X-1632204Y-1549400D01*
G01X-1632204Y-1549400D01*
G01X-2740862Y-1549400D01*
G01X-2726782Y-1535320D01*
G01X-2714694Y-1518056D01*
G01X-2705787Y-1498956D01*
G01X-2700333Y-1478599D01*
G01X-2698496Y-1457604D01*
G01X-2698496Y-1410005D01*
G01X-2700333Y-1389010D01*
G01X-2705787Y-1368653D01*
G01X-2714694Y-1349553D01*
G01X-2726782Y-1332289D01*
G01X-2741684Y-1317387D01*
G01X-2758948Y-1305299D01*
G01X-2778048Y-1296392D01*
G01X-2798405Y-1290938D01*
G01X-2819400Y-1289101D01*
G01X-2840395Y-1290938D01*
G01X-2860752Y-1296392D01*
G01X-2879852Y-1305299D01*
G01X-2897116Y-1317387D01*
G01X-2912018Y-1332289D01*
G01X-2924106Y-1349553D01*
G01X-2933013Y-1368653D01*
G01X-2938467Y-1389010D01*
G01X-2940304Y-1410005D01*
G01X-2940304Y-1410005D01*
G01X-2952496Y-1410005D01*
G01X-2954333Y-1389010D01*
G01X-2959787Y-1368653D01*
G01X-2968694Y-1349553D01*
G01X-2980782Y-1332289D01*
G01X-2995684Y-1317387D01*
G01X-3012948Y-1305299D01*
G01X-3032048Y-1296392D01*
G01X-3052405Y-1290938D01*
G01X-3073400Y-1289101D01*
G01X-3094395Y-1290938D01*
G01X-3114752Y-1296392D01*
G01X-3133852Y-1305299D01*
G01X-3151116Y-1317387D01*
G01X-3166018Y-1332289D01*
G01X-3178106Y-1349553D01*
G01X-3187013Y-1368653D01*
G01X-3192467Y-1389010D01*
G01X-3194304Y-1410005D01*
G01X-3194304Y-1410005D01*
G01X-3206496Y-1410005D01*
G01X-3208333Y-1389010D01*
G01X-3213787Y-1368653D01*
G01X-3222694Y-1349553D01*
G01X-3234782Y-1332289D01*
G01X-3249684Y-1317387D01*
G01X-3266948Y-1305299D01*
G01X-3286048Y-1296392D01*
G01X-3306405Y-1290938D01*
G01X-3327400Y-1289101D01*
G01X-3348395Y-1290938D01*
G01X-3368752Y-1296392D01*
G01X-3387852Y-1305299D01*
G01X-3405116Y-1317387D01*
G01X-3420018Y-1332289D01*
G01X-3432106Y-1349553D01*
G01X-3441013Y-1368653D01*
G01X-3446467Y-1389010D01*
G01X-3448304Y-1410005D01*
G01X-3460496Y-1410005D01*
G01X-3462333Y-1389010D01*
G01X-3467787Y-1368653D01*
G01X-3476694Y-1349553D01*
G01X-3488782Y-1332289D01*
G01X-3503684Y-1317387D01*
G01X-3520948Y-1305299D01*
G01X-3540048Y-1296392D01*
G01X-3560405Y-1290938D01*
G01X-3581400Y-1289101D01*
G01X-3602395Y-1290938D01*
G01X-3622752Y-1296392D01*
G01X-3641852Y-1305299D01*
G01X-3659116Y-1317387D01*
G01X-3674018Y-1332289D01*
G01X-3686106Y-1349553D01*
G01X-3695013Y-1368653D01*
G01X-3700467Y-1389010D01*
G01X-3702304Y-1410005D01*
G01X-3702304Y-1410005D01*
G01X-4224108Y-1410005D01*
G01X-4225382Y-1408184D01*
G01X-4240284Y-1393282D01*
G01X-4257548Y-1381194D01*
G01X-4276648Y-1372287D01*
G01X-4297005Y-1366833D01*
G01X-4318000Y-1364996D01*
G01X-4338995Y-1366833D01*
G01X-4359352Y-1372287D01*
G01X-4378452Y-1381194D01*
G01X-4395716Y-1393282D01*
G01X-4410618Y-1408184D01*
G01X-4422706Y-1425448D01*
G01X-4431613Y-1444548D01*
G01X-4437067Y-1464905D01*
G01X-4438904Y-1485900D01*
G01X-4438904Y-1485900D01*
G01X-4533900Y-1485900D01*
G01X-4533900Y-1104900D01*
G01X-4438904Y-1104900D01*
G01X-4437067Y-1125895D01*
G01X-4431613Y-1146252D01*
G01X-4422706Y-1165352D01*
G01X-4410618Y-1182616D01*
G01X-4395716Y-1197518D01*
G01X-4378452Y-1209606D01*
G01X-4359352Y-1218513D01*
G01X-4338995Y-1223967D01*
G01X-4318000Y-1225804D01*
G01X-4297005Y-1223967D01*
G01X-4276648Y-1218513D01*
G01X-4257548Y-1209606D01*
G01X-4240284Y-1197518D01*
G01X-4225382Y-1182616D01*
G01X-4213294Y-1165352D01*
G01X-4208793Y-1155700D01*
G01X-3321304Y-1155700D01*
G01X-3319467Y-1176695D01*
G01X-3314013Y-1197052D01*
G01X-3305106Y-1216152D01*
G01X-3293018Y-1233416D01*
G01X-3278116Y-1248318D01*
G01X-3260852Y-1260406D01*
G01X-3241752Y-1269313D01*
G01X-3221395Y-1274767D01*
G01X-3200400Y-1276604D01*
G01X-3179405Y-1274767D01*
G01X-3159048Y-1269313D01*
G01X-3139948Y-1260406D01*
G01X-3122684Y-1248318D01*
G01X-3107782Y-1233416D01*
G01X-3095694Y-1216152D01*
G01X-3086787Y-1197052D01*
G01X-3081333Y-1176695D01*
G01X-3079496Y-1155700D01*
G01X-3081333Y-1134705D01*
G01X-3086787Y-1114348D01*
G01X-3095694Y-1095248D01*
G01X-3107782Y-1077984D01*
G01X-3122684Y-1063082D01*
G01X-3139948Y-1050994D01*
G01X-3159048Y-1042087D01*
G01X-3179405Y-1036633D01*
G01X-3200400Y-1034796D01*
G01X-3221395Y-1036633D01*
G01X-3241752Y-1042087D01*
G01X-3260852Y-1050994D01*
G01X-3278116Y-1063082D01*
G01X-3293018Y-1077984D01*
G01X-3305106Y-1095248D01*
G01X-3314013Y-1114348D01*
G01X-3319467Y-1134705D01*
G01X-3321304Y-1155700D01*
G01X-3321304Y-1155700D01*
G01X-4208793Y-1155700D01*
G01X-4204387Y-1146252D01*
G01X-4198933Y-1125895D01*
G01X-4197096Y-1104900D01*
G01X-4198933Y-1083905D01*
G01X-4204387Y-1063548D01*
G01X-4213294Y-1044448D01*
G01X-4225382Y-1027184D01*
G01X-4240284Y-1012282D01*
G01X-4257548Y-1000194D01*
G01X-4276648Y-991287D01*
G01X-4297005Y-985833D01*
G01X-4318000Y-983996D01*
G01X-4338995Y-985833D01*
G01X-4359352Y-991287D01*
G01X-4378452Y-1000194D01*
G01X-4395716Y-1012282D01*
G01X-4410618Y-1027184D01*
G01X-4422706Y-1044448D01*
G01X-4431613Y-1063548D01*
G01X-4437067Y-1083905D01*
G01X-4438904Y-1104900D01*
G01X-4438904Y-1104900D01*
G01X-4533900Y-1104900D01*
G01X-4533900Y-698500D01*
G01X-4438904Y-698500D01*
G01X-4437067Y-719495D01*
G01X-4431613Y-739852D01*
G01X-4422706Y-758952D01*
G01X-4410618Y-776216D01*
G01X-4395716Y-791118D01*
G01X-4378452Y-803206D01*
G01X-4359352Y-812113D01*
G01X-4338995Y-817567D01*
G01X-4318000Y-819404D01*
G01X-4297005Y-817567D01*
G01X-4276648Y-812113D01*
G01X-4257548Y-803206D01*
G01X-4240284Y-791118D01*
G01X-4225382Y-776216D01*
G01X-4213294Y-758952D01*
G01X-4204387Y-739852D01*
G01X-4198933Y-719495D01*
G01X-4197096Y-698500D01*
G01X1314196Y-698500D01*
G01X1316033Y-719495D01*
G01X1321487Y-739852D01*
G01X1330394Y-758952D01*
G01X1342482Y-776216D01*
G01X1357384Y-791118D01*
G01X1374648Y-803206D01*
G01X1393748Y-812113D01*
G01X1414105Y-817567D01*
G01X1435100Y-819404D01*
G01X1456095Y-817567D01*
G01X1476452Y-812113D01*
G01X1495552Y-803206D01*
G01X1512816Y-791118D01*
G01X1527718Y-776216D01*
G01X1539806Y-758952D01*
G01X1548713Y-739852D01*
G01X1554167Y-719495D01*
G01X1556004Y-698500D01*
G01X1554167Y-677505D01*
G01X1548713Y-657148D01*
G01X1539806Y-638048D01*
G01X1527718Y-620784D01*
G01X1512816Y-605882D01*
G01X1495552Y-593794D01*
G01X1476452Y-584887D01*
G01X1456095Y-579433D01*
G01X1435100Y-577596D01*
G01X1414105Y-579433D01*
G01X1393748Y-584887D01*
G01X1374648Y-593794D01*
G01X1357384Y-605882D01*
G01X1342482Y-620784D01*
G01X1330394Y-638048D01*
G01X1321487Y-657148D01*
G01X1316033Y-677505D01*
G01X1314196Y-698500D01*
G01X1314196Y-698500D01*
G01X-4197096Y-698500D01*
G01X-4198933Y-677505D01*
G01X-4204387Y-657148D01*
G01X-4213294Y-638048D01*
G01X-4225382Y-620784D01*
G01X-4240284Y-605882D01*
G01X-4257548Y-593794D01*
G01X-4276648Y-584887D01*
G01X-4297005Y-579433D01*
G01X-4318000Y-577596D01*
G01X-4338995Y-579433D01*
G01X-4359352Y-584887D01*
G01X-4378452Y-593794D01*
G01X-4395716Y-605882D01*
G01X-4410618Y-620784D01*
G01X-4422706Y-638048D01*
G01X-4431613Y-657148D01*
G01X-4437067Y-677505D01*
G01X-4438904Y-698500D01*
G01X-4438904Y-698500D01*
G01X-4533900Y-698500D01*
G01X-4533900Y228600D01*
G01X-2889504Y228600D01*
G01X-2889504Y-139700D01*
G01X-2887662Y-159582D01*
G01X-2882197Y-178788D01*
G01X-2873297Y-196662D01*
G01X-2861264Y-212597D01*
G01X-2846507Y-226049D01*
G01X-2829531Y-236560D01*
G01X-2810911Y-243773D01*
G01X-2791284Y-247442D01*
G01X-2771316Y-247442D01*
G01X-2751689Y-243773D01*
G01X-2733069Y-236560D01*
G01X-2716093Y-226049D01*
G01X-2701336Y-212597D01*
G01X-2689303Y-196662D01*
G01X-2680403Y-178788D01*
G01X-2674938Y-159582D01*
G01X-2673096Y-139700D01*
G01X-2673096Y228600D01*
G01X-2674938Y248482D01*
G01X-2680403Y267688D01*
G01X-2689303Y285562D01*
G01X-2701336Y301497D01*
G01X-2716093Y314949D01*
G01X-2733069Y325460D01*
G01X-2751689Y332673D01*
G01X-2771316Y336342D01*
G01X-2791284Y336342D01*
G01X-2810911Y332673D01*
G01X-2829531Y325460D01*
G01X-2846507Y314949D01*
G01X-2861264Y301497D01*
G01X-2873297Y285562D01*
G01X-2882197Y267688D01*
G01X-2887662Y248482D01*
G01X-2889504Y228600D01*
G01X-2889504Y228600D01*
G01X-4533900Y228600D01*
G01X-4533900Y361950D01*
G01X-4531890Y392617D01*
G01X-4525894Y422760D01*
G01X-4516015Y451861D01*
G01X-4502423Y479425D01*
G01X-4485348Y504978D01*
G01X-4465085Y528085D01*
G01X-4441978Y548348D01*
G01X-4416425Y565423D01*
G01X-4388861Y579015D01*
G01X-4359760Y588894D01*
G01X-4329617Y594890D01*
G01X-4298950Y596900D01*
G01X1327150Y596900D01*
G01X1357817Y594890D01*
G01X1387960Y588894D01*
G01X1417061Y579015D01*
G01X1444625Y565423D01*
G01X1470178Y548348D01*
G01X1493285Y528085D01*
G01X1513548Y504978D01*
G01X1530623Y479425D01*
G01X1544215Y451861D01*
G01X1554094Y422760D01*
G01X1560090Y392617D01*
G01X1562100Y361950D01*
G37*
G54D10*
G01X1562100Y361950D02*
G01X1562100Y-2266950D01*
G02X1327150Y-2501900I-234950J0D01*
G01X-4298950Y-2501900D01*
G02X-4533900Y-2266950I0J234950D01*
G01X-4533900Y361950D01*
G02X-4298950Y596900I234950J0D01*
G01X1327150Y596900D01*
G02X1562100Y361950I0J-234950D01*
G01X-4438904Y-698500D02*
G03X-4197096Y-698500I120904J0D01*
G03X-4438904Y-698500I-120904J0D01*
G01X-4438904Y-1104900D02*
G03X-4197096Y-1104900I120904J0D01*
G03X-4438904Y-1104900I-120904J0D01*
G01X-4438904Y-1485900D02*
G03X-4197096Y-1485900I120904J0D01*
G03X-4438904Y-1485900I-120904J0D01*
G01X-3702304Y-2199996D02*
G01X-3702304Y-2247595D01*
G03X-3460496Y-2247595I120904J0D01*
G01X-3460496Y-2199996D01*
G03X-3702304Y-2199996I-120904J0D01*
G01X-3702304Y-1410005D02*
G01X-3702304Y-1457604D01*
G03X-3460496Y-1457604I120904J0D01*
G01X-3460496Y-1410005D01*
G03X-3702304Y-1410005I-120904J0D01*
G01X-3448304Y-2199996D02*
G01X-3448304Y-2247595D01*
G03X-3206496Y-2247595I120904J0D01*
G01X-3206496Y-2199996D01*
G03X-3448304Y-2199996I-120904J0D01*
G01X-3402544Y-1786095D02*
G03X-3249636Y-1786095I76454J0D01*
G01X-3249636Y-1550182D01*
G03X-3206496Y-1457604I-77764J92577D01*
G01X-3206496Y-1410005D01*
G03X-3448304Y-1410005I-120904J0D01*
G01X-3448304Y-1457604D01*
G03X-3402544Y-1552321I120904J0D01*
G01X-3402544Y-1786095D01*
G01X-3321304Y-1155700D02*
G03X-3079496Y-1155700I120904J0D01*
G03X-3321304Y-1155700I-120904J0D01*
G01X-3194304Y-2199996D02*
G01X-3194304Y-2247595D01*
G03X-2952496Y-2247595I120904J0D01*
G01X-2952496Y-2199996D01*
G03X-3194304Y-2199996I-120904J0D01*
G01X-3194304Y-1410005D02*
G01X-3194304Y-1457604D01*
G03X-2952496Y-1457604I120904J0D01*
G01X-2952496Y-1410005D01*
G03X-3194304Y-1410005I-120904J0D01*
G01X-2940304Y-2199996D02*
G01X-2940304Y-2247595D01*
G03X-2698496Y-2247595I120904J0D01*
G01X-2698496Y-2199996D01*
G03X-2940304Y-2199996I-120904J0D01*
G01X-2940304Y-1410005D02*
G01X-2940304Y-1457604D01*
G03X-2698496Y-1457604I120904J0D01*
G01X-2698496Y-1410005D01*
G03X-2940304Y-1410005I-120904J0D01*
G01X-2889504Y228600D02*
G01X-2889504Y-139700D01*
G03X-2673096Y-139700I108204J0D01*
G01X-2673096Y228600D01*
G03X-2889504Y228600I-108204J0D01*
G01X-1632204Y-1549400D02*
G03X-1390396Y-1549400I120904J0D01*
G03X-1632204Y-1549400I-120904J0D01*
G01X-1348571Y-1549730D02*
G03X-1106763Y-1549730I120904J0D01*
G03X-1348571Y-1549730I-120904J0D01*
G01X-1064937Y-1549730D02*
G03X-823129Y-1549730I120904J0D01*
G03X-1064937Y-1549730I-120904J0D01*
G01X-781304Y-1549400D02*
G03X-539496Y-1549400I120904J0D01*
G03X-781304Y-1549400I-120904J0D01*
G01X-211640Y-1557487D02*
G03X30168Y-1557487I120904J0D01*
G03X-211640Y-1557487I-120904J0D01*
G01X298196Y-1562100D02*
G03X540004Y-1562100I120904J0D01*
G03X298196Y-1562100I-120904J0D01*
G01X1314196Y-698500D02*
G03X1556004Y-698500I120904J0D01*
G03X1314196Y-698500I-120904J0D01*
G01X1314196Y-1485900D02*
G03X1556004Y-1485900I120904J0D01*
G03X1314196Y-1485900I-120904J0D01*
G54D11*
G01X-4393946Y-1485900D02*
G01X-4419854Y-1485900D01*
G01X-4242054Y-1485900D02*
G01X-4216146Y-1485900D01*
G01X-4318000Y-1409954D02*
G01X-4318000Y-1384046D01*
G01X-4318000Y-1561846D02*
G01X-4318000Y-1587754D01*
G01X-3276346Y-1155700D02*
G01X-3302254Y-1155700D01*
G01X-3124454Y-1155700D02*
G01X-3098546Y-1155700D01*
G01X-3200400Y-1079754D02*
G01X-3200400Y-1053846D01*
G01X-3200400Y-1231646D02*
G01X-3200400Y-1257554D01*
G01X-2895346Y-2223795D02*
G01X-2921254Y-2223795D01*
G01X-2743454Y-2223795D02*
G01X-2717546Y-2223795D01*
G01X-2819400Y-2124050D02*
G01X-2819400Y-2098142D01*
G01X-2819400Y-2323541D02*
G01X-2819400Y-2349449D01*
G01X-1587246Y-1549400D02*
G01X-1613154Y-1549400D01*
G01X-1435354Y-1549400D02*
G01X-1409446Y-1549400D01*
G01X-1511300Y-1473454D02*
G01X-1511300Y-1447546D01*
G01X-1511300Y-1625346D02*
G01X-1511300Y-1651254D01*
G01X-1303613Y-1549730D02*
G01X-1329521Y-1549730D01*
G01X-1151721Y-1549730D02*
G01X-1125813Y-1549730D01*
G01X-1227667Y-1473784D02*
G01X-1227667Y-1447876D01*
G01X-1227667Y-1625676D02*
G01X-1227667Y-1651584D01*
G01X-1019979Y-1549730D02*
G01X-1045887Y-1549730D01*
G01X-868087Y-1549730D02*
G01X-842179Y-1549730D01*
G01X-944033Y-1473784D02*
G01X-944033Y-1447876D01*
G01X-944033Y-1625676D02*
G01X-944033Y-1651584D01*
G01X-736346Y-1549400D02*
G01X-762254Y-1549400D01*
G01X-584454Y-1549400D02*
G01X-558546Y-1549400D01*
G01X-660400Y-1473454D02*
G01X-660400Y-1447546D01*
G01X-660400Y-1625346D02*
G01X-660400Y-1651254D01*
G01X-166682Y-1557487D02*
G01X-192590Y-1557487D01*
G01X-14790Y-1557487D02*
G01X11118Y-1557487D01*
G01X-90736Y-1481541D02*
G01X-90736Y-1455633D01*
G01X-90736Y-1633433D02*
G01X-90736Y-1659341D01*
G01X343154Y-1562100D02*
G01X317246Y-1562100D01*
G01X495046Y-1562100D02*
G01X520954Y-1562100D01*
G01X419100Y-1486154D02*
G01X419100Y-1460246D01*
G01X419100Y-1638046D02*
G01X419100Y-1663954D01*
G01X1359154Y-1485900D02*
G01X1333246Y-1485900D01*
G01X1511046Y-1485900D02*
G01X1536954Y-1485900D01*
G01X1435100Y-1409954D02*
G01X1435100Y-1384046D01*
G01X1435100Y-1561846D02*
G01X1435100Y-1587754D01*
G04 Copper End*

G04 Pad Start*
G54D12*
G01X1435100Y-698500D03*
G01X1435100Y-1485900D03*
G01X-4318000Y-698500D03*
G01X-4318000Y-1485900D03*
G01X-3200400Y-1155700D03*
G01X419100Y-1562100D03*
G01X-660400Y-1549400D03*
G01X-90736Y-1557487D03*
G01X-4318000Y-1104900D03*
G01X-944033Y-1549730D03*
G01X-1227667Y-1549730D03*
G01X-1511300Y-1549400D03*
G54D13*
G01X-3581400Y-2223795D03*
G01X-3581400Y-1433805D03*
G01X-3327400Y-2223795D03*
G01X-3327400Y-1433805D03*
G01X-3073400Y-2223795D03*
G01X-3073400Y-1433805D03*
G01X-2819400Y-2223795D03*
G01X-2819400Y-1433805D03*
G04 Pad End*

G04 Via Start*
G54D14*
G01X-2781300Y228600D03*
G01X-2781300Y-139700D03*
G01X-3326090Y-1786095D03*
G01X-4019550Y-971550D03*
G01X-4019550Y44450D03*
G01X-3511550Y552450D03*
G01X-3003550Y-971550D03*
G01X-3003550Y-463550D03*
G01X-3003550Y552450D03*
G01X-3003550Y-1987550D03*
G01X-2495550Y-1479550D03*
G01X-2495550Y-971550D03*
G01X-2495550Y-463550D03*
G01X-2495550Y552450D03*
G01X-2495550Y-1987550D03*
G01X-1987550Y-1479550D03*
G01X-1987550Y-971550D03*
G01X-1987550Y552450D03*
G01X-1479550Y-463550D03*
G01X-1479550Y44450D03*
G01X-1479550Y552450D03*
G01X-971550Y44450D03*
G01X-971550Y552450D03*
G01X-971550Y-1987550D03*
G01X-463550Y-463550D03*
G01X-463550Y44450D03*
G01X-463550Y552450D03*
G01X-463550Y-1987550D03*
G01X44450Y44450D03*
G01X44450Y552450D03*
G01X44450Y-1987550D03*
G01X552450Y-463550D03*
G01X552450Y44450D03*
G01X552450Y552450D03*
G01X552450Y-1987550D03*
G01X552450Y-1479550D03*
G01X1060450Y-463550D03*
G01X1060450Y44450D03*
G01X1060450Y552450D03*
G01X1060450Y-1987550D03*
G01X1060450Y-1479550D03*
G04 Via End*

G04 Track Start*
G54D15*
G01X-3389843Y-2006600D02*
G01X-2819400Y-2006600D01*
G01X-3390238Y-2006995D02*
G01X-3389843Y-2006600D01*
G01X-3784205Y-2006995D02*
G01X-3390238Y-2006995D01*
G01X-4305300Y-1485900D02*
G01X-3784205Y-2006995D01*
G01X-4330700Y-1485900D02*
G01X-4305300Y-1485900D01*
G01X-4000500Y-1155700D02*
G01X-4330700Y-1485900D01*
G01X-3200400Y-1155700D02*
G01X-4000500Y-1155700D01*
G01X-3200400Y-1155700D02*
G01X-2273300Y-1155700D01*
G01X-2819400Y-2223795D02*
G01X-2590800Y-2223795D01*
G01X-2781300Y-139700D02*
G01X-2781300Y228600D01*
G01X-2819400Y-2006600D02*
G01X-2273300Y-2006600D01*
G01X-2819400Y-2006600D02*
G01X-2819400Y-2223795D01*
G01X419100Y-1549730D02*
G01X419100Y-1562100D01*
G01X-1273678Y-1549730D02*
G01X-965421Y-1549730D01*
G01X419100Y-1549730D01*
G01X-1273678Y-1549730D02*
G01X-1460830Y-1549730D01*
G01X-1473200Y-1562100D01*
G54D17*
G01X-3327400Y-1433805D02*
G01X-3326090Y-1435115D01*
G01X-3326090Y-1786095D01*
G04 Track End*

M02*

