G04 Layer: TopSilkscreenLayer*
G04 EasyEDA Pro v2.2.45.4, 2025-12-20 17:50:56*
G04 Gerber Generator version 0.3*
G04 Scale: 100 percent, Rotated: No, Reflected: No*
G04 Dimensions in millimeters*
G04 Leading zeros omitted, absolute positions, 4 integers and 5 decimals*
G04 Generated by one-click*
%FSLAX45Y45*%
%MOMM*%
%ADD10C,0.2032*%
%ADD11C,0.1016*%
%ADD12C,0.0762*%
%ADD13C,0.1524*%
%ADD14C,0.11999*%
%ADD15C,0.254*%
%ADD16C,0.3040*%
%ADD17C,0.3*%
G75*


G04 Text Start*
G54D10*
G01X1300226Y-849122D02*
G01X1293622Y-852424D01*
G01X1286764Y-859028D01*
G01X1283462Y-865632D01*
G01X1280160Y-875792D01*
G01X1280160Y-892302D01*
G01X1283462Y-902462D01*
G01X1286764Y-909066D01*
G01X1293622Y-915670D01*
G01X1300226Y-918972D01*
G01X1313434Y-918972D01*
G01X1320292Y-915670D01*
G01X1326896Y-909066D01*
G01X1330198Y-902462D01*
G01X1333500Y-892302D01*
G01X1333500Y-875792D01*
G01X1330198Y-865632D01*
G01X1326896Y-859028D01*
G01X1320292Y-852424D01*
G01X1313434Y-849122D01*
G01X1300226Y-849122D01*
G01X1369822Y-849122D02*
G01X1369822Y-898906D01*
G01X1373124Y-909066D01*
G01X1379728Y-915670D01*
G01X1389888Y-918972D01*
G01X1396492Y-918972D01*
G01X1406398Y-915670D01*
G01X1413256Y-909066D01*
G01X1416558Y-898906D01*
G01X1416558Y-849122D01*
G01X1476248Y-849122D02*
G01X1476248Y-918972D01*
G01X1452880Y-849122D02*
G01X1499616Y-849122D01*
G01X1565910Y-859028D02*
G01X1565910Y-918972D01*
G01X1535938Y-889000D02*
G01X1595882Y-889000D01*
G01X1300226Y-1268222D02*
G01X1293622Y-1271524D01*
G01X1286764Y-1278128D01*
G01X1283462Y-1284732D01*
G01X1280160Y-1294892D01*
G01X1280160Y-1311402D01*
G01X1283462Y-1321562D01*
G01X1286764Y-1328166D01*
G01X1293622Y-1334770D01*
G01X1300226Y-1338072D01*
G01X1313434Y-1338072D01*
G01X1320292Y-1334770D01*
G01X1326896Y-1328166D01*
G01X1330198Y-1321562D01*
G01X1333500Y-1311402D01*
G01X1333500Y-1294892D01*
G01X1330198Y-1284732D01*
G01X1326896Y-1278128D01*
G01X1320292Y-1271524D01*
G01X1313434Y-1268222D01*
G01X1300226Y-1268222D01*
G01X1369822Y-1268222D02*
G01X1369822Y-1318006D01*
G01X1373124Y-1328166D01*
G01X1379728Y-1334770D01*
G01X1389888Y-1338072D01*
G01X1396492Y-1338072D01*
G01X1406398Y-1334770D01*
G01X1413256Y-1328166D01*
G01X1416558Y-1318006D01*
G01X1416558Y-1268222D01*
G01X1476248Y-1268222D02*
G01X1476248Y-1338072D01*
G01X1452880Y-1268222D02*
G01X1499616Y-1268222D01*
G01X1535938Y-1308100D02*
G01X1595882Y-1308100D01*
G01X-664210Y-1995170D02*
G01X-737108Y-1995170D01*
G01X-744474Y-2060956D01*
G01X-737108Y-2053590D01*
G01X-715264Y-2046224D01*
G01X-693420Y-2046224D01*
G01X-671576Y-2053590D01*
G01X-656844Y-2068322D01*
G01X-649478Y-2090166D01*
G01X-649478Y-2104644D01*
G01X-656844Y-2126742D01*
G01X-671576Y-2141220D01*
G01X-693420Y-2148586D01*
G01X-715264Y-2148586D01*
G01X-737108Y-2141220D01*
G01X-744474Y-2133854D01*
G01X-751840Y-2119376D01*
G01X-594106Y-1995170D02*
G01X-535686Y-2148586D01*
G01X-477266Y-1995170D02*
G01X-535686Y-2148586D01*
G01X-290322Y-1965960D02*
G01X-421894Y-2199640D01*
G01X-234950Y-2024380D02*
G01X-220218Y-2017014D01*
G01X-198374Y-1995170D01*
G01X-198374Y-2148586D01*
G01X-84582Y-1995170D02*
G01X-143002Y-2148586D01*
G01X-84582Y-1995170D02*
G01X-26162Y-2148586D01*
G01X-121158Y-2097532D02*
G01X-48006Y-2097532D01*
G01X-751840Y-2249170D02*
G01X-751840Y-2402586D01*
G01X-751840Y-2249170D02*
G01X-686054Y-2249170D01*
G01X-664210Y-2256536D01*
G01X-656844Y-2263902D01*
G01X-649478Y-2278380D01*
G01X-649478Y-2293112D01*
G01X-656844Y-2307590D01*
G01X-664210Y-2314956D01*
G01X-686054Y-2322322D01*
G01X-751840Y-2322322D02*
G01X-686054Y-2322322D01*
G01X-664210Y-2329434D01*
G01X-656844Y-2336800D01*
G01X-649478Y-2351532D01*
G01X-649478Y-2373376D01*
G01X-656844Y-2387854D01*
G01X-664210Y-2395220D01*
G01X-686054Y-2402586D01*
G01X-751840Y-2402586D01*
G01X-594106Y-2300224D02*
G01X-594106Y-2373376D01*
G01X-586740Y-2395220D01*
G01X-572262Y-2402586D01*
G01X-550164Y-2402586D01*
G01X-535686Y-2395220D01*
G01X-513842Y-2373376D01*
G01X-513842Y-2300224D02*
G01X-513842Y-2402586D01*
G01X-370840Y-2322322D02*
G01X-385318Y-2307590D01*
G01X-400050Y-2300224D01*
G01X-421894Y-2300224D01*
G01X-436626Y-2307590D01*
G01X-451104Y-2322322D01*
G01X-458470Y-2344166D01*
G01X-458470Y-2358644D01*
G01X-451104Y-2380742D01*
G01X-436626Y-2395220D01*
G01X-421894Y-2402586D01*
G01X-400050Y-2402586D01*
G01X-385318Y-2395220D01*
G01X-370840Y-2380742D01*
G01X-315468Y-2249170D02*
G01X-315468Y-2402586D01*
G01X-242316Y-2300224D02*
G01X-315468Y-2373376D01*
G01X-286258Y-2344166D02*
G01X-235204Y-2402586D01*
G01X93218Y-2285746D02*
G01X86106Y-2271014D01*
G01X71374Y-2256536D01*
G01X56896Y-2249170D01*
G01X27686Y-2249170D01*
G01X12954Y-2256536D01*
G01X-1524Y-2271014D01*
G01X-8890Y-2285746D01*
G01X-16256Y-2307590D01*
G01X-16256Y-2344166D01*
G01X-8890Y-2366010D01*
G01X-1524Y-2380742D01*
G01X12954Y-2395220D01*
G01X27686Y-2402586D01*
G01X56896Y-2402586D01*
G01X71374Y-2395220D01*
G01X86106Y-2380742D01*
G01X93218Y-2366010D01*
G01X185166Y-2300224D02*
G01X170434Y-2307590D01*
G01X155956Y-2322322D01*
G01X148590Y-2344166D01*
G01X148590Y-2358644D01*
G01X155956Y-2380742D01*
G01X170434Y-2395220D01*
G01X185166Y-2402586D01*
G01X207010Y-2402586D01*
G01X221742Y-2395220D01*
G01X236220Y-2380742D01*
G01X243586Y-2358644D01*
G01X243586Y-2344166D01*
G01X236220Y-2322322D01*
G01X221742Y-2307590D01*
G01X207010Y-2300224D01*
G01X185166Y-2300224D01*
G01X298958Y-2300224D02*
G01X298958Y-2402586D01*
G01X298958Y-2329434D02*
G01X320802Y-2307590D01*
G01X335534Y-2300224D01*
G01X357378Y-2300224D01*
G01X372110Y-2307590D01*
G01X379222Y-2329434D01*
G01X379222Y-2402586D01*
G01X434594Y-2300224D02*
G01X478536Y-2402586D01*
G01X522224Y-2300224D02*
G01X478536Y-2402586D01*
G01X577596Y-2344166D02*
G01X665226Y-2344166D01*
G01X665226Y-2329434D01*
G01X657860Y-2314956D01*
G01X650748Y-2307590D01*
G01X636016Y-2300224D01*
G01X614172Y-2300224D01*
G01X599440Y-2307590D01*
G01X584962Y-2322322D01*
G01X577596Y-2344166D01*
G01X577596Y-2358644D01*
G01X584962Y-2380742D01*
G01X599440Y-2395220D01*
G01X614172Y-2402586D01*
G01X636016Y-2402586D01*
G01X650748Y-2395220D01*
G01X665226Y-2380742D01*
G01X720598Y-2300224D02*
G01X720598Y-2402586D01*
G01X720598Y-2344166D02*
G01X727964Y-2322322D01*
G01X742442Y-2307590D01*
G01X757174Y-2300224D01*
G01X779018Y-2300224D01*
G01X856234Y-2249170D02*
G01X856234Y-2373376D01*
G01X863600Y-2395220D01*
G01X878332Y-2402586D01*
G01X892810Y-2402586D01*
G01X834390Y-2300224D02*
G01X885444Y-2300224D01*
G01X948182Y-2344166D02*
G01X1035812Y-2344166D01*
G01X1035812Y-2329434D01*
G01X1028446Y-2314956D01*
G01X1021334Y-2307590D01*
G01X1006602Y-2300224D01*
G01X984758Y-2300224D01*
G01X970026Y-2307590D01*
G01X955548Y-2322322D01*
G01X948182Y-2344166D01*
G01X948182Y-2358644D01*
G01X955548Y-2380742D01*
G01X970026Y-2395220D01*
G01X984758Y-2402586D01*
G01X1006602Y-2402586D01*
G01X1021334Y-2395220D01*
G01X1035812Y-2380742D01*
G01X1091184Y-2300224D02*
G01X1091184Y-2402586D01*
G01X1091184Y-2344166D02*
G01X1098550Y-2322322D01*
G01X1113028Y-2307590D01*
G01X1127760Y-2300224D01*
G01X1149604Y-2300224D01*
G01X-4384040Y-493522D02*
G01X-4384040Y-563372D01*
G01X-4347718Y-493522D02*
G01X-4347718Y-563372D01*
G01X-4347718Y-493522D02*
G01X-4300982Y-563372D01*
G01X-4300982Y-493522D02*
G01X-4300982Y-563372D01*
G01X-4234688Y-503428D02*
G01X-4234688Y-563372D01*
G01X-4264660Y-533400D02*
G01X-4204716Y-533400D01*
G01X-4384040Y-1611122D02*
G01X-4384040Y-1680972D01*
G01X-4347718Y-1611122D02*
G01X-4347718Y-1680972D01*
G01X-4347718Y-1611122D02*
G01X-4300982Y-1680972D01*
G01X-4300982Y-1611122D02*
G01X-4300982Y-1680972D01*
G01X-4264660Y-1651000D02*
G01X-4204716Y-1651000D01*
G54D11*
G01X546100Y160782D02*
G01X579882Y194818D01*
G01X579882Y194818D02*
G01X596900Y194818D01*
G01X546100Y127000D02*
G01X546100Y160782D01*
G01X546100Y160782D02*
G01X546100Y194818D01*
G01X664718Y127000D02*
G01X698500Y127000D01*
G01X647700Y144018D02*
G01X664718Y127000D01*
G01X647700Y177800D02*
G01X664718Y194818D01*
G01X664718Y194818D02*
G01X698500Y194818D01*
G01X698500Y194818D02*
G01X715518Y177800D01*
G01X715518Y160782D02*
G01X715518Y177800D01*
G01X647700Y160782D02*
G01X715518Y160782D01*
G01X647700Y144018D02*
G01X647700Y160782D01*
G01X647700Y160782D02*
G01X647700Y177800D01*
G01X783336Y127000D02*
G01X749300Y194818D01*
G01X783336Y127000D02*
G01X817118Y194818D01*
G01X952500Y211582D02*
G01X969518Y228600D01*
G01X952500Y144018D02*
G01X952500Y211582D01*
G01X952500Y144018D02*
G01X969518Y127000D01*
G01X969518Y127000D02*
G01X1003300Y127000D01*
G01X1003300Y127000D02*
G01X1020318Y144018D01*
G01X1020318Y144018D02*
G01X1020318Y211582D01*
G01X1003300Y228600D02*
G01X1020318Y211582D01*
G01X969518Y228600D02*
G01X1003300Y228600D01*
G01X1054100Y211582D02*
G01X1071118Y228600D01*
G01X1054100Y144018D02*
G01X1054100Y211582D01*
G01X1054100Y144018D02*
G01X1071118Y127000D01*
G01X1071118Y127000D02*
G01X1104900Y127000D01*
G01X1104900Y127000D02*
G01X1121918Y144018D01*
G01X1121918Y144018D02*
G01X1121918Y211582D01*
G01X1104900Y228600D02*
G01X1121918Y211582D01*
G01X1071118Y228600D02*
G01X1104900Y228600D01*
G01X1155700Y127000D02*
G01X1223518Y127000D01*
G01X1155700Y127000D02*
G01X1223518Y194818D01*
G01X1223518Y194818D02*
G01X1223518Y211582D01*
G01X1206500Y228600D02*
G01X1223518Y211582D01*
G01X1172718Y228600D02*
G01X1206500Y228600D01*
G01X1155700Y211582D02*
G01X1172718Y228600D01*
G54D12*
G01X-4396232Y-2131314D02*
G01X-4398518Y-2126996D01*
G01X-4402836Y-2122678D01*
G01X-4407154Y-2120646D01*
G01X-4415536Y-2120646D01*
G01X-4419854Y-2122678D01*
G01X-4424172Y-2126996D01*
G01X-4426458Y-2131314D01*
G01X-4428490Y-2137664D01*
G01X-4428490Y-2148332D01*
G01X-4426458Y-2154936D01*
G01X-4424172Y-2159254D01*
G01X-4419854Y-2163572D01*
G01X-4415536Y-2165604D01*
G01X-4407154Y-2165604D01*
G01X-4402836Y-2163572D01*
G01X-4398518Y-2159254D01*
G01X-4396232Y-2154936D01*
G01X-4365498Y-2120646D02*
G01X-4369816Y-2122678D01*
G01X-4374134Y-2126996D01*
G01X-4376166Y-2131314D01*
G01X-4378198Y-2137664D01*
G01X-4378198Y-2148332D01*
G01X-4376166Y-2154936D01*
G01X-4374134Y-2159254D01*
G01X-4369816Y-2163572D01*
G01X-4365498Y-2165604D01*
G01X-4356862Y-2165604D01*
G01X-4352544Y-2163572D01*
G01X-4348226Y-2159254D01*
G01X-4346194Y-2154936D01*
G01X-4343908Y-2148332D01*
G01X-4343908Y-2137664D01*
G01X-4346194Y-2131314D01*
G01X-4348226Y-2126996D01*
G01X-4352544Y-2122678D01*
G01X-4356862Y-2120646D01*
G01X-4365498Y-2120646D01*
G01X-4325874Y-2120646D02*
G01X-4325874Y-2165604D01*
G01X-4325874Y-2120646D02*
G01X-4295902Y-2165604D01*
G01X-4295902Y-2120646D02*
G01X-4295902Y-2165604D01*
G01X-4277868Y-2120646D02*
G01X-4277868Y-2165604D01*
G01X-4277868Y-2120646D02*
G01X-4250182Y-2120646D01*
G01X-4277868Y-2141982D02*
G01X-4260850Y-2141982D01*
G01X-4232148Y-2120646D02*
G01X-4232148Y-2165604D01*
G01X-4182110Y-2131314D02*
G01X-4184142Y-2126996D01*
G01X-4188460Y-2122678D01*
G01X-4192778Y-2120646D01*
G01X-4201414Y-2120646D01*
G01X-4205732Y-2122678D01*
G01X-4210050Y-2126996D01*
G01X-4212082Y-2131314D01*
G01X-4214114Y-2137664D01*
G01X-4214114Y-2148332D01*
G01X-4212082Y-2154936D01*
G01X-4210050Y-2159254D01*
G01X-4205732Y-2163572D01*
G01X-4201414Y-2165604D01*
G01X-4192778Y-2165604D01*
G01X-4188460Y-2163572D01*
G01X-4184142Y-2159254D01*
G01X-4182110Y-2154936D01*
G01X-4182110Y-2148332D01*
G01X-4192778Y-2148332D02*
G01X-4182110Y-2148332D01*
G01X-4349115Y-1877314D02*
G01X-4351401Y-1872996D01*
G01X-4355719Y-1868678D01*
G01X-4360037Y-1866646D01*
G01X-4368419Y-1866646D01*
G01X-4372737Y-1868678D01*
G01X-4377055Y-1872996D01*
G01X-4379341Y-1877314D01*
G01X-4381373Y-1883664D01*
G01X-4381373Y-1894332D01*
G01X-4379341Y-1900936D01*
G01X-4377055Y-1905254D01*
G01X-4372737Y-1909572D01*
G01X-4368419Y-1911604D01*
G01X-4360037Y-1911604D01*
G01X-4355719Y-1909572D01*
G01X-4351401Y-1905254D01*
G01X-4349115Y-1900936D01*
G01X-4349115Y-1894332D01*
G01X-4360037Y-1894332D02*
G01X-4349115Y-1894332D01*
G01X-4331081Y-1866646D02*
G01X-4331081Y-1911604D01*
G01X-4331081Y-1866646D02*
G01X-4301109Y-1911604D01*
G01X-4301109Y-1866646D02*
G01X-4301109Y-1911604D01*
G01X-4283075Y-1866646D02*
G01X-4283075Y-1911604D01*
G01X-4283075Y-1866646D02*
G01X-4268089Y-1866646D01*
G01X-4261739Y-1868678D01*
G01X-4257421Y-1872996D01*
G01X-4255389Y-1877314D01*
G01X-4253103Y-1883664D01*
G01X-4253103Y-1894332D01*
G01X-4255389Y-1900936D01*
G01X-4257421Y-1905254D01*
G01X-4261739Y-1909572D01*
G01X-4268089Y-1911604D01*
G01X-4283075Y-1911604D01*
G54D10*
G01X-4509262Y-861822D02*
G01X-4509262Y-931672D01*
G01X-4509262Y-861822D02*
G01X-4485894Y-861822D01*
G01X-4475988Y-865124D01*
G01X-4469130Y-871728D01*
G01X-4465828Y-878332D01*
G01X-4462526Y-888492D01*
G01X-4462526Y-905002D01*
G01X-4465828Y-915162D01*
G01X-4469130Y-921766D01*
G01X-4475988Y-928370D01*
G01X-4485894Y-931672D01*
G01X-4509262Y-931672D01*
G01X-4426204Y-861822D02*
G01X-4426204Y-931672D01*
G01X-4426204Y-861822D02*
G01X-4382770Y-861822D01*
G01X-4426204Y-895096D02*
G01X-4399534Y-895096D01*
G01X-4426204Y-931672D02*
G01X-4382770Y-931672D01*
G01X-4346448Y-861822D02*
G01X-4346448Y-931672D01*
G01X-4346448Y-861822D02*
G01X-4316476Y-861822D01*
G01X-4306316Y-865124D01*
G01X-4303014Y-868426D01*
G01X-4299712Y-875030D01*
G01X-4299712Y-881634D01*
G01X-4303014Y-888492D01*
G01X-4306316Y-891794D01*
G01X-4316476Y-895096D01*
G01X-4346448Y-895096D02*
G01X-4316476Y-895096D01*
G01X-4306316Y-898398D01*
G01X-4303014Y-901700D01*
G01X-4299712Y-908304D01*
G01X-4299712Y-918464D01*
G01X-4303014Y-925068D01*
G01X-4306316Y-928370D01*
G01X-4316476Y-931672D01*
G01X-4346448Y-931672D01*
G01X-4263390Y-861822D02*
G01X-4263390Y-911606D01*
G01X-4260088Y-921766D01*
G01X-4253484Y-928370D01*
G01X-4243324Y-931672D01*
G01X-4236720Y-931672D01*
G01X-4226814Y-928370D01*
G01X-4219956Y-921766D01*
G01X-4216654Y-911606D01*
G01X-4216654Y-861822D01*
G01X-4130294Y-878332D02*
G01X-4133596Y-871728D01*
G01X-4140200Y-865124D01*
G01X-4147058Y-861822D01*
G01X-4160266Y-861822D01*
G01X-4166870Y-865124D01*
G01X-4173728Y-871728D01*
G01X-4177030Y-878332D01*
G01X-4180332Y-888492D01*
G01X-4180332Y-905002D01*
G01X-4177030Y-915162D01*
G01X-4173728Y-921766D01*
G01X-4166870Y-928370D01*
G01X-4160266Y-931672D01*
G01X-4147058Y-931672D01*
G01X-4140200Y-928370D01*
G01X-4133596Y-921766D01*
G01X-4130294Y-915162D01*
G01X-4130294Y-905002D01*
G01X-4147058Y-905002D02*
G01X-4130294Y-905002D01*
G54D12*
G01X-1290701Y-2416810D02*
G01X-1305941Y-2485390D01*
G01X-1278001Y-2416810D02*
G01X-1292987Y-2485390D01*
G01X-1305941Y-2444750D02*
G01X-1275715Y-2444750D01*
G01X-1307973Y-2457450D02*
G01X-1278001Y-2457450D01*
G01X-1244981Y-2425446D02*
G01X-1249299Y-2427478D01*
G01X-1253617Y-2431796D01*
G01X-1255649Y-2436114D01*
G01X-1257681Y-2442464D01*
G01X-1257681Y-2453132D01*
G01X-1255649Y-2459736D01*
G01X-1253617Y-2464054D01*
G01X-1249299Y-2468372D01*
G01X-1244981Y-2470404D01*
G01X-1236345Y-2470404D01*
G01X-1232027Y-2468372D01*
G01X-1227709Y-2464054D01*
G01X-1225677Y-2459736D01*
G01X-1223391Y-2453132D01*
G01X-1223391Y-2442464D01*
G01X-1225677Y-2436114D01*
G01X-1227709Y-2431796D01*
G01X-1232027Y-2427478D01*
G01X-1236345Y-2425446D01*
G01X-1244981Y-2425446D01*
G01X-1205357Y-2425446D02*
G01X-1205357Y-2470404D01*
G01X-1205357Y-2425446D02*
G01X-1190371Y-2425446D01*
G01X-1184021Y-2427478D01*
G01X-1179703Y-2431796D01*
G01X-1177671Y-2436114D01*
G01X-1175385Y-2442464D01*
G01X-1175385Y-2453132D01*
G01X-1177671Y-2459736D01*
G01X-1179703Y-2464054D01*
G01X-1184021Y-2468372D01*
G01X-1190371Y-2470404D01*
G01X-1205357Y-2470404D01*
G54D13*
G01X413766Y-1279398D02*
G01X456946Y-1310386D01*
G01X456946Y-1263904D01*
G01X413766Y-1279398D02*
G01X478790Y-1279398D01*
G01X413766Y-1190498D02*
G01X478790Y-1221486D01*
G01X413766Y-1233678D02*
G01X413766Y-1190498D01*
G01X413766Y-1141730D02*
G01X416814Y-1151128D01*
G01X426212Y-1157224D01*
G01X441452Y-1160272D01*
G01X450850Y-1160272D01*
G01X466344Y-1157224D01*
G01X475742Y-1151128D01*
G01X478790Y-1141730D01*
G01X478790Y-1135634D01*
G01X475742Y-1126236D01*
G01X466344Y-1120140D01*
G01X450850Y-1117092D01*
G01X441452Y-1117092D01*
G01X426212Y-1120140D01*
G01X416814Y-1126236D01*
G01X413766Y-1135634D01*
G01X413766Y-1141730D01*
G01X435356Y-1086866D02*
G01X466344Y-1086866D01*
G01X475742Y-1083818D01*
G01X478790Y-1077722D01*
G01X478790Y-1068324D01*
G01X475742Y-1062228D01*
G01X466344Y-1052830D01*
G01X435356Y-1052830D02*
G01X478790Y-1052830D01*
G01X413766Y-1022604D02*
G01X478790Y-1022604D01*
G01X413766Y-1022604D02*
G01X413766Y-982472D01*
G01X444754Y-1022604D02*
G01X444754Y-997966D01*
G01X48768Y-1076960D02*
G01X48768Y-1073912D01*
G01X51816Y-1067562D01*
G01X55118Y-1064514D01*
G01X61214Y-1061466D01*
G01X73660Y-1061466D01*
G01X79756Y-1064514D01*
G01X82804Y-1067562D01*
G01X85852Y-1073912D01*
G01X85852Y-1080008D01*
G01X82804Y-1086104D01*
G01X76708Y-1095502D01*
G01X45720Y-1126490D01*
G01X89154Y-1126490D01*
G01X122428Y-1076960D02*
G01X122428Y-1073912D01*
G01X125476Y-1067562D01*
G01X128524Y-1064514D01*
G01X134620Y-1061466D01*
G01X147066Y-1061466D01*
G01X153416Y-1064514D01*
G01X156464Y-1067562D01*
G01X159512Y-1073912D01*
G01X159512Y-1080008D01*
G01X156464Y-1086104D01*
G01X150114Y-1095502D01*
G01X119380Y-1126490D01*
G01X162560Y-1126490D01*
G01X192786Y-1083056D02*
G01X192786Y-1114044D01*
G01X195834Y-1123442D01*
G01X201930Y-1126490D01*
G01X211328Y-1126490D01*
G01X217424Y-1123442D01*
G01X226822Y-1114044D01*
G01X226822Y-1083056D02*
G01X226822Y-1126490D01*
G01X257048Y-1061466D02*
G01X257048Y-1126490D01*
G01X257048Y-1061466D02*
G01X297180Y-1061466D01*
G01X257048Y-1092454D02*
G01X281686Y-1092454D01*
G01X-459232Y-1076960D02*
G01X-459232Y-1073912D01*
G01X-456184Y-1067562D01*
G01X-452882Y-1064514D01*
G01X-446786Y-1061466D01*
G01X-434340Y-1061466D01*
G01X-428244Y-1064514D01*
G01X-425196Y-1067562D01*
G01X-422148Y-1073912D01*
G01X-422148Y-1080008D01*
G01X-425196Y-1086104D01*
G01X-431292Y-1095502D01*
G01X-462280Y-1126490D01*
G01X-418846Y-1126490D01*
G01X-385572Y-1076960D02*
G01X-385572Y-1073912D01*
G01X-382524Y-1067562D01*
G01X-379476Y-1064514D01*
G01X-373380Y-1061466D01*
G01X-360934Y-1061466D01*
G01X-354584Y-1064514D01*
G01X-351536Y-1067562D01*
G01X-348488Y-1073912D01*
G01X-348488Y-1080008D01*
G01X-351536Y-1086104D01*
G01X-357886Y-1095502D01*
G01X-388620Y-1126490D01*
G01X-345440Y-1126490D01*
G01X-315214Y-1083056D02*
G01X-315214Y-1114044D01*
G01X-312166Y-1123442D01*
G01X-306070Y-1126490D01*
G01X-296672Y-1126490D01*
G01X-290576Y-1123442D01*
G01X-281178Y-1114044D01*
G01X-281178Y-1083056D02*
G01X-281178Y-1126490D01*
G01X-250952Y-1061466D02*
G01X-250952Y-1126490D01*
G01X-250952Y-1061466D02*
G01X-210820Y-1061466D01*
G01X-250952Y-1092454D02*
G01X-226314Y-1092454D01*
G01X-3441192Y246634D02*
G01X-3472180Y203454D01*
G01X-3425698Y203454D01*
G01X-3441192Y246634D02*
G01X-3441192Y181610D01*
G01X-3352292Y246634D02*
G01X-3383280Y181610D01*
G01X-3395472Y246634D02*
G01X-3352292Y246634D01*
G01X-3303524Y246634D02*
G01X-3312922Y243586D01*
G01X-3319018Y234188D01*
G01X-3322066Y218948D01*
G01X-3322066Y209550D01*
G01X-3319018Y194056D01*
G01X-3312922Y184658D01*
G01X-3303524Y181610D01*
G01X-3297428Y181610D01*
G01X-3288030Y184658D01*
G01X-3281934Y194056D01*
G01X-3278886Y209550D01*
G01X-3278886Y218948D01*
G01X-3281934Y234188D01*
G01X-3288030Y243586D01*
G01X-3297428Y246634D01*
G01X-3303524Y246634D01*
G01X-3248660Y225044D02*
G01X-3248660Y194056D01*
G01X-3245612Y184658D01*
G01X-3239516Y181610D01*
G01X-3230118Y181610D01*
G01X-3224022Y184658D01*
G01X-3214624Y194056D01*
G01X-3214624Y225044D02*
G01X-3214624Y181610D01*
G01X-3184398Y246634D02*
G01X-3184398Y181610D01*
G01X-3184398Y246634D02*
G01X-3144266Y246634D01*
G01X-3184398Y215646D02*
G01X-3159760Y215646D01*
G01X-3456432Y-645160D02*
G01X-3456432Y-642112D01*
G01X-3453384Y-635762D01*
G01X-3450082Y-632714D01*
G01X-3443986Y-629666D01*
G01X-3431540Y-629666D01*
G01X-3425444Y-632714D01*
G01X-3422396Y-635762D01*
G01X-3419348Y-642112D01*
G01X-3419348Y-648208D01*
G01X-3422396Y-654304D01*
G01X-3428492Y-663702D01*
G01X-3459480Y-694690D01*
G01X-3416046Y-694690D01*
G01X-3382772Y-645160D02*
G01X-3382772Y-642112D01*
G01X-3379724Y-635762D01*
G01X-3376676Y-632714D01*
G01X-3370580Y-629666D01*
G01X-3358134Y-629666D01*
G01X-3351784Y-632714D01*
G01X-3348736Y-635762D01*
G01X-3345688Y-642112D01*
G01X-3345688Y-648208D01*
G01X-3348736Y-654304D01*
G01X-3355086Y-663702D01*
G01X-3385820Y-694690D01*
G01X-3342640Y-694690D01*
G01X-3312414Y-651256D02*
G01X-3312414Y-682244D01*
G01X-3309366Y-691642D01*
G01X-3303270Y-694690D01*
G01X-3293872Y-694690D01*
G01X-3287776Y-691642D01*
G01X-3278378Y-682244D01*
G01X-3278378Y-651256D02*
G01X-3278378Y-694690D01*
G01X-3248152Y-629666D02*
G01X-3248152Y-694690D01*
G01X-3248152Y-629666D02*
G01X-3208020Y-629666D01*
G01X-3248152Y-660654D02*
G01X-3223514Y-660654D01*
G01X-1759966Y-584962D02*
G01X-1763014Y-578866D01*
G01X-1769110Y-572516D01*
G01X-1775460Y-569468D01*
G01X-1784604Y-566420D01*
G01X-1800098Y-566420D01*
G01X-1809496Y-569468D01*
G01X-1815592Y-572516D01*
G01X-1821942Y-578866D01*
G01X-1824990Y-584962D01*
G01X-1824990Y-597408D01*
G01X-1821942Y-603504D01*
G01X-1815592Y-609854D01*
G01X-1809496Y-612902D01*
G01X-1800098Y-615950D01*
G01X-1784604Y-615950D01*
G01X-1775460Y-612902D01*
G01X-1769110Y-609854D01*
G01X-1763014Y-603504D01*
G01X-1759966Y-597408D01*
G01X-1759966Y-584962D01*
G01X-1812544Y-594360D02*
G01X-1831086Y-612902D01*
G01X-1772412Y-646176D02*
G01X-1769110Y-652272D01*
G01X-1759966Y-661416D01*
G01X-1824990Y-661416D01*
G01X-3535680Y-1785366D02*
G01X-3535680Y-1831848D01*
G01X-3532632Y-1840992D01*
G01X-3526282Y-1847342D01*
G01X-3517138Y-1850390D01*
G01X-3510788Y-1850390D01*
G01X-3501644Y-1847342D01*
G01X-3495548Y-1840992D01*
G01X-3492246Y-1831848D01*
G01X-3492246Y-1785366D01*
G01X-3462020Y-1797812D02*
G01X-3455924Y-1794510D01*
G01X-3446780Y-1785366D01*
G01X-3446780Y-1850390D01*
G01X-2418588Y-2087880D02*
G01X-2421890Y-2081784D01*
G01X-2431034Y-2072386D01*
G01X-2366010Y-2072386D01*
G01X-2431034Y-2023618D02*
G01X-2427986Y-2033016D01*
G01X-2418588Y-2039112D01*
G01X-2403348Y-2042160D01*
G01X-2393950Y-2042160D01*
G01X-2378456Y-2039112D01*
G01X-2369058Y-2033016D01*
G01X-2366010Y-2023618D01*
G01X-2366010Y-2017522D01*
G01X-2369058Y-2008124D01*
G01X-2378456Y-2002028D01*
G01X-2393950Y-1998980D01*
G01X-2403348Y-1998980D01*
G01X-2418588Y-2002028D01*
G01X-2427986Y-2008124D01*
G01X-2431034Y-2017522D01*
G01X-2431034Y-2023618D01*
G01X-2431034Y-1968754D02*
G01X-2366010Y-1968754D01*
G01X-2431034Y-1925574D02*
G01X-2387854Y-1968754D01*
G01X-2403348Y-1953514D02*
G01X-2366010Y-1925574D01*
G01X-2366010Y-1895348D02*
G01X-2366010Y-1873758D01*
G01X-2375408Y-1880108D01*
G01X-2384552Y-1886204D01*
G01X-2393950Y-1889252D01*
G01X-2403348Y-1889252D01*
G01X-2412492Y-1886204D01*
G01X-2418588Y-1883156D01*
G01X-2424938Y-1876806D01*
G01X-2427986Y-1870710D01*
G01X-2427986Y-1858264D01*
G01X-2424938Y-1852168D01*
G01X-2418588Y-1845818D01*
G01X-2412492Y-1842770D01*
G01X-2403348Y-1839722D01*
G01X-2393950Y-1839722D01*
G01X-2384552Y-1842770D01*
G01X-2375408Y-1849120D01*
G01X-2366010Y-1855216D01*
G01X-2366010Y-1833626D01*
G01X-2329180Y81788D02*
G01X-2323084Y85090D01*
G01X-2313686Y94234D01*
G01X-2313686Y29210D01*
G01X-2264918Y94234D02*
G01X-2274316Y91186D01*
G01X-2280412Y81788D01*
G01X-2283460Y66548D01*
G01X-2283460Y57150D01*
G01X-2280412Y41656D01*
G01X-2274316Y32258D01*
G01X-2264918Y29210D01*
G01X-2258822Y29210D01*
G01X-2249424Y32258D01*
G01X-2243328Y41656D01*
G01X-2240280Y57150D01*
G01X-2240280Y66548D01*
G01X-2243328Y81788D01*
G01X-2249424Y91186D01*
G01X-2258822Y94234D01*
G01X-2264918Y94234D01*
G01X-2210054Y94234D02*
G01X-2210054Y29210D01*
G01X-2166874Y94234D02*
G01X-2210054Y51054D01*
G01X-2194814Y66548D02*
G01X-2166874Y29210D01*
G01X-2136648Y29210D02*
G01X-2115058Y29210D01*
G01X-2121408Y38608D01*
G01X-2127504Y47752D01*
G01X-2130552Y57150D01*
G01X-2130552Y66548D01*
G01X-2127504Y75692D01*
G01X-2124456Y81788D01*
G01X-2118106Y88138D01*
G01X-2112010Y91186D01*
G01X-2099564Y91186D01*
G01X-2093468Y88138D01*
G01X-2087118Y81788D01*
G01X-2084070Y75692D01*
G01X-2081022Y66548D01*
G01X-2081022Y57150D01*
G01X-2084070Y47752D01*
G01X-2090420Y38608D01*
G01X-2096516Y29210D01*
G01X-2074926Y29210D01*
G01X-1923034Y-2170684D02*
G01X-1923034Y-2136648D01*
G01X-1898396Y-2155190D01*
G01X-1898396Y-2145792D01*
G01X-1895348Y-2139696D01*
G01X-1892046Y-2136648D01*
G01X-1882902Y-2133346D01*
G01X-1876552Y-2133346D01*
G01X-1867408Y-2136648D01*
G01X-1861058Y-2142744D01*
G01X-1858010Y-2151888D01*
G01X-1858010Y-2161286D01*
G01X-1861058Y-2170684D01*
G01X-1864360Y-2173732D01*
G01X-1870456Y-2176780D01*
G01X-1923034Y-2066036D02*
G01X-1923034Y-2097024D01*
G01X-1895348Y-2100072D01*
G01X-1898396Y-2097024D01*
G01X-1901444Y-2087880D01*
G01X-1901444Y-2078482D01*
G01X-1898396Y-2069084D01*
G01X-1892046Y-2062988D01*
G01X-1882902Y-2059940D01*
G01X-1876552Y-2059940D01*
G01X-1867408Y-2062988D01*
G01X-1861058Y-2069084D01*
G01X-1858010Y-2078482D01*
G01X-1858010Y-2087880D01*
G01X-1861058Y-2097024D01*
G01X-1864360Y-2100072D01*
G01X-1870456Y-2103120D01*
G01X-1873504Y-2026666D02*
G01X-1870456Y-2029714D01*
G01X-1867408Y-2026666D01*
G01X-1870456Y-2023618D01*
G01X-1873504Y-2026666D01*
G01X-1923034Y-1950212D02*
G01X-1858010Y-1981200D01*
G01X-1923034Y-1993392D02*
G01X-1923034Y-1950212D01*
G01X-1923034Y-1919986D02*
G01X-1858010Y-1919986D01*
G01X-1901444Y-1889252D02*
G01X-1870456Y-1919986D01*
G01X-1882902Y-1907794D02*
G01X-1858010Y-1885950D01*
G01X-1858010Y-1855724D02*
G01X-1858010Y-1834134D01*
G01X-1867408Y-1840484D01*
G01X-1876552Y-1846580D01*
G01X-1885950Y-1849628D01*
G01X-1895348Y-1849628D01*
G01X-1904492Y-1846580D01*
G01X-1910588Y-1843532D01*
G01X-1916938Y-1837182D01*
G01X-1919986Y-1831086D01*
G01X-1919986Y-1818640D01*
G01X-1916938Y-1812544D01*
G01X-1910588Y-1806194D01*
G01X-1904492Y-1803146D01*
G01X-1895348Y-1800098D01*
G01X-1885950Y-1800098D01*
G01X-1876552Y-1803146D01*
G01X-1867408Y-1809496D01*
G01X-1858010Y-1815592D01*
G01X-1858010Y-1794002D01*
G01X-3002788Y-957580D02*
G01X-3006090Y-951484D01*
G01X-3015234Y-942086D01*
G01X-2950210Y-942086D01*
G01X-3015234Y-893318D02*
G01X-3012186Y-902716D01*
G01X-3002788Y-908812D01*
G01X-2987548Y-911860D01*
G01X-2978150Y-911860D01*
G01X-2962656Y-908812D01*
G01X-2953258Y-902716D01*
G01X-2950210Y-893318D01*
G01X-2950210Y-887222D01*
G01X-2953258Y-877824D01*
G01X-2962656Y-871728D01*
G01X-2978150Y-868680D01*
G01X-2987548Y-868680D01*
G01X-3002788Y-871728D01*
G01X-3012186Y-877824D01*
G01X-3015234Y-887222D01*
G01X-3015234Y-893318D01*
G01X-3015234Y-819912D02*
G01X-3012186Y-829310D01*
G01X-3002788Y-835406D01*
G01X-2987548Y-838454D01*
G01X-2978150Y-838454D01*
G01X-2962656Y-835406D01*
G01X-2953258Y-829310D01*
G01X-2950210Y-819912D01*
G01X-2950210Y-813816D01*
G01X-2953258Y-804418D01*
G01X-2962656Y-798322D01*
G01X-2978150Y-795274D01*
G01X-2987548Y-795274D01*
G01X-3002788Y-798322D01*
G01X-3012186Y-804418D01*
G01X-3015234Y-813816D01*
G01X-3015234Y-819912D01*
G01X-2950210Y-765048D02*
G01X-2950210Y-743458D01*
G01X-2959608Y-749808D01*
G01X-2968752Y-755904D01*
G01X-2978150Y-758952D01*
G01X-2987548Y-758952D01*
G01X-2996692Y-755904D01*
G01X-3002788Y-752856D01*
G01X-3009138Y-746506D01*
G01X-3012186Y-740410D01*
G01X-3012186Y-727964D01*
G01X-3009138Y-721868D01*
G01X-3002788Y-715518D01*
G01X-2996692Y-712470D01*
G01X-2987548Y-709422D01*
G01X-2978150Y-709422D01*
G01X-2968752Y-712470D01*
G01X-2959608Y-718820D01*
G01X-2950210Y-724916D01*
G01X-2950210Y-703326D01*
G01X-602333Y-386979D02*
G01X-602333Y-452003D01*
G01X-602333Y-452003D02*
G01X-565249Y-452003D01*
G01X-535023Y-399425D02*
G01X-528927Y-396123D01*
G01X-519783Y-386979D01*
G01X-519783Y-452003D01*
G01X-3741080Y538069D02*
G01X-3806104Y538069D01*
G01X-3741080Y538069D02*
G01X-3741080Y497937D01*
G01X-3772068Y538069D02*
G01X-3772068Y513177D01*
G01X-3753526Y467711D02*
G01X-3750224Y461615D01*
G01X-3741080Y452471D01*
G01X-3806104Y452471D01*
G01X-3804412Y-1938020D02*
G01X-3801110Y-1944116D01*
G01X-3791966Y-1953514D01*
G01X-3856990Y-1953514D01*
G01X-3791966Y-2002282D02*
G01X-3795014Y-1992884D01*
G01X-3804412Y-1986788D01*
G01X-3819652Y-1983740D01*
G01X-3829050Y-1983740D01*
G01X-3844544Y-1986788D01*
G01X-3853942Y-1992884D01*
G01X-3856990Y-2002282D01*
G01X-3856990Y-2008378D01*
G01X-3853942Y-2017776D01*
G01X-3844544Y-2023872D01*
G01X-3829050Y-2026920D01*
G01X-3819652Y-2026920D01*
G01X-3804412Y-2023872D01*
G01X-3795014Y-2017776D01*
G01X-3791966Y-2008378D01*
G01X-3791966Y-2002282D01*
G01X-3791966Y-2057146D02*
G01X-3856990Y-2057146D01*
G01X-3791966Y-2100326D02*
G01X-3835146Y-2057146D01*
G01X-3819652Y-2072386D02*
G01X-3856990Y-2100326D01*
G01X-3856990Y-2130552D02*
G01X-3856990Y-2152142D01*
G01X-3847592Y-2145792D01*
G01X-3838448Y-2139696D01*
G01X-3829050Y-2136648D01*
G01X-3819652Y-2136648D01*
G01X-3810508Y-2139696D01*
G01X-3804412Y-2142744D01*
G01X-3798062Y-2149094D01*
G01X-3795014Y-2155190D01*
G01X-3795014Y-2167636D01*
G01X-3798062Y-2173732D01*
G01X-3804412Y-2180082D01*
G01X-3810508Y-2183130D01*
G01X-3819652Y-2186178D01*
G01X-3829050Y-2186178D01*
G01X-3838448Y-2183130D01*
G01X-3847592Y-2176780D01*
G01X-3856990Y-2170684D01*
G01X-3856990Y-2192274D01*
G01X-3804412Y-2222500D02*
G01X-3801110Y-2228596D01*
G01X-3791966Y-2237740D01*
G01X-3856990Y-2237740D01*
G01X-877971Y-558090D02*
G01X-942995Y-558090D01*
G01X-877971Y-558090D02*
G01X-877971Y-579680D01*
G01X-881019Y-589078D01*
G01X-887115Y-595174D01*
G01X-893465Y-598222D01*
G01X-902609Y-601524D01*
G01X-918103Y-601524D01*
G01X-927501Y-598222D01*
G01X-933597Y-595174D01*
G01X-939947Y-589078D01*
G01X-942995Y-579680D01*
G01X-942995Y-558090D01*
G01X-893465Y-634798D02*
G01X-890417Y-634798D01*
G01X-884067Y-637846D01*
G01X-881019Y-640894D01*
G01X-877971Y-646990D01*
G01X-877971Y-659436D01*
G01X-881019Y-665786D01*
G01X-884067Y-668834D01*
G01X-890417Y-671882D01*
G01X-896513Y-671882D01*
G01X-902609Y-668834D01*
G01X-912007Y-662484D01*
G01X-942995Y-631750D01*
G01X-942995Y-674930D01*
G04 Text End*

G04 PolygonModel Start*
G01X768237Y-1519692D02*
G01X504598Y-1521696D01*
G01X504598Y-1521696D02*
G01X504598Y-986010D01*
G01X504598Y-986010D02*
G01X644044Y-846564D01*
G01X644044Y-846564D02*
G01X773584Y-847900D01*
G01X912933Y-1521079D02*
G01X1179780Y-1521747D01*
G01X1179780Y-1521747D02*
G01X1179780Y-986127D01*
G01X1179780Y-986127D02*
G01X1040167Y-846513D01*
G01X1040167Y-846513D02*
G01X910744Y-846513D01*
G36*
G01X700264Y-1494330D02*
G01X680465Y-1494330D01*
G01X680465Y-1415131D01*
G01X700264Y-1415131D01*
G01X700264Y-1494330D01*
G37*
G36*
G01X700264Y-873930D02*
G01X680465Y-873930D01*
G01X680465Y-953130D01*
G01X700264Y-953130D01*
G01X700264Y-873930D01*
G37*
G36*
G01X756362Y-903630D02*
G01X624364Y-903630D01*
G01X624364Y-923430D01*
G01X756362Y-923430D01*
G01X756362Y-903630D01*
G37*
G01X310008Y-1149388D02*
G01X24766Y-1149388D01*
G01X9526Y-1164628D02*
G01X9526Y-1328128D01*
G01X325248Y-1328128D02*
G01X325248Y-1164628D01*
G01X9526Y-1646867D02*
G01X9526Y-1483368D01*
G01X325248Y-1483368D02*
G01X325248Y-1646867D01*
G01X310008Y-1662107D02*
G01X24766Y-1662107D01*
G01X325248Y-1164628D02*
G03X310008Y-1149388I-15240J0D01*
G01X24766Y-1149388D02*
G03X9526Y-1164628I0J-15240D01*
G01X325248Y-1646867D02*
G02X310008Y-1662107I-15240J0D01*
G01X24766Y-1662107D02*
G02X9526Y-1646867I0J15240D01*
G01X-208050Y-1149388D02*
G01X-493292Y-1149388D01*
G01X-508532Y-1164628D02*
G01X-508532Y-1328128D01*
G01X-192810Y-1328128D02*
G01X-192810Y-1164628D01*
G01X-508532Y-1646867D02*
G01X-508532Y-1483368D01*
G01X-192810Y-1483368D02*
G01X-192810Y-1646867D01*
G01X-208050Y-1662107D02*
G01X-493292Y-1662107D01*
G01X-192810Y-1164628D02*
G03X-208050Y-1149388I-15240J0D01*
G01X-493292Y-1149388D02*
G03X-508532Y-1164628I0J-15240D01*
G01X-192810Y-1646867D02*
G02X-208050Y-1662107I-15240J0D01*
G01X-493292Y-1662107D02*
G02X-508532Y-1646867I0J15240D01*
G01X-2999233Y-271462D02*
G01X-2997229Y-535102D01*
G01X-2997229Y-535102D02*
G01X-3532915Y-535102D01*
G01X-3532915Y-535102D02*
G01X-3672361Y-395656D01*
G01X-3672361Y-395656D02*
G01X-3671025Y-266116D01*
G01X-2997846Y-126766D02*
G01X-2997178Y140081D01*
G01X-2997178Y140081D02*
G01X-3532798Y140081D01*
G01X-3532798Y140081D02*
G01X-3672412Y467D01*
G01X-3672412Y467D02*
G01X-3672412Y-128956D01*
G36*
G01X-3024595Y-339435D02*
G01X-3024595Y-359235D01*
G01X-3103795Y-359235D01*
G01X-3103795Y-339435D01*
G01X-3024595Y-339435D01*
G37*
G36*
G01X-3644995Y-339435D02*
G01X-3644995Y-359235D01*
G01X-3565796Y-359235D01*
G01X-3565796Y-339435D01*
G01X-3644995Y-339435D01*
G37*
G36*
G01X-3615295Y-283337D02*
G01X-3615295Y-415336D01*
G01X-3595496Y-415336D01*
G01X-3595496Y-283337D01*
G01X-3615295Y-283337D01*
G37*
G01X-3091360Y-1027824D02*
G01X-3091360Y-742582D01*
G01X-3106600Y-727342D02*
G01X-3270100Y-727342D01*
G01X-3270100Y-1043064D02*
G01X-3106600Y-1043064D01*
G01X-3588840Y-727342D02*
G01X-3425340Y-727342D01*
G01X-3425340Y-1043064D02*
G01X-3588840Y-1043064D01*
G01X-3604080Y-1027824D02*
G01X-3604080Y-742582D01*
G01X-3106600Y-1043064D02*
G03X-3091360Y-1027824I0J15240D01*
G01X-3091360Y-742582D02*
G03X-3106600Y-727342I-15240J0D01*
G01X-3588840Y-1043064D02*
G02X-3604080Y-1027824I0J15240D01*
G01X-3604080Y-742582D02*
G02X-3588840Y-727342I15240J0D01*
G01X-2015721Y-774921D02*
G01X-1870479Y-774921D01*
G01X-1870479Y-774921D02*
G01X-1870479Y-671759D01*
G01X-2015721Y-469679D02*
G01X-1870479Y-469679D01*
G01X-1870479Y-469679D02*
G01X-1870479Y-572841D01*
G01X-2015721Y-667840D02*
G01X-2015721Y-576760D01*
G01X-3673018Y-1908800D02*
G01X-3673018Y-2100941D01*
G01X-3673018Y-2100941D02*
G01X-2727780Y-2100941D01*
G01X-2727780Y-2100941D02*
G01X-2727780Y-1556662D01*
G01X-2727780Y-1556662D02*
G01X-3673018Y-1556662D01*
G01X-3673018Y-1556662D02*
G01X-3673018Y-1748800D01*
G01X-3673019Y-1908800D02*
G03X-3673019Y-1748800I0J80000D01*
G01X-2109845Y-1884385D02*
G01X-2109845Y-1748394D01*
G01X-2109845Y-1748394D02*
G01X-2325663Y-1748394D01*
G01X-2325663Y-1748394D02*
G01X-2325663Y-1884385D01*
G01X-2109845Y-2074626D02*
G01X-2109845Y-2210618D01*
G01X-2109845Y-2210618D02*
G01X-2325663Y-2210618D01*
G01X-2325663Y-2210618D02*
G01X-2325663Y-2074626D01*
G01X-2091847Y-219989D02*
G01X-1955856Y-219989D01*
G01X-1955856Y-219989D02*
G01X-1955856Y-4171D01*
G01X-1955856Y-4171D02*
G01X-2091847Y-4171D01*
G01X-2282088Y-219989D02*
G01X-2418080Y-219989D01*
G01X-2418080Y-219989D02*
G01X-2418080Y-4171D01*
G01X-2418080Y-4171D02*
G01X-2282088Y-4171D01*
G01X-1824427Y-2074626D02*
G01X-1824427Y-2210618D01*
G01X-1824427Y-2210618D02*
G01X-1608609Y-2210618D01*
G01X-1608609Y-2210618D02*
G01X-1608609Y-2074626D01*
G01X-1824427Y-1884385D02*
G01X-1824427Y-1748394D01*
G01X-1824427Y-1748394D02*
G01X-1608609Y-1748394D01*
G01X-1608609Y-1748394D02*
G01X-1608609Y-1884385D01*
G01X-2698791Y-730380D02*
G01X-2698791Y-594388D01*
G01X-2698791Y-594388D02*
G01X-2914609Y-594388D01*
G01X-2914609Y-594388D02*
G01X-2914609Y-730380D01*
G01X-2698791Y-920620D02*
G01X-2698791Y-1056612D01*
G01X-2698791Y-1056612D02*
G01X-2914609Y-1056612D01*
G01X-2914609Y-1056612D02*
G01X-2914609Y-920620D01*
G54D14*
G01X181306Y-178377D02*
G01X181306Y101531D01*
G01X181306Y101531D02*
G01X-858570Y101531D01*
G01X-858570Y101531D02*
G01X-858570Y-178377D01*
G01X181306Y-658437D02*
G01X181306Y-938345D01*
G01X181306Y-938345D02*
G01X-858570Y-938345D01*
G01X-858570Y-938345D02*
G01X-858570Y-658437D01*
G54D15*
G01X-3860714Y502989D02*
G01X-3860714Y302989D01*
G01X-3900714Y532989D02*
G01X-4400713Y532989D01*
G01X-4440712Y502989D02*
G01X-4440712Y302989D01*
G01X-3860714Y-157010D02*
G01X-3860714Y-357010D01*
G01X-3900714Y-387010D02*
G01X-4400713Y-387010D01*
G01X-4440712Y-157010D02*
G01X-4440712Y-357010D01*
G01X-3998313Y72989D02*
G02X-4150713Y72989I-76200J0D01*
G01X-4303113Y47589D02*
G02X-4150713Y72989I75500J16901D01*
G54D13*
G01X-4123677Y-2171149D02*
G01X-4123677Y-2307140D01*
G01X-4123677Y-2307140D02*
G01X-3907859Y-2307140D01*
G01X-3907859Y-2307140D02*
G01X-3907859Y-2171149D01*
G01X-4123677Y-1980908D02*
G01X-4123677Y-1844916D01*
G01X-4123677Y-1844916D02*
G01X-3907859Y-1844916D01*
G01X-3907859Y-1844916D02*
G01X-3907859Y-1980908D01*
G01X-992777Y-847214D02*
G01X-1598023Y-847214D01*
G54D15*
G01X-1295400Y-1003300D02*
G01X-1346200Y-1104900D01*
G01X-1346200Y-1104900D02*
G01X-1244600Y-1104900D01*
G01X-1244600Y-1104900D02*
G01X-1295400Y-1003300D01*
G01X-1295400Y-1003300D02*
G01X-1346200Y-1003300D01*
G01X-1346200Y-1003300D02*
G01X-1244600Y-1003300D01*
G01X-1295400Y-1155700D02*
G01X-1295400Y-952500D01*
G54D13*
G01X-992777Y-656481D02*
G01X-992777Y-1451719D01*
G01X-1598023Y-656481D02*
G01X-1598023Y-1451719D01*
G01X-992777Y-1451719D02*
G01X-1113079Y-1451719D01*
G01X-1598023Y-1451719D02*
G01X-1477721Y-1451719D01*
G36*
G01X-985159Y-664101D02*
G01X-1118159Y-664101D01*
G01X-1118159Y-618381D01*
G01X-985159Y-618381D01*
G01X-985159Y-664101D01*
G37*
G36*
G01X-1605641Y-664101D02*
G01X-1472641Y-664101D01*
G01X-1472641Y-618381D01*
G01X-1605641Y-618381D01*
G01X-1605641Y-664101D01*
G37*

G04 Circle Start*
G54D17*
G01X-3740658Y-2209038D02*
G03X-3710635Y-2209038I15011J0D01*
G03X-3740658Y-2209038I-15011J0D01*
G04 Circle End*

M02*

