G04 Layer: TopPasteMaskLayer*
G04 EasyEDA Pro v2.2.45.4, 2025-12-13 17:00:57*
G04 Gerber Generator version 0.3*
G04 Scale: 100 percent, Rotated: No, Reflected: No*
G04 Dimensions in millimeters*
G04 Leading zeros omitted, absolute positions, 4 integers and 5 decimals*
G04 Generated by one-click*
%FSLAX45Y45*%
%MOMM*%
%AMPolygonMacro1*4,1,4,0.762,0.508,0.762,-0.508,-0.762,-0.508,-0.762,0.508,0.762,0.508,0*%
%ADD10PolygonMacro1*%
%ADD11R,1.2X3.49999*%
%ADD12R,3.49999X1.2*%
%ADD13R,1.2X0.93*%
%ADD14R,1.25001X0.7*%
%ADD15R,2.2047X3.59999*%
%ADD16R,2.2X3.59999*%
G75*


G04 PolygonModel Start*
G36*
G01X-279112Y-1335748D02*
G01X-348212Y-1335748D01*
G01X-358212Y-1325748D01*
G01X-358212Y-1290157D01*
G01X-368212Y-1280157D01*
G01X-440013Y-1280157D01*
G01X-450013Y-1290157D01*
G01X-450013Y-1325748D01*
G01X-460013Y-1335748D01*
G01X-529114Y-1335748D01*
G01X-539114Y-1325748D01*
G01X-539114Y-1182248D01*
G01X-529114Y-1172248D01*
G01X-279112Y-1172248D01*
G01X-269112Y-1182248D01*
G01X-269112Y-1325748D01*
G01X-279112Y-1335748D01*
G37*
G36*
G01X-279112Y-1475748D02*
G01X-348212Y-1475748D01*
G01X-358212Y-1485748D01*
G01X-358212Y-1521338D01*
G01X-368212Y-1531338D01*
G01X-440013Y-1531338D01*
G01X-450013Y-1521338D01*
G01X-450013Y-1485748D01*
G01X-460013Y-1475748D01*
G01X-529114Y-1475748D01*
G01X-539114Y-1485748D01*
G01X-539114Y-1629247D01*
G01X-529114Y-1639247D01*
G01X-279112Y-1639247D01*
G01X-269112Y-1629247D01*
G01X-269112Y-1485748D01*
G01X-279112Y-1475748D01*
G37*
G36*
G01X-797170Y-1335748D02*
G01X-866271Y-1335748D01*
G01X-876271Y-1325748D01*
G01X-876271Y-1290157D01*
G01X-886271Y-1280157D01*
G01X-958071Y-1280157D01*
G01X-968071Y-1290157D01*
G01X-968071Y-1325748D01*
G01X-978071Y-1335748D01*
G01X-1047172Y-1335748D01*
G01X-1057172Y-1325748D01*
G01X-1057172Y-1182248D01*
G01X-1047172Y-1172248D01*
G01X-797170Y-1172248D01*
G01X-787170Y-1182248D01*
G01X-787170Y-1325748D01*
G01X-797170Y-1335748D01*
G37*
G36*
G01X-797170Y-1475748D02*
G01X-866271Y-1475748D01*
G01X-876271Y-1485748D01*
G01X-876271Y-1521338D01*
G01X-886271Y-1531338D01*
G01X-958071Y-1531338D01*
G01X-968071Y-1521338D01*
G01X-968071Y-1485748D01*
G01X-978071Y-1475748D01*
G01X-1047172Y-1475748D01*
G01X-1057172Y-1485748D01*
G01X-1057172Y-1629247D01*
G01X-1047172Y-1639247D01*
G01X-797170Y-1639247D01*
G01X-787170Y-1629247D01*
G01X-787170Y-1485748D01*
G01X-797170Y-1475748D01*
G37*
G36*
G01X-3277720Y-1010204D02*
G01X-3277720Y-941103D01*
G01X-3267720Y-931103D01*
G01X-3232130Y-931103D01*
G01X-3222130Y-921103D01*
G01X-3222130Y-849302D01*
G01X-3232130Y-839302D01*
G01X-3267720Y-839302D01*
G01X-3277720Y-829302D01*
G01X-3277720Y-760202D01*
G01X-3267720Y-750202D01*
G01X-3124220Y-750202D01*
G01X-3114220Y-760202D01*
G01X-3114220Y-1010204D01*
G01X-3124220Y-1020204D01*
G01X-3267720Y-1020204D01*
G01X-3277720Y-1010204D01*
G37*
G36*
G01X-3417720Y-1010204D02*
G01X-3417720Y-941103D01*
G01X-3427720Y-931103D01*
G01X-3463310Y-931103D01*
G01X-3473310Y-921103D01*
G01X-3473310Y-849302D01*
G01X-3463310Y-839302D01*
G01X-3427720Y-839302D01*
G01X-3417720Y-829302D01*
G01X-3417720Y-760202D01*
G01X-3427720Y-750202D01*
G01X-3571220Y-750202D01*
G01X-3581220Y-760202D01*
G01X-3581220Y-1010204D01*
G01X-3571220Y-1020204D01*
G01X-3427720Y-1020204D01*
G01X-3417720Y-1010204D01*
G37*
G36*
G01X-2142705Y-1892005D02*
G01X-2178836Y-1892005D01*
G01X-2188836Y-1882005D01*
G01X-2188836Y-1860949D01*
G01X-2198836Y-1850949D01*
G01X-2236672Y-1850949D01*
G01X-2246672Y-1860949D01*
G01X-2246672Y-1882005D01*
G01X-2256672Y-1892005D01*
G01X-2292803Y-1892005D01*
G01X-2302803Y-1882005D01*
G01X-2302803Y-1781254D01*
G01X-2292803Y-1771254D01*
G01X-2142705Y-1771254D01*
G01X-2132705Y-1781254D01*
G01X-2132705Y-1882005D01*
G01X-2142705Y-1892005D01*
G37*
G36*
G01X-2142705Y-2067006D02*
G01X-2178836Y-2067006D01*
G01X-2188836Y-2077006D01*
G01X-2188836Y-2098063D01*
G01X-2198836Y-2108063D01*
G01X-2236672Y-2108063D01*
G01X-2246672Y-2098063D01*
G01X-2246672Y-2077006D01*
G01X-2256672Y-2067006D01*
G01X-2292803Y-2067006D01*
G01X-2302803Y-2077006D01*
G01X-2302803Y-2177758D01*
G01X-2292803Y-2187758D01*
G01X-2142705Y-2187758D01*
G01X-2132705Y-2177758D01*
G01X-2132705Y-2077006D01*
G01X-2142705Y-2067006D01*
G37*
G36*
G01X-2099467Y-187129D02*
G01X-2099467Y-150998D01*
G01X-2089467Y-140998D01*
G01X-2068411Y-140998D01*
G01X-2058411Y-130998D01*
G01X-2058411Y-93162D01*
G01X-2068411Y-83162D01*
G01X-2089467Y-83162D01*
G01X-2099467Y-73162D01*
G01X-2099467Y-37031D01*
G01X-2089467Y-27031D01*
G01X-1988716Y-27031D01*
G01X-1978716Y-37031D01*
G01X-1978716Y-187129D01*
G01X-1988716Y-197129D01*
G01X-2089467Y-197129D01*
G01X-2099467Y-187129D01*
G37*
G36*
G01X-2274468Y-187129D02*
G01X-2274468Y-150998D01*
G01X-2284468Y-140998D01*
G01X-2305525Y-140998D01*
G01X-2315525Y-130998D01*
G01X-2315525Y-93162D01*
G01X-2305525Y-83162D01*
G01X-2284468Y-83162D01*
G01X-2274468Y-73162D01*
G01X-2274468Y-37031D01*
G01X-2284468Y-27031D01*
G01X-2385220Y-27031D01*
G01X-2395220Y-37031D01*
G01X-2395220Y-187129D01*
G01X-2385220Y-197129D01*
G01X-2284468Y-197129D01*
G01X-2274468Y-187129D01*
G37*
G36*
G01X-1791567Y-2067006D02*
G01X-1755436Y-2067006D01*
G01X-1745436Y-2077006D01*
G01X-1745436Y-2098063D01*
G01X-1735436Y-2108063D01*
G01X-1697600Y-2108063D01*
G01X-1687600Y-2098063D01*
G01X-1687600Y-2077006D01*
G01X-1677600Y-2067006D01*
G01X-1641469Y-2067006D01*
G01X-1631469Y-2077006D01*
G01X-1631469Y-2177758D01*
G01X-1641469Y-2187758D01*
G01X-1791567Y-2187758D01*
G01X-1801567Y-2177758D01*
G01X-1801567Y-2077006D01*
G01X-1791567Y-2067006D01*
G37*
G36*
G01X-1791567Y-1892005D02*
G01X-1755436Y-1892005D01*
G01X-1745436Y-1882005D01*
G01X-1745436Y-1860949D01*
G01X-1735436Y-1850949D01*
G01X-1697600Y-1850949D01*
G01X-1687600Y-1860949D01*
G01X-1687600Y-1882005D01*
G01X-1677600Y-1892005D01*
G01X-1641469Y-1892005D01*
G01X-1631469Y-1882005D01*
G01X-1631469Y-1781254D01*
G01X-1641469Y-1771254D01*
G01X-1791567Y-1771254D01*
G01X-1801567Y-1781254D01*
G01X-1801567Y-1882005D01*
G01X-1791567Y-1892005D01*
G37*
G36*
G01X-2731651Y-738000D02*
G01X-2767782Y-738000D01*
G01X-2777782Y-728000D01*
G01X-2777782Y-706943D01*
G01X-2787782Y-696943D01*
G01X-2825618Y-696943D01*
G01X-2835618Y-706943D01*
G01X-2835618Y-728000D01*
G01X-2845618Y-738000D01*
G01X-2881749Y-738000D01*
G01X-2891749Y-728000D01*
G01X-2891749Y-627248D01*
G01X-2881749Y-617248D01*
G01X-2731651Y-617248D01*
G01X-2721651Y-627248D01*
G01X-2721651Y-728000D01*
G01X-2731651Y-738000D01*
G37*
G36*
G01X-2731651Y-913000D02*
G01X-2767782Y-913000D01*
G01X-2777782Y-923000D01*
G01X-2777782Y-944057D01*
G01X-2787782Y-954057D01*
G01X-2825618Y-954057D01*
G01X-2835618Y-944057D01*
G01X-2835618Y-923000D01*
G01X-2845618Y-913000D01*
G01X-2881749Y-913000D01*
G01X-2891749Y-923000D01*
G01X-2891749Y-1023752D01*
G01X-2881749Y-1033752D01*
G01X-2731651Y-1033752D01*
G01X-2721651Y-1023752D01*
G01X-2721651Y-923000D01*
G01X-2731651Y-913000D01*
G37*

G04 Pad Start*
G54D10*
G01X-3987800Y-2286000D03*
G01X-3987800Y-1892300D03*
G54D11*
G01X270664Y-917125D03*
G01X270664Y-1451135D03*
G54D12*
G01X-3601800Y-197536D03*
G01X-3067790Y-197536D03*
G54D13*
G01X-1409802Y-1041603D03*
G01X-1409802Y-1371600D03*
G54D14*
G01X-2043100Y-527304D03*
G01X-2043100Y-717296D03*
G01X-1843100Y-622300D03*
G54D16*
G01X-420133Y-418407D03*
G01X-1400131Y-418407D03*
G04 Pad End*

M02*

