G04 Layer: TopLayer*
G04 EasyEDA Pro v2.2.45.4, 2025-12-13 17:00:57*
G04 Gerber Generator version 0.3*
G04 Scale: 100 percent, Rotated: No, Reflected: No*
G04 Dimensions in millimeters*
G04 Leading zeros omitted, absolute positions, 4 integers and 5 decimals*
G04 Generated by one-click*
%FSLAX45Y45*%
%MOMM*%
%AMPolygonMacro1*4,1,4,0.762,0.508,0.762,-0.508,-0.762,-0.508,-0.762,0.508,0.762,0.508,0*%
%ADD10C,1.524*%
%ADD11PolygonMacro1*%
%ADD12R,1.2X3.49999*%
%ADD13R,2.69999X1.635*%
%ADD14R,3.49999X1.2*%
%ADD15R,1.6410X2.69999*%
%ADD16R,1.635X2.69999*%
%ADD17R,1.2X0.93*%
%ADD18R,1.25001X0.7*%
%ADD19O,1.524X2.0*%
%ADD20R,1.70101X1.20752*%
%ADD21R,1.20752X1.70101*%
%ADD22R,2.2X3.59999*%
%ADD23C,0.61*%
%ADD24C,0.889*%
%ADD25C,1.27*%
%ADD26C,0.635*%
G75*


G04 Pad Start*
G54D10*
G01X863600Y-698500D03*
G01X863600Y-1485900D03*
G01X-3975100Y-698500D03*
G01X-3975100Y-1485900D03*
G01X-3200400Y-1155700D03*
G01X-152400Y-1562100D03*
G01X-1231900Y-1549400D03*
G01X-662236Y-1557487D03*
G54D11*
G01X-3987800Y-2286000D03*
G01X-3987800Y-1892300D03*
G54D12*
G01X270664Y-917125D03*
G01X270664Y-1451135D03*
G54D13*
G01X-404113Y-1254008D03*
G01X-404113Y-1557487D03*
G01X-922171Y-1254008D03*
G01X-922171Y-1557487D03*
G54D14*
G01X-3601800Y-197536D03*
G01X-3067790Y-197536D03*
G54D16*
G01X-3195980Y-885203D03*
G01X-3499460Y-885203D03*
G54D17*
G01X-1409802Y-1041603D03*
G01X-1409802Y-1371600D03*
G54D18*
G01X-2043100Y-527304D03*
G01X-2043100Y-717296D03*
G01X-1843100Y-622300D03*
G54D19*
G01X-3581400Y-2223795D03*
G01X-3581400Y-1433805D03*
G01X-3327400Y-2223795D03*
G01X-3327400Y-1433805D03*
G01X-3073400Y-2223795D03*
G01X-3073400Y-1433805D03*
G01X-2819400Y-2223795D03*
G01X-2819400Y-1433805D03*
G54D20*
G01X-2217754Y-1831627D03*
G01X-2217754Y-2127385D03*
G54D21*
G01X-2039089Y-112080D03*
G01X-2334847Y-112080D03*
G54D20*
G01X-1716518Y-2127385D03*
G01X-1716518Y-1831627D03*
G01X-2806700Y-677621D03*
G01X-2806700Y-973379D03*
G54D22*
G01X-420133Y-418407D03*
G01X-1400131Y-418407D03*
G04 Pad End*

G04 Via Start*
G54D23*
G01X-2781300Y-139700D03*
G01X-2781300Y228600D03*
G04 Via End*

G04 Track Start*
G54D24*
G01X-1716518Y-2123625D02*
G01X-2217754Y-2123625D01*
G54D25*
G01X-3200400Y-1155700D02*
G01X-3195980Y-1151280D01*
G01X-3195980Y-885203D01*
G01X-2341568Y-101600D02*
G01X-2331088Y-112080D01*
G01X-2049767Y-723963D02*
G01X-2341568Y-723977D01*
G01X-2341568Y-101600D01*
G01X-3499460Y-885203D02*
G01X-3499460Y-1124560D01*
G01X-3581400Y-1206500D01*
G01X-3581400Y-1433805D01*
G01X-3195980Y-885203D02*
G01X-3200400Y-880783D01*
G01X-3619500Y-197536D02*
G01X-3601800Y-165655D01*
G01X-3601800Y-197536D01*
G01X-922171Y-1557487D02*
G01X-662236Y-1557487D01*
G01X-404113Y-1557487D01*
G01X-1231900Y-1549400D02*
G01X-1409700Y-1371600D01*
G01X-2819400Y-1433805D02*
G01X-2819400Y-1033120D01*
G01X-930260Y-1549400D02*
G01X-1231900Y-1549400D01*
G01X-922172Y-1557487D02*
G01X-930260Y-1549400D01*
G01X-3753535Y-197535D02*
G01X-3975100Y-419099D01*
G01X-3975100Y-698500D01*
G01X-3067789Y-377140D02*
G01X-3067789Y-197536D01*
G54D24*
G01X-2217754Y-2187125D02*
G01X-2217754Y-2123625D01*
G01X-3073400Y-2223795D02*
G01X-3073400Y-2276155D01*
G01X-2923856Y-2425700D01*
G01X-2456329Y-2425700D01*
G01X-2217754Y-2187125D01*
G54D25*
G01X-3499460Y-197536D02*
G01X-3499460Y-885203D01*
G01X-3601800Y-197536D02*
G01X-3524860Y-197536D01*
G01X-3622131Y34284D02*
G01X-3622132Y-145323D01*
G01X-3601800Y-165655D01*
G01X-2341568Y-101600D02*
G01X-2350452Y-92715D01*
G01X-2530057Y-92716D01*
G01X-2657056Y34284D01*
G01X-3596731Y34284D01*
G01X-2781300Y228600D02*
G01X-2269228Y228600D01*
G01X-2042848Y2220D01*
G01X-3200400Y-509751D02*
G01X-3067789Y-377140D01*
G01X-3200400Y-880783D02*
G01X-3200400Y-509751D01*
G01X-3601800Y-197536D02*
G01X-3753535Y-197536D01*
G01X863600Y-698500D02*
G01X863600Y-917125D01*
G01X-88900Y-1257300D02*
G01X-317500Y-1257300D01*
G01X-342900Y-1231900D01*
G01X270662Y-917125D02*
G01X-88900Y-917125D01*
G01X-88900Y-1257300D01*
G01X-404113Y-1557487D02*
G01X270664Y-1557487D01*
G01X270664Y-1485900D01*
G01X270664Y-1451135D01*
G54D24*
G01X-1035476Y-1216903D02*
G01X-1714500Y-1216903D01*
G01X-1714500Y-1757169D01*
G01X-1716517Y-1759186D01*
G01X-959277Y-1293104D02*
G01X-1035476Y-1216903D01*
G01X-1716517Y-1759186D02*
G01X-1716517Y-1835386D01*
G54D25*
G01X270664Y-1485900D02*
G01X876300Y-1485900D01*
G01X863600Y-917125D02*
G01X270664Y-917125D01*
G01X-2819400Y-2223795D02*
G01X-2819400Y-1835386D01*
G01X-2217754Y-1835386D01*
G01X-2819400Y-1033120D02*
G01X-2806700Y-1020420D01*
G01X-2806700Y-973379D01*
G01X-2781300Y-652221D02*
G01X-2781300Y-139700D01*
G01X-2806700Y-677621D02*
G01X-2781300Y-652221D01*
G01X-1409802Y-481907D02*
G01X-1400131Y-481907D01*
G01X-420133Y-481907D02*
G01X-420133Y-1254008D01*
G01X-404113Y-1254008D01*
G01X-420133Y-1254008D02*
G01X-922171Y-1254008D01*
G01X-1843100Y-622300D02*
G01X-1684453Y-463652D01*
G01X-1409802Y-463652D01*
G01X-1409802Y-481907D01*
G01X-1409802Y-1041603D02*
G01X-1409802Y-481907D01*
G01X-2042848Y2220D02*
G01X-2042848Y-468048D01*
G01X-2043100Y-468300D01*
G01X-2043100Y-527304D01*
G54D26*
G01X-3975100Y-1485900D02*
G01X-3975100Y-1892300D01*
G01X-3987800Y-1892300D01*
G01X-3327400Y-2223795D02*
G01X-3327400Y-2425700D01*
G01X-3949700Y-2425700D01*
G01X-3949700Y-2286000D01*
G01X-3987800Y-2286000D01*
G04 Track End*

M02*

