G04 Layer: BottomLayer*
G04 EasyEDA Pro v2.2.45.4, 2025-12-13 17:00:57*
G04 Gerber Generator version 0.3*
G04 Scale: 100 percent, Rotated: No, Reflected: No*
G04 Dimensions in millimeters*
G04 Leading zeros omitted, absolute positions, 4 integers and 5 decimals*
G04 Generated by one-click*
%FSLAX45Y45*%
%MOMM*%
%ADD10C,1.524*%
%ADD11O,1.524X2.0*%
%ADD12C,0.61*%
%ADD13C,1.27*%
%ADD14C,0.8047*%
G75*


G04 Rect Start*
G36*
G01X-2527300Y-2489200D02*
G01X-2527300Y292100D01*
G01X711200Y292100D01*
G01X711200Y-2489200D01*
G01X-2527300Y-2489200D01*
G37*
G04 Rect End*

G04 Pad Start*
G54D10*
G01X863600Y-698500D03*
G01X863600Y-1485900D03*
G01X-3975100Y-698500D03*
G01X-3975100Y-1485900D03*
G01X-3200400Y-1155700D03*
G01X-152400Y-1562100D03*
G01X-1231900Y-1549400D03*
G01X-662236Y-1557487D03*
G54D11*
G01X-3581400Y-2223795D03*
G01X-3581400Y-1433805D03*
G01X-3327400Y-2223795D03*
G01X-3327400Y-1433805D03*
G01X-3073400Y-2223795D03*
G01X-3073400Y-1433805D03*
G01X-2819400Y-2223795D03*
G01X-2819400Y-1433805D03*
G04 Pad End*

G04 Via Start*
G54D12*
G01X-2781300Y-139700D03*
G01X-2781300Y228600D03*
G04 Via End*

G04 Track Start*
G54D13*
G01X-3975100Y-1485900D02*
G01X-3644900Y-1155700D01*
G01X-3200400Y-1155700D01*
G01X-2273300Y-1155700D01*
G01X-2819400Y-2006600D02*
G01X-2819400Y-2223795D01*
G01X-3034243Y-2006600D02*
G01X-2819400Y-2006600D01*
G01X-3034638Y-2006995D02*
G01X-3034243Y-2006600D01*
G01X-3428605Y-2006995D02*
G01X-3034638Y-2006995D01*
G01X-2819400Y-2006600D02*
G01X-2273300Y-2006600D01*
G01X-3975100Y-1485900D02*
G01X-3949700Y-1485900D01*
G01X-3428605Y-2006995D01*
G01X-2781300Y-139700D02*
G01X-2781300Y228600D01*
G01X876300Y-1485900D02*
G01X546100Y-1485900D01*
G04 Track End*

M02*

